<svg width="32" height="32" viewBox="0 0 32 32" fill="none" xmlns="http://www.w3.org/2000/svg">
<path d="M12.0023 22.6667H7.47482C5.79691 22.6667 4.95796 22.6667 4.78145 22.5364C4.58314 22.39 4.53468 22.3036 4.51321 22.0581C4.4941 21.8395 5.00829 20.9982 6.03669 19.3154C7.09849 17.5781 8.00008 15.0483 8.00008 11.4667C8.00008 9.48638 8.84294 7.58721 10.3432 6.18694C11.8435 4.78666 13.8783 4 16.0001 4C18.1218 4 20.1566 4.78666 21.6569 6.18694C23.1572 7.58721 24.0001 9.48638 24.0001 11.4667C24.0001 15.0483 24.9017 17.5781 25.9635 19.3154C26.9919 20.9982 27.5061 21.8395 27.487 22.0581C27.4655 22.3036 27.417 22.39 27.2187 22.5364C27.0422 22.6667 26.2032 22.6667 24.5253 22.6667H20.0001M12.0023 22.6667L12.0001 24C12.0001 26.2091 13.7909 28 16.0001 28C18.2092 28 20.0001 26.2091 20.0001 24V22.6667M12.0023 22.6667H20.0001" stroke="white" stroke-width="2" stroke-linecap="round" stroke-linejoin="round"/>
</svg>
