<svg width="20" height="20" viewBox="0 0 20 20" fill="none" xmlns="http://www.w3.org/2000/svg">
<path d="M14 4C14 2.34315 12.6569 1 11 1H9C7.34315 1 6 2.34315 6 4M1.02747 8.02197L4.68521 10.9482C5.17251 11.338 5.41617 11.5329 5.68749 11.6715C5.9282 11.7945 6.18443 11.8844 6.44921 11.9387C6.74767 12 7.0597 12 7.68375 12H12.3163C12.9403 12 13.2523 12 13.5508 11.9387C13.8156 11.8844 14.0718 11.7945 14.3125 11.6715C14.5838 11.5329 14.8275 11.338 15.3148 10.9482L18.9725 8.02197M1.02747 8.02197C1 8.48945 1 9.06416 1 9.8V14.2C1 15.8802 1 16.7202 1.32698 17.362C1.6146 17.9265 2.07354 18.3854 2.63803 18.673C3.27976 19 4.11984 19 5.8 19H14.2C15.8802 19 16.7202 19 17.362 18.673C17.9265 18.3854 18.3854 17.9265 18.673 17.362C19 16.7202 19 15.8802 19 14.2V9.8C19 9.06416 19 8.48945 18.9725 8.02197M1.02747 8.02197C1.06272 7.42205 1.1432 6.99871 1.32698 6.63803C1.6146 6.07354 2.07354 5.6146 2.63803 5.32698C3.27976 5 4.11984 5 5.8 5H14.2C15.8802 5 16.7202 5 17.362 5.32698C17.9265 5.6146 18.3854 6.07354 18.673 6.63803C18.8568 6.99871 18.9373 7.42205 18.9725 8.02197" stroke="#404040" stroke-width="2" stroke-linecap="round" stroke-linejoin="round"/>
</svg>
