<svg width="32" height="32" viewBox="0 0 32 32" fill="none" xmlns="http://www.w3.org/2000/svg">
<path d="M31 16C31 24.2843 24.2843 31 16 31C7.71573 31 1 24.2843 1 16C1 7.71573 7.71573 1 16 1M24.3333 16C24.3333 20.6024 20.6024 24.3333 16 24.3333C11.3976 24.3333 7.66667 20.6024 7.66667 16C7.66667 11.3976 11.3976 7.66667 16 7.66667M20.5965 11.586L27.1948 12.279L30.7715 7.27154L26.4794 5.84083L25.0487 1.54869L20.0412 5.12547L20.5965 11.586ZM20.5965 11.586L16 15.9999" stroke="#08BD1B" stroke-width="2" stroke-linecap="round" stroke-linejoin="round"/>
</svg>
