<svg width="236" height="213" viewBox="0 0 236 213" fill="none" xmlns="http://www.w3.org/2000/svg">
<path d="M44.5827 173.909C44.5827 174.983 44.3888 175.911 44.001 176.693C43.6132 177.475 43.0812 178.079 42.4051 178.503C41.729 178.927 40.9567 179.139 40.0883 179.139C39.22 179.139 38.4477 178.927 37.7716 178.503C37.0954 178.079 36.5635 177.475 36.1757 176.693C35.7879 175.911 35.594 174.983 35.594 173.909C35.594 172.835 35.7879 171.907 36.1757 171.125C36.5635 170.343 37.0954 169.74 37.7716 169.315C38.4477 168.891 39.22 168.679 40.0883 168.679C40.9567 168.679 41.729 168.891 42.4051 169.315C43.0812 169.74 43.6132 170.343 44.001 171.125C44.3888 171.907 44.5827 172.835 44.5827 173.909ZM43.3895 173.909C43.3895 173.027 43.242 172.283 42.947 171.677C42.6553 171.07 42.2593 170.611 41.7588 170.3C41.2616 169.988 40.7048 169.832 40.0883 169.832C39.4719 169.832 38.9134 169.988 38.4129 170.3C37.9157 170.611 37.5197 171.07 37.2247 171.677C36.933 172.283 36.7872 173.027 36.7872 173.909C36.7872 174.791 36.933 175.535 37.2247 176.141C37.5197 176.748 37.9157 177.207 38.4129 177.518C38.9134 177.83 39.4719 177.986 40.0883 177.986C40.7048 177.986 41.2616 177.83 41.7588 177.518C42.2593 177.207 42.6553 176.748 42.947 176.141C43.242 175.535 43.3895 174.791 43.3895 173.909ZM51.3092 175.878V171.364H52.4825V179H51.3092V177.707H51.2297C51.0507 178.095 50.7723 178.425 50.3944 178.697C50.0166 178.965 49.5393 179.099 48.9626 179.099C48.4854 179.099 48.0611 178.995 47.6899 178.786C47.3187 178.574 47.027 178.256 46.8149 177.832C46.6028 177.404 46.4967 176.866 46.4967 176.216V171.364H47.67V176.136C47.67 176.693 47.8258 177.137 48.1373 177.469C48.4522 177.8 48.8532 177.966 49.3405 177.966C49.6321 177.966 49.9288 177.891 50.2304 177.742C50.5353 177.593 50.7905 177.364 50.996 177.056C51.2048 176.748 51.3092 176.355 51.3092 175.878ZM57.9525 171.364V172.358H53.9951V171.364H57.9525ZM55.1485 169.534H56.3218V176.812C56.3218 177.144 56.3699 177.393 56.466 177.558C56.5654 177.721 56.6914 177.83 56.8438 177.886C56.9996 177.939 57.1637 177.966 57.336 177.966C57.4653 177.966 57.5713 177.959 57.6542 177.946C57.7371 177.929 57.8034 177.916 57.8531 177.906L58.0917 178.96C58.0122 178.99 57.9011 179.02 57.7586 179.05C57.6161 179.083 57.4355 179.099 57.2167 179.099C56.8853 179.099 56.5605 179.028 56.2423 178.886C55.9274 178.743 55.6656 178.526 55.4568 178.234C55.2513 177.943 55.1485 177.575 55.1485 177.131V169.534ZM64.9898 173.074L63.9358 173.372C63.8695 173.196 63.7718 173.026 63.6425 172.86C63.5165 172.691 63.3442 172.552 63.1254 172.442C62.9067 172.333 62.6266 172.278 62.2852 172.278C61.8179 172.278 61.4285 172.386 61.1169 172.602C60.8087 172.814 60.6546 173.084 60.6546 173.412C60.6546 173.704 60.7606 173.934 60.9727 174.103C61.1849 174.272 61.5163 174.413 61.9671 174.526L63.1006 174.804C63.7834 174.97 64.2921 175.223 64.6269 175.565C64.9616 175.903 65.129 176.339 65.129 176.872C65.129 177.31 65.003 177.701 64.7512 178.045C64.5026 178.39 64.1546 178.662 63.7071 178.861C63.2597 179.06 62.7393 179.159 62.146 179.159C61.3672 179.159 60.7225 178.99 60.2121 178.652C59.7017 178.314 59.3785 177.82 59.2426 177.17L60.3563 176.892C60.4623 177.303 60.6628 177.611 60.9578 177.817C61.2561 178.022 61.6456 178.125 62.1262 178.125C62.673 178.125 63.1072 178.009 63.4287 177.777C63.7535 177.542 63.9159 177.26 63.9159 176.932C63.9159 176.667 63.8231 176.445 63.6375 176.266C63.4519 176.083 63.1669 175.947 62.7824 175.858L61.5097 175.56C60.8103 175.394 60.2966 175.137 59.9685 174.789C59.6437 174.438 59.4813 173.999 59.4813 173.472C59.4813 173.041 59.6022 172.66 59.8442 172.328C60.0895 171.997 60.4226 171.737 60.8435 171.548C61.2677 171.359 61.7483 171.264 62.2852 171.264C63.0409 171.264 63.6342 171.43 64.0651 171.761C64.4993 172.093 64.8075 172.53 64.9898 173.074ZM66.8952 179V171.364H68.0684V179H66.8952ZM67.4917 170.091C67.2631 170.091 67.0658 170.013 66.9001 169.857C66.7377 169.701 66.6565 169.514 66.6565 169.295C66.6565 169.077 66.7377 168.889 66.9001 168.734C67.0658 168.578 67.2631 168.5 67.4917 168.5C67.7204 168.5 67.916 168.578 68.0784 168.734C68.2441 168.889 68.327 169.077 68.327 169.295C68.327 169.514 68.2441 169.701 68.0784 169.857C67.916 170.013 67.7204 170.091 67.4917 170.091ZM73.1009 179.159C72.4646 179.159 71.9028 178.998 71.4156 178.677C70.9284 178.352 70.5472 177.895 70.2721 177.305C69.997 176.711 69.8595 176.01 69.8595 175.202C69.8595 174.4 69.997 173.704 70.2721 173.114C70.5472 172.524 70.93 172.068 71.4205 171.746C71.9111 171.425 72.4778 171.264 73.1208 171.264C73.618 171.264 74.0107 171.347 74.2991 171.513C74.5908 171.675 74.8128 171.861 74.9653 172.07C75.1211 172.275 75.242 172.444 75.3282 172.577H75.4276V168.818H76.6009V179H75.4674V177.827H75.3282C75.242 177.966 75.1194 178.142 74.9603 178.354C74.8012 178.562 74.5742 178.75 74.2792 178.915C73.9842 179.078 73.5915 179.159 73.1009 179.159ZM73.26 178.105C73.7307 178.105 74.1284 177.982 74.4532 177.737C74.778 177.489 75.0249 177.146 75.194 176.708C75.363 176.267 75.4475 175.759 75.4475 175.182C75.4475 174.612 75.3647 174.113 75.199 173.685C75.0332 173.254 74.788 172.92 74.4632 172.681C74.1383 172.439 73.7373 172.318 73.26 172.318C72.7629 172.318 72.3486 172.446 72.0171 172.701C71.689 172.953 71.4421 173.296 71.2764 173.73C71.114 174.161 71.0328 174.645 71.0328 175.182C71.0328 175.725 71.1156 176.219 71.2813 176.663C71.4504 177.104 71.699 177.455 72.0271 177.717C72.3585 177.976 72.7695 178.105 73.26 178.105ZM82.1144 179.159C81.3786 179.159 80.7439 178.997 80.2103 178.672C79.68 178.344 79.2707 177.886 78.9823 177.3C78.6973 176.71 78.5548 176.024 78.5548 175.241C78.5548 174.459 78.6973 173.77 78.9823 173.173C79.2707 172.573 79.6717 172.106 80.1855 171.771C80.7025 171.433 81.3057 171.264 81.9951 171.264C82.3928 171.264 82.7856 171.33 83.1734 171.463C83.5612 171.596 83.9142 171.811 84.2323 172.109C84.5505 172.404 84.8041 172.795 84.993 173.283C85.1819 173.77 85.2764 174.37 85.2764 175.082V175.58H79.39V174.565H84.0832C84.0832 174.134 83.997 173.75 83.8247 173.412C83.6556 173.074 83.4137 172.807 83.0988 172.612C82.7873 172.416 82.4194 172.318 81.9951 172.318C81.5278 172.318 81.1234 172.434 80.782 172.666C80.444 172.895 80.1838 173.193 80.0015 173.561C79.8192 173.929 79.7281 174.323 79.7281 174.744V175.42C79.7281 175.997 79.8275 176.486 80.0264 176.887C80.2285 177.285 80.5086 177.588 80.8666 177.797C81.2245 178.002 81.6405 178.105 82.1144 178.105C82.4227 178.105 82.7011 178.062 82.9497 177.976C83.2016 177.886 83.4186 177.754 83.6009 177.578C83.7832 177.399 83.9241 177.177 84.0235 176.912L85.157 177.23C85.0377 177.615 84.8372 177.953 84.5555 178.244C84.2738 178.533 83.9258 178.758 83.5115 178.92C83.0972 179.08 82.6315 179.159 82.1144 179.159ZM94.1009 179.159C93.385 179.159 92.7686 178.99 92.2515 178.652C91.7345 178.314 91.3367 177.848 91.0583 177.255C90.7799 176.662 90.6407 175.984 90.6407 175.222C90.6407 174.446 90.7832 173.762 91.0683 173.168C91.3566 172.572 91.7577 172.106 92.2714 171.771C92.7884 171.433 93.3917 171.264 94.0811 171.264C94.618 171.264 95.1019 171.364 95.5328 171.562C95.9636 171.761 96.3166 172.04 96.5917 172.398C96.8668 172.756 97.0375 173.173 97.1038 173.651H95.9305C95.841 173.303 95.6421 172.994 95.3339 172.726C95.029 172.454 94.618 172.318 94.1009 172.318C93.6436 172.318 93.2425 172.437 92.8978 172.676C92.5564 172.911 92.2896 173.245 92.0974 173.675C91.9085 174.103 91.814 174.605 91.814 175.182C91.814 175.772 91.9068 176.286 92.0924 176.723C92.2813 177.161 92.5465 177.5 92.8879 177.742C93.2326 177.984 93.6369 178.105 94.1009 178.105C94.4059 178.105 94.6826 178.052 94.9312 177.946C95.1798 177.84 95.3902 177.688 95.5626 177.489C95.7349 177.29 95.8576 177.051 95.9305 176.773H97.1038C97.0375 177.223 96.8734 177.629 96.6116 177.991C96.3531 178.349 96.01 178.634 95.5825 178.846C95.1582 179.055 94.6644 179.159 94.1009 179.159ZM101.921 179.159C101.232 179.159 100.627 178.995 100.107 178.667C99.5896 178.339 99.1852 177.88 98.8936 177.29C98.6052 176.7 98.461 176.01 98.461 175.222C98.461 174.426 98.6052 173.732 98.8936 173.138C99.1852 172.545 99.5896 172.085 100.107 171.756C100.627 171.428 101.232 171.264 101.921 171.264C102.611 171.264 103.214 171.428 103.731 171.756C104.251 172.085 104.656 172.545 104.944 173.138C105.236 173.732 105.381 174.426 105.381 175.222C105.381 176.01 105.236 176.7 104.944 177.29C104.656 177.88 104.251 178.339 103.731 178.667C103.214 178.995 102.611 179.159 101.921 179.159ZM101.921 178.105C102.445 178.105 102.876 177.971 103.214 177.702C103.552 177.434 103.802 177.081 103.965 176.643C104.127 176.206 104.208 175.732 104.208 175.222C104.208 174.711 104.127 174.236 103.965 173.795C103.802 173.354 103.552 172.998 103.214 172.726C102.876 172.454 102.445 172.318 101.921 172.318C101.398 172.318 100.967 172.454 100.629 172.726C100.291 172.998 100.04 173.354 99.8779 173.795C99.7155 174.236 99.6343 174.711 99.6343 175.222C99.6343 175.732 99.7155 176.206 99.8779 176.643C100.04 177.081 100.291 177.434 100.629 177.702C100.967 177.971 101.398 178.105 101.921 178.105ZM111.985 175.878V171.364H113.158V179H111.985V177.707H111.905C111.726 178.095 111.448 178.425 111.07 178.697C110.692 178.965 110.215 179.099 109.638 179.099C109.161 179.099 108.737 178.995 108.366 178.786C107.994 178.574 107.703 178.256 107.491 177.832C107.279 177.404 107.172 176.866 107.172 176.216V171.364H108.346V176.136C108.346 176.693 108.502 177.137 108.813 177.469C109.128 177.8 109.529 177.966 110.016 177.966C110.308 177.966 110.605 177.891 110.906 177.742C111.211 177.593 111.466 177.364 111.672 177.056C111.881 176.748 111.985 176.355 111.985 175.878ZM116.481 174.406V179H115.307V171.364H116.441V172.557H116.54C116.719 172.169 116.991 171.857 117.356 171.622C117.72 171.384 118.191 171.264 118.767 171.264C119.285 171.264 119.737 171.37 120.125 171.582C120.513 171.791 120.814 172.109 121.03 172.537C121.245 172.961 121.353 173.498 121.353 174.148V179H120.179V174.227C120.179 173.627 120.024 173.16 119.712 172.825C119.401 172.487 118.973 172.318 118.429 172.318C118.055 172.318 117.72 172.399 117.425 172.562C117.133 172.724 116.903 172.961 116.734 173.273C116.565 173.584 116.481 173.962 116.481 174.406ZM128.906 173.074L127.852 173.372C127.786 173.196 127.688 173.026 127.559 172.86C127.433 172.691 127.26 172.552 127.041 172.442C126.823 172.333 126.543 172.278 126.201 172.278C125.734 172.278 125.344 172.386 125.033 172.602C124.725 172.814 124.571 173.084 124.571 173.412C124.571 173.704 124.677 173.934 124.889 174.103C125.101 174.272 125.432 174.413 125.883 174.526L127.017 174.804C127.699 174.97 128.208 175.223 128.543 175.565C128.878 175.903 129.045 176.339 129.045 176.872C129.045 177.31 128.919 177.701 128.667 178.045C128.419 178.39 128.071 178.662 127.623 178.861C127.176 179.06 126.655 179.159 126.062 179.159C125.283 179.159 124.639 178.99 124.128 178.652C123.618 178.314 123.295 177.82 123.159 177.17L124.272 176.892C124.378 177.303 124.579 177.611 124.874 177.817C125.172 178.022 125.562 178.125 126.042 178.125C126.589 178.125 127.023 178.009 127.345 177.777C127.67 177.542 127.832 177.26 127.832 176.932C127.832 176.667 127.739 176.445 127.554 176.266C127.368 176.083 127.083 175.947 126.698 175.858L125.426 175.56C124.726 175.394 124.213 175.137 123.884 174.789C123.56 174.438 123.397 173.999 123.397 173.472C123.397 173.041 123.518 172.66 123.76 172.328C124.005 171.997 124.339 171.737 124.759 171.548C125.184 171.359 125.664 171.264 126.201 171.264C126.957 171.264 127.55 171.43 127.981 171.761C128.415 172.093 128.724 172.53 128.906 173.074ZM130.811 179V171.364H131.984V179H130.811ZM131.408 170.091C131.179 170.091 130.982 170.013 130.816 169.857C130.654 169.701 130.573 169.514 130.573 169.295C130.573 169.077 130.654 168.889 130.816 168.734C130.982 168.578 131.179 168.5 131.408 168.5C131.636 168.5 131.832 168.578 131.994 168.734C132.16 168.889 132.243 169.077 132.243 169.295C132.243 169.514 132.16 169.701 131.994 169.857C131.832 170.013 131.636 170.091 131.408 170.091ZM135.307 168.818V179H134.133V168.818H135.307ZM146.802 173.074L145.748 173.372C145.682 173.196 145.584 173.026 145.455 172.86C145.329 172.691 145.157 172.552 144.938 172.442C144.719 172.333 144.439 172.278 144.098 172.278C143.63 172.278 143.241 172.386 142.929 172.602C142.621 172.814 142.467 173.084 142.467 173.412C142.467 173.704 142.573 173.934 142.785 174.103C142.997 174.272 143.329 174.413 143.78 174.526L144.913 174.804C145.596 174.97 146.105 175.223 146.439 175.565C146.774 175.903 146.941 176.339 146.941 176.872C146.941 177.31 146.816 177.701 146.564 178.045C146.315 178.39 145.967 178.662 145.52 178.861C145.072 179.06 144.552 179.159 143.959 179.159C143.18 179.159 142.535 178.99 142.025 178.652C141.514 178.314 141.191 177.82 141.055 177.17L142.169 176.892C142.275 177.303 142.475 177.611 142.77 177.817C143.069 178.022 143.458 178.125 143.939 178.125C144.486 178.125 144.92 178.009 145.241 177.777C145.566 177.542 145.728 177.26 145.728 176.932C145.728 176.667 145.636 176.445 145.45 176.266C145.264 176.083 144.979 175.947 144.595 175.858L143.322 175.56C142.623 175.394 142.109 175.137 141.781 174.789C141.456 174.438 141.294 173.999 141.294 173.472C141.294 173.041 141.415 172.66 141.657 172.328C141.902 171.997 142.235 171.737 142.656 171.548C143.08 171.359 143.561 171.264 144.098 171.264C144.853 171.264 145.447 171.43 145.878 171.761C146.312 172.093 146.62 172.53 146.802 173.074ZM148.708 181.864V171.364H149.841V172.577H149.98C150.067 172.444 150.186 172.275 150.338 172.07C150.494 171.861 150.716 171.675 151.005 171.513C151.296 171.347 151.691 171.264 152.188 171.264C152.831 171.264 153.398 171.425 153.888 171.746C154.379 172.068 154.761 172.524 155.036 173.114C155.312 173.704 155.449 174.4 155.449 175.202C155.449 176.01 155.312 176.711 155.036 177.305C154.761 177.895 154.38 178.352 153.893 178.677C153.406 178.998 152.844 179.159 152.208 179.159C151.717 179.159 151.324 179.078 151.029 178.915C150.734 178.75 150.507 178.562 150.348 178.354C150.189 178.142 150.067 177.966 149.98 177.827H149.881V181.864H148.708ZM149.861 175.182C149.861 175.759 149.946 176.267 150.115 176.708C150.284 177.146 150.531 177.489 150.855 177.737C151.18 177.982 151.578 178.105 152.049 178.105C152.539 178.105 152.948 177.976 153.277 177.717C153.608 177.455 153.857 177.104 154.022 176.663C154.191 176.219 154.276 175.725 154.276 175.182C154.276 174.645 154.193 174.161 154.027 173.73C153.865 173.296 153.618 172.953 153.286 172.701C152.958 172.446 152.546 172.318 152.049 172.318C151.571 172.318 151.17 172.439 150.845 172.681C150.521 172.92 150.275 173.254 150.11 173.685C149.944 174.113 149.861 174.612 149.861 175.182ZM160.441 179.159C159.705 179.159 159.07 178.997 158.536 178.672C158.006 178.344 157.597 177.886 157.309 177.3C157.023 176.71 156.881 176.024 156.881 175.241C156.881 174.459 157.023 173.77 157.309 173.173C157.597 172.573 157.998 172.106 158.512 171.771C159.029 171.433 159.632 171.264 160.321 171.264C160.719 171.264 161.112 171.33 161.5 171.463C161.887 171.596 162.24 171.811 162.559 172.109C162.877 172.404 163.13 172.795 163.319 173.283C163.508 173.77 163.603 174.37 163.603 175.082V175.58H157.716V174.565H162.409C162.409 174.134 162.323 173.75 162.151 173.412C161.982 173.074 161.74 172.807 161.425 172.612C161.113 172.416 160.746 172.318 160.321 172.318C159.854 172.318 159.45 172.434 159.108 172.666C158.77 172.895 158.51 173.193 158.328 173.561C158.145 173.929 158.054 174.323 158.054 174.744V175.42C158.054 175.997 158.154 176.486 158.353 176.887C158.555 177.285 158.835 177.588 159.193 177.797C159.551 178.002 159.967 178.105 160.441 178.105C160.749 178.105 161.027 178.062 161.276 177.976C161.528 177.886 161.745 177.754 161.927 177.578C162.109 177.399 162.25 177.177 162.35 176.912L163.483 177.23C163.364 177.615 163.163 177.953 162.882 178.244C162.6 178.533 162.252 178.758 161.838 178.92C161.423 179.08 160.958 179.159 160.441 179.159ZM166.561 174.406V179H165.387V171.364H166.521V172.557H166.62C166.799 172.169 167.071 171.857 167.436 171.622C167.8 171.384 168.271 171.264 168.848 171.264C169.365 171.264 169.817 171.37 170.205 171.582C170.593 171.791 170.894 172.109 171.11 172.537C171.325 172.961 171.433 173.498 171.433 174.148V179H170.259V174.227C170.259 173.627 170.104 173.16 169.792 172.825C169.481 172.487 169.053 172.318 168.509 172.318C168.135 172.318 167.8 172.399 167.505 172.562C167.214 172.724 166.983 172.961 166.814 173.273C166.645 173.584 166.561 173.962 166.561 174.406ZM176.46 179.159C175.824 179.159 175.262 178.998 174.775 178.677C174.288 178.352 173.907 177.895 173.631 177.305C173.356 176.711 173.219 176.01 173.219 175.202C173.219 174.4 173.356 173.704 173.631 173.114C173.907 172.524 174.289 172.068 174.78 171.746C175.27 171.425 175.837 171.264 176.48 171.264C176.977 171.264 177.37 171.347 177.658 171.513C177.95 171.675 178.172 171.861 178.325 172.07C178.48 172.275 178.601 172.444 178.688 172.577H178.787V168.818H179.96V179H178.827V177.827H178.688C178.601 177.966 178.479 178.142 178.32 178.354C178.161 178.562 177.934 178.75 177.639 178.915C177.344 179.078 176.951 179.159 176.46 179.159ZM176.619 178.105C177.09 178.105 177.488 177.982 177.813 177.737C178.137 177.489 178.384 177.146 178.553 176.708C178.722 176.267 178.807 175.759 178.807 175.182C178.807 174.612 178.724 174.113 178.558 173.685C178.393 173.254 178.147 172.92 177.823 172.681C177.498 172.439 177.097 172.318 176.619 172.318C176.122 172.318 175.708 172.446 175.377 172.701C175.048 172.953 174.801 173.296 174.636 173.73C174.473 174.161 174.392 174.645 174.392 175.182C174.392 175.725 174.475 176.219 174.641 176.663C174.81 177.104 175.058 177.455 175.386 177.717C175.718 177.976 176.129 178.105 176.619 178.105ZM182.272 179V171.364H183.445V179H182.272ZM182.869 170.091C182.64 170.091 182.443 170.013 182.277 169.857C182.115 169.701 182.033 169.514 182.033 169.295C182.033 169.077 182.115 168.889 182.277 168.734C182.443 168.578 182.64 168.5 182.869 168.5C183.097 168.5 183.293 168.578 183.455 168.734C183.621 168.889 183.704 169.077 183.704 169.295C183.704 169.514 183.621 169.701 183.455 169.857C183.293 170.013 183.097 170.091 182.869 170.091ZM186.768 174.406V179H185.594V171.364H186.728V172.557H186.827C187.006 172.169 187.278 171.857 187.643 171.622C188.007 171.384 188.478 171.264 189.055 171.264C189.572 171.264 190.024 171.37 190.412 171.582C190.8 171.791 191.101 172.109 191.317 172.537C191.532 172.961 191.64 173.498 191.64 174.148V179H190.467V174.227C190.467 173.627 190.311 173.16 189.999 172.825C189.688 172.487 189.26 172.318 188.717 172.318C188.342 172.318 188.007 172.399 187.712 172.562C187.421 172.724 187.19 172.961 187.021 173.273C186.852 173.584 186.768 173.962 186.768 174.406ZM196.866 182.023C196.299 182.023 195.812 181.95 195.405 181.804C194.997 181.661 194.657 181.473 194.385 181.237C194.117 181.005 193.903 180.757 193.744 180.491L194.679 179.835C194.785 179.974 194.919 180.134 195.081 180.312C195.244 180.495 195.466 180.652 195.748 180.785C196.033 180.921 196.406 180.989 196.866 180.989C197.483 180.989 197.991 180.839 198.392 180.541C198.794 180.243 198.994 179.776 198.994 179.139V177.588H198.895C198.808 177.727 198.686 177.9 198.527 178.105C198.371 178.307 198.146 178.488 197.851 178.647C197.559 178.803 197.165 178.881 196.667 178.881C196.051 178.881 195.497 178.735 195.007 178.443C194.52 178.152 194.133 177.727 193.848 177.17C193.567 176.614 193.426 175.937 193.426 175.142C193.426 174.36 193.563 173.679 193.839 173.099C194.114 172.515 194.496 172.065 194.987 171.746C195.477 171.425 196.044 171.264 196.687 171.264C197.184 171.264 197.579 171.347 197.87 171.513C198.165 171.675 198.391 171.861 198.547 172.07C198.706 172.275 198.828 172.444 198.915 172.577H199.034V171.364H200.167V179.219C200.167 179.875 200.018 180.409 199.72 180.82C199.425 181.234 199.027 181.537 198.527 181.729C198.03 181.925 197.476 182.023 196.866 182.023ZM196.826 177.827C197.297 177.827 197.695 177.719 198.02 177.504C198.344 177.288 198.591 176.978 198.76 176.574C198.929 176.17 199.014 175.686 199.014 175.122C199.014 174.572 198.931 174.086 198.765 173.665C198.6 173.245 198.354 172.915 198.03 172.676C197.705 172.437 197.304 172.318 196.826 172.318C196.329 172.318 195.915 172.444 195.584 172.696C195.255 172.948 195.008 173.286 194.843 173.71C194.68 174.134 194.599 174.605 194.599 175.122C194.599 175.652 194.682 176.121 194.848 176.529C195.017 176.933 195.265 177.252 195.593 177.484C195.925 177.712 196.336 177.827 196.826 177.827ZM78.73 197V186.818H79.9033V190.577H80.0028C80.0889 190.444 80.2082 190.275 80.3607 190.07C80.5165 189.861 80.7385 189.675 81.0269 189.513C81.3186 189.347 81.713 189.264 82.2101 189.264C82.8531 189.264 83.4199 189.425 83.9104 189.746C84.401 190.068 84.7838 190.524 85.0589 191.114C85.334 191.704 85.4715 192.4 85.4715 193.202C85.4715 194.01 85.334 194.711 85.0589 195.305C84.7838 195.895 84.4026 196.352 83.9154 196.677C83.4282 196.998 82.8664 197.159 82.23 197.159C81.7395 197.159 81.3467 197.078 81.0518 196.915C80.7568 196.75 80.5297 196.562 80.3706 196.354C80.2116 196.142 80.0889 195.966 80.0028 195.827H79.8635V197H78.73ZM79.8834 193.182C79.8834 193.759 79.968 194.267 80.137 194.708C80.306 195.146 80.5529 195.489 80.8778 195.737C81.2026 195.982 81.6003 196.105 82.0709 196.105C82.5615 196.105 82.9708 195.976 83.2989 195.717C83.6304 195.455 83.8789 195.104 84.0447 194.663C84.2137 194.219 84.2982 193.725 84.2982 193.182C84.2982 192.645 84.2153 192.161 84.0496 191.73C83.8872 191.296 83.6403 190.953 83.3089 190.701C82.9807 190.446 82.5681 190.318 82.0709 190.318C81.5937 190.318 81.1926 190.439 80.8678 190.681C80.543 190.92 80.2977 191.254 80.132 191.685C79.9663 192.113 79.8834 192.612 79.8834 193.182ZM90.468 197.159C89.7322 197.159 89.0974 196.997 88.5638 196.672C88.0335 196.344 87.6242 195.886 87.3358 195.3C87.0508 194.71 86.9083 194.024 86.9083 193.241C86.9083 192.459 87.0508 191.77 87.3358 191.173C87.6242 190.573 88.0252 190.106 88.539 189.771C89.056 189.433 89.6592 189.264 90.3486 189.264C90.7464 189.264 91.1391 189.33 91.5269 189.463C91.9147 189.596 92.2677 189.811 92.5858 190.109C92.904 190.404 93.1576 190.795 93.3465 191.283C93.5354 191.77 93.6299 192.37 93.6299 193.082V193.58H87.7435V192.565H92.4367C92.4367 192.134 92.3505 191.75 92.1782 191.412C92.0091 191.074 91.7672 190.807 91.4523 190.612C91.1408 190.416 90.7729 190.318 90.3486 190.318C89.8813 190.318 89.4769 190.434 89.1356 190.666C88.7975 190.895 88.5373 191.193 88.355 191.561C88.1727 191.929 88.0816 192.323 88.0816 192.744V193.42C88.0816 193.997 88.181 194.486 88.3799 194.887C88.5821 195.285 88.8621 195.588 89.2201 195.797C89.578 196.002 89.994 196.105 90.468 196.105C90.7762 196.105 91.0546 196.062 91.3032 195.976C91.5551 195.886 91.7722 195.754 91.9545 195.578C92.1367 195.399 92.2776 195.177 92.377 194.912L93.5106 195.23C93.3912 195.615 93.1907 195.953 92.909 196.244C92.6273 196.533 92.2793 196.758 91.865 196.92C91.4507 197.08 90.985 197.159 90.468 197.159ZM96.588 192.406V197H95.4147V189.364H96.5482V190.557H96.6476C96.8266 190.169 97.0984 189.857 97.463 189.622C97.8276 189.384 98.2982 189.264 98.8749 189.264C99.392 189.264 99.8444 189.37 100.232 189.582C100.62 189.791 100.922 190.109 101.137 190.537C101.352 190.961 101.46 191.498 101.46 192.148V197H100.287V192.227C100.287 191.627 100.131 191.16 99.8195 190.825C99.508 190.487 99.0804 190.318 98.5368 190.318C98.1623 190.318 97.8276 190.399 97.5326 190.562C97.2409 190.724 97.0106 190.961 96.8415 191.273C96.6725 191.584 96.588 191.962 96.588 192.406ZM106.706 197.159C105.991 197.159 105.374 196.99 104.857 196.652C104.34 196.314 103.942 195.848 103.664 195.255C103.385 194.662 103.246 193.984 103.246 193.222C103.246 192.446 103.389 191.762 103.674 191.168C103.962 190.572 104.363 190.106 104.877 189.771C105.394 189.433 105.997 189.264 106.687 189.264C107.223 189.264 107.707 189.364 108.138 189.562C108.569 189.761 108.922 190.04 109.197 190.398C109.472 190.756 109.643 191.173 109.709 191.651H108.536C108.446 191.303 108.248 190.994 107.939 190.726C107.634 190.454 107.223 190.318 106.706 190.318C106.249 190.318 105.848 190.437 105.503 190.676C105.162 190.911 104.895 191.245 104.703 191.675C104.514 192.103 104.419 192.605 104.419 193.182C104.419 193.772 104.512 194.286 104.698 194.723C104.887 195.161 105.152 195.5 105.493 195.742C105.838 195.984 106.242 196.105 106.706 196.105C107.011 196.105 107.288 196.052 107.537 195.946C107.785 195.84 107.996 195.688 108.168 195.489C108.34 195.29 108.463 195.051 108.536 194.773H109.709C109.643 195.223 109.479 195.629 109.217 195.991C108.959 196.349 108.616 196.634 108.188 196.846C107.764 197.055 107.27 197.159 106.706 197.159ZM112.598 192.406V197H111.424V186.818H112.598V190.557H112.697C112.876 190.162 113.145 189.849 113.503 189.617C113.864 189.382 114.344 189.264 114.944 189.264C115.465 189.264 115.92 189.369 116.312 189.577C116.703 189.783 117.006 190.099 117.221 190.527C117.44 190.951 117.549 191.491 117.549 192.148V197H116.376V192.227C116.376 191.621 116.219 191.152 115.904 190.82C115.592 190.486 115.16 190.318 114.606 190.318C114.222 190.318 113.877 190.399 113.572 190.562C113.271 190.724 113.032 190.961 112.856 191.273C112.684 191.584 112.598 191.962 112.598 192.406ZM119.696 197V189.364H120.829V190.557H120.929C121.088 190.149 121.345 189.833 121.699 189.607C122.054 189.379 122.48 189.264 122.977 189.264C123.481 189.264 123.9 189.379 124.235 189.607C124.573 189.833 124.837 190.149 125.025 190.557H125.105C125.301 190.162 125.594 189.849 125.985 189.617C126.376 189.382 126.845 189.264 127.392 189.264C128.075 189.264 128.633 189.478 129.067 189.906C129.502 190.33 129.719 190.991 129.719 191.889V197H128.545V191.889C128.545 191.326 128.391 190.923 128.083 190.681C127.775 190.439 127.412 190.318 126.994 190.318C126.457 190.318 126.041 190.481 125.746 190.805C125.451 191.127 125.304 191.535 125.304 192.028V197H124.111V191.77C124.111 191.336 123.97 190.986 123.688 190.721C123.406 190.452 123.043 190.318 122.599 190.318C122.294 190.318 122.009 190.399 121.744 190.562C121.482 190.724 121.27 190.95 121.108 191.238C120.949 191.523 120.869 191.853 120.869 192.227V197H119.696ZM134.111 197.179C133.627 197.179 133.188 197.088 132.794 196.906C132.399 196.72 132.086 196.453 131.854 196.105C131.622 195.754 131.506 195.33 131.506 194.832C131.506 194.395 131.592 194.04 131.764 193.768C131.937 193.493 132.167 193.278 132.456 193.122C132.744 192.966 133.062 192.85 133.41 192.774C133.761 192.695 134.114 192.632 134.469 192.585C134.933 192.526 135.309 192.481 135.598 192.451C135.889 192.418 136.101 192.363 136.234 192.287C136.37 192.211 136.438 192.078 136.438 191.889V191.849C136.438 191.359 136.304 190.978 136.035 190.706C135.77 190.434 135.367 190.298 134.827 190.298C134.267 190.298 133.828 190.421 133.509 190.666C133.191 190.911 132.968 191.173 132.838 191.452L131.725 191.054C131.924 190.59 132.189 190.229 132.52 189.97C132.855 189.708 133.219 189.526 133.614 189.423C134.012 189.317 134.403 189.264 134.787 189.264C135.032 189.264 135.314 189.294 135.632 189.354C135.954 189.41 136.264 189.528 136.562 189.707C136.864 189.886 137.114 190.156 137.313 190.517C137.512 190.878 137.611 191.362 137.611 191.969V197H136.438V195.966H136.378C136.299 196.132 136.166 196.309 135.98 196.498C135.795 196.687 135.548 196.848 135.24 196.98C134.931 197.113 134.555 197.179 134.111 197.179ZM134.29 196.125C134.754 196.125 135.145 196.034 135.463 195.852C135.785 195.669 136.027 195.434 136.189 195.146C136.355 194.857 136.438 194.554 136.438 194.236V193.162C136.388 193.222 136.279 193.276 136.11 193.326C135.944 193.372 135.752 193.414 135.533 193.45C135.318 193.483 135.107 193.513 134.902 193.54C134.699 193.563 134.535 193.583 134.409 193.599C134.104 193.639 133.819 193.704 133.554 193.793C133.292 193.879 133.08 194.01 132.918 194.186C132.759 194.358 132.679 194.594 132.679 194.892C132.679 195.3 132.83 195.608 133.132 195.817C133.437 196.022 133.823 196.125 134.29 196.125ZM139.753 197V189.364H140.886V190.517H140.966C141.105 190.139 141.357 189.833 141.721 189.597C142.086 189.362 142.497 189.244 142.954 189.244C143.04 189.244 143.148 189.246 143.277 189.249C143.407 189.253 143.504 189.258 143.571 189.264V190.457C143.531 190.447 143.44 190.433 143.297 190.413C143.158 190.389 143.011 190.378 142.855 190.378C142.484 190.378 142.152 190.456 141.861 190.612C141.572 190.764 141.343 190.976 141.174 191.248C141.009 191.516 140.926 191.823 140.926 192.168V197H139.753ZM146.055 194.216L146.035 192.764H146.274L149.615 189.364H151.067L147.507 192.963H147.408L146.055 194.216ZM144.962 197V186.818H146.135V197H144.962ZM149.814 197L146.831 193.222L147.666 192.406L151.305 197H149.814ZM154.526 192.545L154.605 190.358L152.756 191.531L152.278 190.696L154.227 189.682L152.278 188.668L152.756 187.832L154.605 189.006L154.526 186.818H155.48L155.401 189.006L157.25 187.832L157.727 188.668L155.778 189.682L157.727 190.696L157.25 191.531L155.401 190.358L155.48 192.545H154.526Z" fill="#404040"/>
<path d="M77.8857 149.335V151.028H72.647V149.335H77.8857ZM84.093 156.159C83.2749 156.159 82.5476 156.019 81.9112 155.739C81.2786 155.458 80.7786 155.068 80.4112 154.568C80.0438 154.068 79.8487 153.491 79.826 152.835H81.9624C81.9813 153.15 82.0855 153.424 82.2749 153.659C82.4643 153.89 82.7161 154.07 83.0305 154.199C83.3449 154.328 83.6972 154.392 84.0874 154.392C84.504 154.392 84.8733 154.32 85.1953 154.176C85.5173 154.028 85.7692 153.824 85.951 153.562C86.1328 153.301 86.2218 153 86.218 152.659C86.2218 152.307 86.1309 151.996 85.9453 151.727C85.7597 151.458 85.4908 151.248 85.1385 151.097C84.79 150.945 84.3696 150.869 83.8771 150.869H82.8487V149.244H83.8771C84.2824 149.244 84.6366 149.174 84.9396 149.034C85.2464 148.894 85.487 148.697 85.6612 148.443C85.8355 148.186 85.9207 147.888 85.9169 147.551C85.9207 147.222 85.8468 146.936 85.6953 146.693C85.5476 146.447 85.3374 146.256 85.0646 146.119C84.7957 145.983 84.4794 145.915 84.1158 145.915C83.7597 145.915 83.4302 145.979 83.1271 146.108C82.8241 146.237 82.5798 146.42 82.3942 146.659C82.2086 146.894 82.1101 147.174 82.0987 147.5H80.0703C80.0855 146.848 80.273 146.277 80.6328 145.784C80.9964 145.288 81.4813 144.902 82.0874 144.625C82.6934 144.345 83.3733 144.205 84.1271 144.205C84.9036 144.205 85.5779 144.35 86.1499 144.642C86.7256 144.93 87.1707 145.318 87.4851 145.807C87.7995 146.295 87.9567 146.835 87.9567 147.426C87.9605 148.081 87.7673 148.631 87.3771 149.074C86.9908 149.517 86.4832 149.807 85.8544 149.943V150.034C86.6726 150.148 87.2995 150.451 87.7351 150.943C88.1745 151.432 88.3923 152.04 88.3885 152.767C88.3885 153.419 88.2029 154.002 87.8317 154.517C87.4643 155.028 86.9567 155.43 86.3089 155.722C85.665 156.013 84.9264 156.159 84.093 156.159ZM94.6399 156.222C93.7043 156.222 92.9013 155.985 92.2308 155.511C91.5642 155.034 91.0509 154.347 90.6911 153.449C90.335 152.547 90.157 151.462 90.157 150.193C90.1607 148.924 90.3407 147.845 90.6967 146.955C91.0566 146.061 91.5698 145.379 92.2365 144.909C92.907 144.439 93.7081 144.205 94.6399 144.205C95.5717 144.205 96.3729 144.439 97.0433 144.909C97.7138 145.379 98.227 146.061 98.5831 146.955C98.9429 147.848 99.1229 148.928 99.1229 150.193C99.1229 151.466 98.9429 152.553 98.5831 153.455C98.227 154.352 97.7138 155.038 97.0433 155.511C96.3767 155.985 95.5755 156.222 94.6399 156.222ZM94.6399 154.443C95.3672 154.443 95.9411 154.085 96.3615 153.369C96.7857 152.65 96.9979 151.591 96.9979 150.193C96.9979 149.269 96.9013 148.492 96.7081 147.864C96.5149 147.235 96.2422 146.761 95.8899 146.443C95.5376 146.121 95.121 145.96 94.6399 145.96C93.9164 145.96 93.3445 146.32 92.924 147.04C92.5036 147.756 92.2914 148.807 92.2876 150.193C92.2839 151.121 92.3767 151.902 92.5661 152.534C92.7592 153.167 93.032 153.644 93.3842 153.966C93.7365 154.284 94.1551 154.443 94.6399 154.443ZM107.232 153.818V153.205C107.232 152.754 107.327 152.339 107.516 151.96C107.71 151.581 107.99 151.277 108.357 151.045C108.725 150.814 109.17 150.699 109.692 150.699C110.23 150.699 110.681 150.814 111.045 151.045C111.408 151.273 111.683 151.576 111.869 151.955C112.058 152.333 112.153 152.75 112.153 153.205V153.818C112.153 154.269 112.058 154.684 111.869 155.062C111.679 155.441 111.401 155.746 111.033 155.977C110.67 156.208 110.223 156.324 109.692 156.324C109.162 156.324 108.713 156.208 108.346 155.977C107.978 155.746 107.7 155.441 107.511 155.062C107.325 154.684 107.232 154.269 107.232 153.818ZM108.715 153.205V153.818C108.715 154.117 108.787 154.392 108.931 154.642C109.075 154.892 109.329 155.017 109.692 155.017C110.06 155.017 110.312 154.894 110.448 154.648C110.588 154.398 110.658 154.121 110.658 153.818V153.205C110.658 152.902 110.592 152.625 110.46 152.375C110.327 152.121 110.071 151.994 109.692 151.994C109.336 151.994 109.085 152.121 108.937 152.375C108.789 152.625 108.715 152.902 108.715 153.205ZM101.317 147.159V146.545C101.317 146.091 101.414 145.674 101.607 145.295C101.8 144.917 102.081 144.614 102.448 144.386C102.816 144.155 103.261 144.04 103.783 144.04C104.317 144.04 104.766 144.155 105.13 144.386C105.497 144.614 105.774 144.917 105.96 145.295C106.145 145.674 106.238 146.091 106.238 146.545V147.159C106.238 147.614 106.143 148.03 105.954 148.409C105.768 148.784 105.492 149.085 105.124 149.312C104.757 149.54 104.31 149.653 103.783 149.653C103.249 149.653 102.799 149.54 102.431 149.312C102.067 149.085 101.791 148.782 101.602 148.403C101.412 148.025 101.317 147.61 101.317 147.159ZM102.812 146.545V147.159C102.812 147.462 102.882 147.739 103.022 147.989C103.166 148.235 103.42 148.358 103.783 148.358C104.147 148.358 104.397 148.235 104.533 147.989C104.674 147.739 104.744 147.462 104.744 147.159V146.545C104.744 146.242 104.677 145.966 104.545 145.716C104.412 145.462 104.158 145.335 103.783 145.335C103.424 145.335 103.172 145.462 103.028 145.716C102.884 145.97 102.812 146.246 102.812 146.545ZM101.965 156L109.965 144.364H111.386L103.386 156H101.965ZM123.792 149.335V151.028H118.553V149.335H123.792ZM134.077 156.159C133.259 156.159 132.532 156.019 131.896 155.739C131.263 155.458 130.763 155.068 130.396 154.568C130.028 154.068 129.833 153.491 129.81 152.835H131.947C131.966 153.15 132.07 153.424 132.259 153.659C132.449 153.89 132.701 154.07 133.015 154.199C133.329 154.328 133.682 154.392 134.072 154.392C134.488 154.392 134.858 154.32 135.18 154.176C135.502 154.028 135.754 153.824 135.935 153.562C136.117 153.301 136.206 153 136.202 152.659C136.206 152.307 136.115 151.996 135.93 151.727C135.744 151.458 135.475 151.248 135.123 151.097C134.774 150.945 134.354 150.869 133.862 150.869H132.833V149.244H133.862C134.267 149.244 134.621 149.174 134.924 149.034C135.231 148.894 135.471 148.697 135.646 148.443C135.82 148.186 135.905 147.888 135.901 147.551C135.905 147.222 135.831 146.936 135.68 146.693C135.532 146.447 135.322 146.256 135.049 146.119C134.78 145.983 134.464 145.915 134.1 145.915C133.744 145.915 133.415 145.979 133.112 146.108C132.808 146.237 132.564 146.42 132.379 146.659C132.193 146.894 132.094 147.174 132.083 147.5H130.055C130.07 146.848 130.257 146.277 130.617 145.784C130.981 145.288 131.466 144.902 132.072 144.625C132.678 144.345 133.358 144.205 134.112 144.205C134.888 144.205 135.562 144.35 136.134 144.642C136.71 144.93 137.155 145.318 137.469 145.807C137.784 146.295 137.941 146.835 137.941 147.426C137.945 148.081 137.752 148.631 137.362 149.074C136.975 149.517 136.468 149.807 135.839 149.943V150.034C136.657 150.148 137.284 150.451 137.719 150.943C138.159 151.432 138.377 152.04 138.373 152.767C138.373 153.419 138.187 154.002 137.816 154.517C137.449 155.028 136.941 155.43 136.293 155.722C135.649 156.013 134.911 156.159 134.077 156.159ZM144.624 156.222C143.689 156.222 142.886 155.985 142.215 155.511C141.549 155.034 141.035 154.347 140.675 153.449C140.319 152.547 140.141 151.462 140.141 150.193C140.145 148.924 140.325 147.845 140.681 146.955C141.041 146.061 141.554 145.379 142.221 144.909C142.891 144.439 143.692 144.205 144.624 144.205C145.556 144.205 146.357 144.439 147.028 144.909C147.698 145.379 148.211 146.061 148.567 146.955C148.927 147.848 149.107 148.928 149.107 150.193C149.107 151.466 148.927 152.553 148.567 153.455C148.211 154.352 147.698 155.038 147.028 155.511C146.361 155.985 145.56 156.222 144.624 156.222ZM144.624 154.443C145.352 154.443 145.925 154.085 146.346 153.369C146.77 152.65 146.982 151.591 146.982 150.193C146.982 149.269 146.886 148.492 146.692 147.864C146.499 147.235 146.227 146.761 145.874 146.443C145.522 146.121 145.105 145.96 144.624 145.96C143.901 145.96 143.329 146.32 142.908 147.04C142.488 147.756 142.276 148.807 142.272 150.193C142.268 151.121 142.361 151.902 142.55 152.534C142.744 153.167 143.016 153.644 143.369 153.966C143.721 154.284 144.139 154.443 144.624 154.443ZM157.217 153.818V153.205C157.217 152.754 157.311 152.339 157.501 151.96C157.694 151.581 157.974 151.277 158.342 151.045C158.709 150.814 159.154 150.699 159.677 150.699C160.215 150.699 160.665 150.814 161.029 151.045C161.393 151.273 161.667 151.576 161.853 151.955C162.042 152.333 162.137 152.75 162.137 153.205V153.818C162.137 154.269 162.042 154.684 161.853 155.062C161.664 155.441 161.385 155.746 161.018 155.977C160.654 156.208 160.207 156.324 159.677 156.324C159.147 156.324 158.698 156.208 158.33 155.977C157.963 155.746 157.684 155.441 157.495 155.062C157.309 154.684 157.217 154.269 157.217 153.818ZM158.7 153.205V153.818C158.7 154.117 158.772 154.392 158.915 154.642C159.059 154.892 159.313 155.017 159.677 155.017C160.044 155.017 160.296 154.894 160.433 154.648C160.573 154.398 160.643 154.121 160.643 153.818V153.205C160.643 152.902 160.576 152.625 160.444 152.375C160.311 152.121 160.056 151.994 159.677 151.994C159.321 151.994 159.069 152.121 158.921 152.375C158.773 152.625 158.7 152.902 158.7 153.205ZM151.302 147.159V146.545C151.302 146.091 151.398 145.674 151.592 145.295C151.785 144.917 152.065 144.614 152.433 144.386C152.8 144.155 153.245 144.04 153.768 144.04C154.302 144.04 154.751 144.155 155.114 144.386C155.482 144.614 155.758 144.917 155.944 145.295C156.129 145.674 156.222 146.091 156.222 146.545V147.159C156.222 147.614 156.128 148.03 155.938 148.409C155.753 148.784 155.476 149.085 155.109 149.312C154.741 149.54 154.294 149.653 153.768 149.653C153.234 149.653 152.783 149.54 152.415 149.312C152.052 149.085 151.775 148.782 151.586 148.403C151.397 148.025 151.302 147.61 151.302 147.159ZM152.796 146.545V147.159C152.796 147.462 152.866 147.739 153.006 147.989C153.15 148.235 153.404 148.358 153.768 148.358C154.131 148.358 154.381 148.235 154.518 147.989C154.658 147.739 154.728 147.462 154.728 147.159V146.545C154.728 146.242 154.662 145.966 154.529 145.716C154.397 145.462 154.143 145.335 153.768 145.335C153.408 145.335 153.156 145.462 153.012 145.716C152.868 145.97 152.796 146.246 152.796 146.545ZM151.95 156L159.95 144.364H161.37L153.37 156H151.95Z" fill="#404040"/>
<mask id="path-3-inside-1_586_5766" fill="white">
<path d="M211.008 113.146C213.68 113.146 215.859 110.978 215.727 108.31C214.531 84.0404 204.363 61.009 187.1 43.7463C168.694 25.3403 143.73 15 117.701 15C91.6707 15 66.7069 25.3403 48.301 43.7463C31.0382 61.009 20.8702 84.0404 19.6738 108.31C19.5422 110.978 21.7208 113.146 24.3928 113.146V113.146C27.0649 113.146 29.2172 110.978 29.3631 108.31C30.5504 86.6084 39.6954 66.0362 55.1431 50.5884C71.7344 33.9971 94.237 24.6763 117.701 24.6763C141.164 24.6763 163.667 33.9972 180.258 50.5884C195.706 66.0362 204.851 86.6085 206.038 108.31C206.184 110.978 208.336 113.146 211.008 113.146V113.146Z"/>
</mask>
<path d="M211.008 113.146C213.68 113.146 215.859 110.978 215.727 108.31C214.531 84.0404 204.363 61.009 187.1 43.7463C168.694 25.3403 143.73 15 117.701 15C91.6707 15 66.7069 25.3403 48.301 43.7463C31.0382 61.009 20.8702 84.0404 19.6738 108.31C19.5422 110.978 21.7208 113.146 24.3928 113.146V113.146C27.0649 113.146 29.2172 110.978 29.3631 108.31C30.5504 86.6084 39.6954 66.0362 55.1431 50.5884C71.7344 33.9971 94.237 24.6763 117.701 24.6763C141.164 24.6763 163.667 33.9972 180.258 50.5884C195.706 66.0362 204.851 86.6085 206.038 108.31C206.184 110.978 208.336 113.146 211.008 113.146V113.146Z" stroke="white" stroke-width="16.5387" stroke-linejoin="round" mask="url(#path-3-inside-1_586_5766)"/>
<mask id="path-4-inside-2_586_5766" fill="white">
<path d="M65.6666 35.5023C65.0509 34.5588 63.7805 34.3007 62.8604 34.9508C50.3597 43.784 40.1079 55.5207 32.9563 69.1875C32.4488 70.1573 32.8405 71.3485 33.8136 71.8497V71.8497C34.8056 72.3605 36.022 71.9601 36.5407 70.9722C43.3882 57.933 53.1829 46.733 65.1178 38.2952C66.0177 37.659 66.269 36.4253 65.6666 35.5023V35.5023Z"/>
</mask>
<path d="M65.6666 35.5023C65.0509 34.5588 63.7805 34.3007 62.8604 34.9508C50.3597 43.784 40.1079 55.5207 32.9563 69.1875C32.4488 70.1573 32.8405 71.3485 33.8136 71.8497V71.8497C34.8056 72.3605 36.022 71.9601 36.5407 70.9722C43.3882 57.933 53.1829 46.733 65.1178 38.2952C66.0177 37.659 66.269 36.4253 65.6666 35.5023V35.5023Z" stroke="#FFCE64" stroke-width="18.3764" stroke-linejoin="round" mask="url(#path-4-inside-2_586_5766)"/>
<mask id="path-5-inside-3_586_5766" fill="white">
<path d="M211.316 114.957C212.417 114.957 213.312 114.064 213.29 112.962C213.034 100.259 210.338 87.729 205.352 76.0788C204.913 75.054 203.71 74.6108 202.701 75.0834V75.0834C201.709 75.5474 201.277 76.7215 201.708 77.728C206.467 88.8591 209.046 100.827 209.301 112.962C209.324 114.064 210.214 114.957 211.316 114.957V114.957Z"/>
</mask>
<path d="M211.316 114.957C212.417 114.957 213.312 114.064 213.29 112.962C213.034 100.259 210.338 87.729 205.352 76.0788C204.913 75.054 203.71 74.6108 202.701 75.0834V75.0834C201.709 75.5474 201.277 76.7215 201.708 77.728C206.467 88.8591 209.046 100.827 209.301 112.962C209.324 114.064 210.214 114.957 211.316 114.957V114.957Z" stroke="#FF9C00" stroke-width="18.3764" stroke-linejoin="round" mask="url(#path-5-inside-3_586_5766)"/>
<mask id="path-6-inside-4_586_5766" fill="white">
<path d="M32.8644 73.9373C31.8609 73.451 30.6516 73.8784 30.1995 74.8977C24.8899 86.8683 22.0148 99.8076 21.7471 112.937C21.7247 114.038 22.6194 114.932 23.7209 114.932V114.932C24.8223 114.932 25.7132 114.039 25.7367 112.938C26.0033 100.395 28.7534 88.0337 33.8224 76.5949C34.2658 75.5942 33.8494 74.4146 32.8644 73.9373V73.9373Z"/>
</mask>
<path d="M32.8644 73.9373C31.8609 73.451 30.6516 73.8784 30.1995 74.8977C24.8899 86.8683 22.0148 99.8076 21.7471 112.937C21.7247 114.038 22.6194 114.932 23.7209 114.932V114.932C24.8223 114.932 25.7132 114.039 25.7367 112.938C26.0033 100.395 28.7534 88.0337 33.8224 76.5949C34.2658 75.5942 33.8494 74.4146 32.8644 73.9373V73.9373Z" stroke="#FF9C00" stroke-width="18.3764" stroke-linejoin="round" mask="url(#path-6-inside-4_586_5766)"/>
<mask id="path-7-inside-5_586_5766" fill="white">
<path d="M201.291 71.9857C202.265 71.4861 202.658 70.2955 202.152 69.3249C194.538 54.7185 183.394 42.3226 169.771 33.3053C168.831 32.6834 167.569 32.9799 166.982 33.9416V33.9416C166.407 34.883 166.696 36.1096 167.615 36.7186C180.625 45.3343 191.274 57.1655 198.565 71.1039C199.082 72.0926 200.298 72.4949 201.291 71.9857V71.9857Z"/>
</mask>
<path d="M201.291 71.9857C202.265 71.4861 202.658 70.2955 202.152 69.3249C194.538 54.7185 183.394 42.3226 169.771 33.3053C168.831 32.6834 167.569 32.9799 166.982 33.9416V33.9416C166.407 34.883 166.696 36.1096 167.615 36.7186C180.625 45.3343 191.274 57.1655 198.565 71.1039C199.082 72.0926 200.298 72.4949 201.291 71.9857V71.9857Z" stroke="#FFCE64" stroke-width="18.3764" stroke-linejoin="round" mask="url(#path-7-inside-5_586_5766)"/>
<mask id="path-8-inside-6_586_5766" fill="white">
<path d="M163.238 32.0892C163.878 30.9282 163.469 29.4649 162.301 28.8368C148.105 21.2015 132.237 17.3122 116.155 17.545C100.071 17.7779 84.3172 22.1257 70.3403 30.1699C69.1919 30.8308 68.8248 32.3039 69.4973 33.4455V33.4455C70.1842 34.6114 71.6911 34.9863 72.8653 34.3138C86.1021 26.7329 101.007 22.6359 116.223 22.4156C131.438 22.1953 146.452 25.8589 159.895 33.0532C161.088 33.6918 162.584 33.2741 163.238 32.0892V32.0892Z"/>
</mask>
<path d="M163.238 32.0892C163.878 30.9282 163.469 29.4649 162.301 28.8368C148.105 21.2015 132.237 17.3122 116.155 17.545C100.071 17.7779 84.3172 22.1257 70.3403 30.1699C69.1919 30.8308 68.8248 32.3039 69.4973 33.4455V33.4455C70.1842 34.6114 71.6911 34.9863 72.8653 34.3138C86.1021 26.7329 101.007 22.6359 116.223 22.4156C131.438 22.1953 146.452 25.8589 159.895 33.0532C161.088 33.6918 162.584 33.2741 163.238 32.0892V32.0892Z" stroke="#0ACF83" stroke-width="18.3764" stroke-linejoin="round" mask="url(#path-8-inside-6_586_5766)"/>
<circle cx="121.708" cy="19.7081" r="4.7081" fill="#3CC57C"/>
<circle cx="121.708" cy="19.7079" r="2.17297" fill="white"/>
<path d="M102.072 12.1662C101.37 12.1662 100.768 11.9886 100.265 11.6335C99.7649 11.2756 99.38 10.7599 99.1101 10.0866C98.843 9.41051 98.7095 8.59659 98.7095 7.64489C98.7124 6.69318 98.8473 5.88352 99.1143 5.21591C99.3842 4.54545 99.7692 4.03409 100.269 3.68182C100.772 3.32955 101.373 3.15341 102.072 3.15341C102.771 3.15341 103.371 3.32955 103.874 3.68182C104.377 4.03409 104.762 4.54545 105.029 5.21591C105.299 5.88636 105.434 6.69602 105.434 7.64489C105.434 8.59943 105.299 9.41477 105.029 10.0909C104.762 10.7642 104.377 11.2784 103.874 11.6335C103.374 11.9886 102.773 12.1662 102.072 12.1662ZM102.072 10.8324C102.617 10.8324 103.048 10.5639 103.363 10.027C103.681 9.48722 103.84 8.69318 103.84 7.64489C103.84 6.9517 103.768 6.36932 103.623 5.89773C103.478 5.42614 103.273 5.07102 103.009 4.83239C102.745 4.59091 102.433 4.47017 102.072 4.47017C101.529 4.47017 101.1 4.74006 100.785 5.27983C100.469 5.81676 100.31 6.60511 100.308 7.64489C100.305 8.34091 100.374 8.92614 100.516 9.40057C100.661 9.875 100.866 10.233 101.13 10.4744C101.394 10.7131 101.708 10.8324 102.072 10.8324ZM107.477 12.0938C107.219 12.0938 106.997 12.0028 106.812 11.821C106.628 11.6392 106.537 11.4176 106.54 11.1562C106.537 10.9006 106.628 10.6818 106.812 10.5C106.997 10.3182 107.219 10.2273 107.477 10.2273C107.727 10.2273 107.945 10.3182 108.129 10.5C108.317 10.6818 108.412 10.9006 108.415 11.1562C108.412 11.3295 108.366 11.4872 108.278 11.6293C108.193 11.7713 108.08 11.8849 107.938 11.9702C107.798 12.0526 107.645 12.0938 107.477 12.0938ZM112.876 12.1662C112.175 12.1662 111.572 11.9886 111.07 11.6335C110.57 11.2756 110.185 10.7599 109.915 10.0866C109.648 9.41051 109.514 8.59659 109.514 7.64489C109.517 6.69318 109.652 5.88352 109.919 5.21591C110.189 4.54545 110.574 4.03409 111.074 3.68182C111.577 3.32955 112.178 3.15341 112.876 3.15341C113.575 3.15341 114.176 3.32955 114.679 3.68182C115.182 4.03409 115.567 4.54545 115.834 5.21591C116.104 5.88636 116.239 6.69602 116.239 7.64489C116.239 8.59943 116.104 9.41477 115.834 10.0909C115.567 10.7642 115.182 11.2784 114.679 11.6335C114.179 11.9886 113.578 12.1662 112.876 12.1662ZM112.876 10.8324C113.422 10.8324 113.852 10.5639 114.168 10.027C114.486 9.48722 114.645 8.69318 114.645 7.64489C114.645 6.9517 114.572 6.36932 114.428 5.89773C114.283 5.42614 114.078 5.07102 113.814 4.83239C113.55 4.59091 113.237 4.47017 112.876 4.47017C112.334 4.47017 111.905 4.74006 111.589 5.27983C111.274 5.81676 111.115 6.60511 111.112 7.64489C111.109 8.34091 111.179 8.92614 111.321 9.40057C111.466 9.875 111.67 10.233 111.935 10.4744C112.199 10.7131 112.513 10.8324 112.876 10.8324ZM120.88 12.1662C120.179 12.1662 119.576 11.9886 119.074 11.6335C118.574 11.2756 118.189 10.7599 117.919 10.0866C117.652 9.41051 117.518 8.59659 117.518 7.64489C117.521 6.69318 117.656 5.88352 117.923 5.21591C118.193 4.54545 118.578 4.03409 119.078 3.68182C119.581 3.32955 120.181 3.15341 120.88 3.15341C121.579 3.15341 122.18 3.32955 122.683 3.68182C123.186 4.03409 123.571 4.54545 123.838 5.21591C124.108 5.88636 124.243 6.69602 124.243 7.64489C124.243 8.59943 124.108 9.41477 123.838 10.0909C123.571 10.7642 123.186 11.2784 122.683 11.6335C122.183 11.9886 121.582 12.1662 120.88 12.1662ZM120.88 10.8324C121.426 10.8324 121.856 10.5639 122.172 10.027C122.49 9.48722 122.649 8.69318 122.649 7.64489C122.649 6.9517 122.576 6.36932 122.431 5.89773C122.287 5.42614 122.082 5.07102 121.818 4.83239C121.554 4.59091 121.241 4.47017 120.88 4.47017C120.338 4.47017 119.909 4.74006 119.593 5.27983C119.278 5.81676 119.119 6.60511 119.116 7.64489C119.113 8.34091 119.183 8.92614 119.325 9.40057C119.47 9.875 119.674 10.233 119.939 10.4744C120.203 10.7131 120.517 10.8324 120.88 10.8324ZM125.501 10.3807V9.12358L129.204 3.27273H130.252V5.0625H129.613L127.12 9.01278V9.08097H132.289V10.3807H125.501ZM129.664 12V9.99716L129.681 9.43466V3.27273H131.173V12H129.664ZM138.317 10.3636V9.90341C138.317 9.56534 138.388 9.25426 138.53 8.97017C138.675 8.68608 138.885 8.45739 139.161 8.28409C139.436 8.1108 139.77 8.02415 140.162 8.02415C140.565 8.02415 140.903 8.1108 141.176 8.28409C141.449 8.45455 141.655 8.68182 141.794 8.96591C141.936 9.25 142.007 9.5625 142.007 9.90341V10.3636C142.007 10.7017 141.936 11.0128 141.794 11.2969C141.652 11.581 141.443 11.8097 141.168 11.983C140.895 12.1563 140.56 12.2429 140.162 12.2429C139.764 12.2429 139.428 12.1563 139.152 11.983C138.876 11.8097 138.668 11.581 138.526 11.2969C138.386 11.0128 138.317 10.7017 138.317 10.3636ZM139.429 9.90341V10.3636C139.429 10.5881 139.483 10.794 139.591 10.9815C139.699 11.169 139.889 11.2628 140.162 11.2628C140.438 11.2628 140.626 11.1705 140.729 10.9858C140.834 10.7983 140.886 10.5909 140.886 10.3636V9.90341C140.886 9.67614 140.837 9.46875 140.737 9.28125C140.638 9.09091 140.446 8.99574 140.162 8.99574C139.895 8.99574 139.706 9.09091 139.595 9.28125C139.484 9.46875 139.429 9.67614 139.429 9.90341ZM133.881 5.36932V4.90909C133.881 4.56818 133.953 4.25568 134.098 3.97159C134.243 3.6875 134.453 3.46023 134.729 3.28977C135.004 3.11648 135.338 3.02983 135.73 3.02983C136.131 3.02983 136.467 3.11648 136.74 3.28977C137.016 3.46023 137.223 3.6875 137.362 3.97159C137.501 4.25568 137.571 4.56818 137.571 4.90909V5.36932C137.571 5.71023 137.5 6.02273 137.358 6.30682C137.219 6.58807 137.011 6.81392 136.736 6.98438C136.46 7.15483 136.125 7.24006 135.73 7.24006C135.33 7.24006 134.991 7.15483 134.716 6.98438C134.443 6.81392 134.236 6.58665 134.094 6.30256C133.952 6.01847 133.881 5.70739 133.881 5.36932ZM135.001 4.90909V5.36932C135.001 5.59659 135.054 5.80398 135.159 5.99148C135.267 6.17614 135.457 6.26847 135.73 6.26847C136.003 6.26847 136.19 6.17614 136.293 5.99148C136.398 5.80398 136.45 5.59659 136.45 5.36932V4.90909C136.45 4.68182 136.401 4.47443 136.301 4.28693C136.202 4.09659 136.011 4.00142 135.73 4.00142C135.46 4.00142 135.271 4.09659 135.163 4.28693C135.055 4.47727 135.001 4.68466 135.001 4.90909ZM134.366 12L140.366 3.27273H141.432L135.432 12H134.366Z" fill="#31B73F"/>
<path d="M204.634 120.818V131H203.401V122.111H203.341L200.855 123.761V122.509L203.401 120.818H204.634ZM210.883 131.139C210.134 131.139 209.496 130.935 208.969 130.528C208.442 130.117 208.039 129.522 207.761 128.743C207.482 127.961 207.343 127.016 207.343 125.909C207.343 124.809 207.482 123.869 207.761 123.09C208.042 122.308 208.447 121.712 208.974 121.301C209.504 120.886 210.14 120.679 210.883 120.679C211.625 120.679 212.26 120.886 212.787 121.301C213.317 121.712 213.722 122.308 214 123.09C214.282 123.869 214.423 124.809 214.423 125.909C214.423 127.016 214.283 127.961 214.005 128.743C213.727 129.522 213.324 130.117 212.797 130.528C212.27 130.935 211.632 131.139 210.883 131.139ZM210.883 130.046C211.625 130.046 212.202 129.688 212.613 128.972C213.024 128.256 213.229 127.235 213.229 125.909C213.229 125.028 213.135 124.277 212.946 123.657C212.76 123.037 212.492 122.565 212.141 122.24C211.793 121.915 211.373 121.753 210.883 121.753C210.147 121.753 209.572 122.116 209.158 122.842C208.743 123.564 208.536 124.587 208.536 125.909C208.536 126.791 208.629 127.54 208.815 128.156C209 128.773 209.267 129.242 209.615 129.563C209.966 129.885 210.389 130.046 210.883 130.046ZM219.633 131.139C218.884 131.139 218.246 130.935 217.719 130.528C217.192 130.117 216.789 129.522 216.511 128.743C216.232 127.961 216.093 127.016 216.093 125.909C216.093 124.809 216.232 123.869 216.511 123.09C216.792 122.308 217.197 121.712 217.724 121.301C218.254 120.886 218.89 120.679 219.633 120.679C220.375 120.679 221.01 120.886 221.537 121.301C222.067 121.712 222.472 122.308 222.75 123.09C223.032 123.869 223.173 124.809 223.173 125.909C223.173 127.016 223.033 127.961 222.755 128.743C222.477 129.522 222.074 130.117 221.547 130.528C221.02 130.935 220.382 131.139 219.633 131.139ZM219.633 130.046C220.375 130.046 220.952 129.688 221.363 128.972C221.774 128.256 221.979 127.235 221.979 125.909C221.979 125.028 221.885 124.277 221.696 123.657C221.51 123.037 221.242 122.565 220.891 122.24C220.543 121.915 220.123 121.753 219.633 121.753C218.897 121.753 218.322 122.116 217.908 122.842C217.493 123.564 217.286 124.587 217.286 125.909C217.286 126.791 217.379 127.54 217.565 128.156C217.75 128.773 218.017 129.242 218.365 129.563C218.716 129.885 219.139 130.046 219.633 130.046Z" fill="#FF9C00"/>
<path d="M11.0016 125.362V126.456H6.54705V125.362H11.0016ZM16.6257 120.818V131H15.3928V122.111H15.3331L12.8473 123.761V122.509L15.3928 120.818H16.6257ZM22.875 131.139C22.1259 131.139 21.4879 130.935 20.9609 130.528C20.4339 130.117 20.0313 129.522 19.7528 128.743C19.4744 127.961 19.3352 127.016 19.3352 125.909C19.3352 124.809 19.4744 123.869 19.7528 123.09C20.0346 122.308 20.4389 121.712 20.9659 121.301C21.4962 120.886 22.1326 120.679 22.875 120.679C23.6174 120.679 24.2521 120.886 24.7791 121.301C25.3094 121.712 25.7138 122.308 25.9922 123.09C26.2739 123.869 26.4148 124.809 26.4148 125.909C26.4148 127.016 26.2756 127.961 25.9972 128.743C25.7188 129.522 25.3161 130.117 24.7891 130.528C24.2621 130.935 23.6241 131.139 22.875 131.139ZM22.875 130.046C23.6174 130.046 24.1941 129.688 24.6051 128.972C25.0161 128.256 25.2216 127.235 25.2216 125.909C25.2216 125.028 25.1271 124.277 24.9382 123.657C24.7526 123.037 24.4841 122.565 24.1328 122.24C23.7848 121.915 23.3655 121.753 22.875 121.753C22.1392 121.753 21.5642 122.116 21.1499 122.842C20.7356 123.564 20.5284 124.587 20.5284 125.909C20.5284 126.791 20.6212 127.54 20.8068 128.156C20.9924 128.773 21.2592 129.242 21.6072 129.563C21.9586 129.885 22.3812 130.046 22.875 130.046ZM31.625 131.139C30.8759 131.139 30.2379 130.935 29.7109 130.528C29.1839 130.117 28.7813 129.522 28.5028 128.743C28.2244 127.961 28.0852 127.016 28.0852 125.909C28.0852 124.809 28.2244 123.869 28.5028 123.09C28.7846 122.308 29.1889 121.712 29.7159 121.301C30.2462 120.886 30.8826 120.679 31.625 120.679C32.3674 120.679 33.0021 120.886 33.5291 121.301C34.0594 121.712 34.4638 122.308 34.7422 123.09C35.0239 123.869 35.1648 124.809 35.1648 125.909C35.1648 127.016 35.0256 127.961 34.7472 128.743C34.4688 129.522 34.0661 130.117 33.5391 130.528C33.0121 130.935 32.3741 131.139 31.625 131.139ZM31.625 130.046C32.3674 130.046 32.9441 129.688 33.3551 128.972C33.7661 128.256 33.9716 127.235 33.9716 125.909C33.9716 125.028 33.8771 124.277 33.6882 123.657C33.5026 123.037 33.2341 122.565 32.8828 122.24C32.5348 121.915 32.1155 121.753 31.625 121.753C30.8892 121.753 30.3142 122.116 29.8999 122.842C29.4856 123.564 29.2784 124.587 29.2784 125.909C29.2784 126.791 29.3712 127.54 29.5568 128.156C29.7424 128.773 30.0092 129.242 30.3572 129.563C30.7086 129.885 31.1312 130.046 31.625 130.046Z" fill="#FF9C00"/>
</svg>
