<svg width="239" height="216" viewBox="0 0 239 216" fill="none" xmlns="http://www.w3.org/2000/svg">
<path d="M27.4488 182V171.818H28.6817V180.906H33.4147V182H27.4488ZM38.3664 182.159C37.6306 182.159 36.9959 181.997 36.4623 181.672C35.932 181.344 35.5226 180.886 35.2343 180.3C34.9492 179.71 34.8067 179.024 34.8067 178.241C34.8067 177.459 34.9492 176.77 35.2343 176.173C35.5226 175.573 35.9237 175.106 36.4374 174.771C36.9545 174.433 37.5577 174.264 38.2471 174.264C38.6448 174.264 39.0376 174.33 39.4253 174.463C39.8131 174.596 40.1661 174.811 40.4843 175.109C40.8025 175.404 41.056 175.795 41.2449 176.283C41.4339 176.77 41.5283 177.37 41.5283 178.082V178.58H35.642V177.565H40.3351C40.3351 177.134 40.249 176.75 40.0766 176.412C39.9076 176.074 39.6656 175.807 39.3508 175.612C39.0392 175.416 38.6713 175.318 38.2471 175.318C37.7797 175.318 37.3754 175.434 37.034 175.666C36.6959 175.895 36.4358 176.193 36.2535 176.561C36.0712 176.929 35.98 177.323 35.98 177.744V178.42C35.98 178.997 36.0795 179.486 36.2783 179.887C36.4805 180.285 36.7606 180.588 37.1185 180.797C37.4765 181.002 37.8924 181.105 38.3664 181.105C38.6746 181.105 38.953 181.062 39.2016 180.976C39.4535 180.886 39.6706 180.754 39.8529 180.578C40.0352 180.399 40.176 180.177 40.2755 179.912L41.409 180.23C41.2897 180.615 41.0892 180.953 40.8074 181.244C40.5257 181.533 40.1777 181.758 39.7634 181.92C39.3491 182.08 38.8834 182.159 38.3664 182.159ZM46.3955 185.023C45.8287 185.023 45.3415 184.95 44.9339 184.804C44.5262 184.661 44.1865 184.473 43.9147 184.237C43.6462 184.005 43.4324 183.757 43.2733 183.491L44.208 182.835C44.3141 182.974 44.4483 183.134 44.6107 183.312C44.7731 183.495 44.9952 183.652 45.2769 183.785C45.5619 183.921 45.9348 183.989 46.3955 183.989C47.012 183.989 47.5207 183.839 47.9218 183.541C48.3228 183.243 48.5233 182.776 48.5233 182.139V180.588H48.4239C48.3377 180.727 48.2151 180.9 48.056 181.105C47.9002 181.307 47.6749 181.488 47.3799 181.647C47.0882 181.803 46.6938 181.881 46.1966 181.881C45.5802 181.881 45.0267 181.735 44.5361 181.443C44.0489 181.152 43.6628 180.727 43.3778 180.17C43.096 179.614 42.9552 178.937 42.9552 178.142C42.9552 177.36 43.0927 176.679 43.3678 176.099C43.6429 175.515 44.0257 175.065 44.5162 174.746C45.0068 174.425 45.5735 174.264 46.2165 174.264C46.7137 174.264 47.1081 174.347 47.3998 174.513C47.6948 174.675 47.9201 174.861 48.0759 175.07C48.235 175.275 48.3576 175.444 48.4438 175.577H48.5631V174.364H49.6966V182.219C49.6966 182.875 49.5475 183.409 49.2492 183.82C48.9542 184.234 48.5565 184.537 48.056 184.729C47.5589 184.925 47.0054 185.023 46.3955 185.023ZM46.3557 180.827C46.8264 180.827 47.2241 180.719 47.5489 180.504C47.8737 180.288 48.1206 179.978 48.2897 179.574C48.4587 179.17 48.5432 178.686 48.5432 178.122C48.5432 177.572 48.4604 177.086 48.2947 176.665C48.1289 176.245 47.8837 175.915 47.5589 175.676C47.234 175.437 46.833 175.318 46.3557 175.318C45.8586 175.318 45.4443 175.444 45.1128 175.696C44.7847 175.948 44.5378 176.286 44.3721 176.71C44.2097 177.134 44.1285 177.605 44.1285 178.122C44.1285 178.652 44.2113 179.121 44.377 179.529C44.5461 179.933 44.7947 180.252 45.1228 180.484C45.4542 180.712 45.8652 180.827 46.3557 180.827ZM54.0915 182.179C53.6076 182.179 53.1685 182.088 52.7741 181.906C52.3796 181.72 52.0664 181.453 51.8344 181.105C51.6024 180.754 51.4864 180.33 51.4864 179.832C51.4864 179.395 51.5726 179.04 51.7449 178.768C51.9173 178.493 52.1476 178.278 52.436 178.122C52.7243 177.966 53.0425 177.85 53.3905 177.774C53.7419 177.695 54.0948 177.632 54.4495 177.585C54.9135 177.526 55.2897 177.481 55.578 177.451C55.8697 177.418 56.0818 177.363 56.2144 177.287C56.3503 177.211 56.4182 177.078 56.4182 176.889V176.849C56.4182 176.359 56.284 175.978 56.0155 175.706C55.7504 175.434 55.3477 175.298 54.8074 175.298C54.2473 175.298 53.8082 175.421 53.49 175.666C53.1718 175.911 52.9481 176.173 52.8188 176.452L51.7052 176.054C51.904 175.59 52.1692 175.229 52.5006 174.97C52.8354 174.708 53.2 174.526 53.5944 174.423C53.9921 174.317 54.3832 174.264 54.7677 174.264C55.0129 174.264 55.2947 174.294 55.6128 174.354C55.9343 174.41 56.2442 174.528 56.5425 174.707C56.8441 174.886 57.0944 175.156 57.2932 175.517C57.4921 175.878 57.5915 176.362 57.5915 176.969V182H56.4182V180.966H56.3586C56.279 181.132 56.1465 181.309 55.9608 181.498C55.7752 181.687 55.5283 181.848 55.2201 181.98C54.9118 182.113 54.5357 182.179 54.0915 182.179ZM54.2705 181.125C54.7345 181.125 55.1256 181.034 55.4438 180.852C55.7653 180.669 56.0073 180.434 56.1697 180.146C56.3354 179.857 56.4182 179.554 56.4182 179.236V178.162C56.3685 178.222 56.2591 178.276 56.0901 178.326C55.9244 178.372 55.7322 178.414 55.5134 178.45C55.298 178.483 55.0875 178.513 54.882 178.54C54.6798 178.563 54.5158 178.583 54.3898 178.599C54.0849 178.639 53.7999 178.704 53.5347 178.793C53.2729 178.879 53.0608 179.01 52.8983 179.186C52.7393 179.358 52.6597 179.594 52.6597 179.892C52.6597 180.3 52.8105 180.608 53.1121 180.817C53.4171 181.022 53.8032 181.125 54.2705 181.125ZM60.9063 171.818V182H59.733V171.818H60.9063ZM72.4019 176.074L71.3479 176.372C71.2816 176.196 71.1839 176.026 71.0546 175.86C70.9287 175.691 70.7563 175.552 70.5376 175.442C70.3188 175.333 70.0387 175.278 69.6974 175.278C69.23 175.278 68.8406 175.386 68.529 175.602C68.2208 175.814 68.0667 176.084 68.0667 176.412C68.0667 176.704 68.1727 176.934 68.3849 177.103C68.597 177.272 68.9284 177.413 69.3792 177.526L70.5127 177.804C71.1955 177.97 71.7042 178.223 72.039 178.565C72.3737 178.903 72.5411 179.339 72.5411 179.872C72.5411 180.31 72.4152 180.701 72.1633 181.045C71.9147 181.39 71.5667 181.662 71.1192 181.861C70.6718 182.06 70.1514 182.159 69.5581 182.159C68.7793 182.159 68.1346 181.99 67.6242 181.652C67.1138 181.314 66.7906 180.82 66.6547 180.17L67.7684 179.892C67.8744 180.303 68.075 180.611 68.3699 180.817C68.6682 181.022 69.0577 181.125 69.5383 181.125C70.0851 181.125 70.5193 181.009 70.8408 180.777C71.1656 180.542 71.328 180.26 71.328 179.932C71.328 179.667 71.2352 179.445 71.0496 179.266C70.864 179.083 70.579 178.947 70.1945 178.858L68.9218 178.56C68.2224 178.394 67.7087 178.137 67.3806 177.789C67.0558 177.438 66.8934 176.999 66.8934 176.472C66.8934 176.041 67.0144 175.66 67.2563 175.328C67.5016 174.997 67.8347 174.737 68.2556 174.548C68.6798 174.359 69.1604 174.264 69.6974 174.264C70.453 174.264 71.0463 174.43 71.4772 174.761C71.9114 175.093 72.2196 175.53 72.4019 176.074ZM74.3073 184.864V174.364H75.4408V175.577H75.58C75.6662 175.444 75.7855 175.275 75.9379 175.07C76.0937 174.861 76.3158 174.675 76.6041 174.513C76.8958 174.347 77.2902 174.264 77.7874 174.264C78.4304 174.264 78.9971 174.425 79.4877 174.746C79.9782 175.068 80.361 175.524 80.6361 176.114C80.9112 176.704 81.0487 177.4 81.0487 178.202C81.0487 179.01 80.9112 179.711 80.6361 180.305C80.361 180.895 79.9798 181.352 79.4926 181.677C79.0054 181.998 78.4436 182.159 77.8073 182.159C77.3167 182.159 76.924 182.078 76.629 181.915C76.334 181.75 76.107 181.562 75.9479 181.354C75.7888 181.142 75.6662 180.966 75.58 180.827H75.4806V184.864H74.3073ZM75.4607 178.182C75.4607 178.759 75.5452 179.267 75.7142 179.708C75.8833 180.146 76.1302 180.489 76.455 180.737C76.7798 180.982 77.1775 181.105 77.6482 181.105C78.1387 181.105 78.548 180.976 78.8762 180.717C79.2076 180.455 79.4562 180.104 79.6219 179.663C79.7909 179.219 79.8754 178.725 79.8754 178.182C79.8754 177.645 79.7926 177.161 79.6269 176.73C79.4645 176.296 79.2175 175.953 78.8861 175.701C78.558 175.446 78.1453 175.318 77.6482 175.318C77.1709 175.318 76.7699 175.439 76.445 175.681C76.1202 175.92 75.875 176.254 75.7093 176.685C75.5435 177.113 75.4607 177.612 75.4607 178.182ZM86.0402 182.159C85.3044 182.159 84.6697 181.997 84.1361 181.672C83.6058 181.344 83.1965 180.886 82.9081 180.3C82.6231 179.71 82.4806 179.024 82.4806 178.241C82.4806 177.459 82.6231 176.77 82.9081 176.173C83.1965 175.573 83.5975 175.106 84.1112 174.771C84.6283 174.433 85.2315 174.264 85.9209 174.264C86.3186 174.264 86.7114 174.33 87.0992 174.463C87.4869 174.596 87.8399 174.811 88.1581 175.109C88.4763 175.404 88.7298 175.795 88.9188 176.283C89.1077 176.77 89.2021 177.37 89.2021 178.082V178.58H83.3158V177.565H88.009C88.009 177.134 87.9228 176.75 87.7504 176.412C87.5814 176.074 87.3395 175.807 87.0246 175.612C86.713 175.416 86.3451 175.318 85.9209 175.318C85.4536 175.318 85.0492 175.434 84.7078 175.666C84.3698 175.895 84.1096 176.193 83.9273 176.561C83.745 176.929 83.6539 177.323 83.6539 177.744V178.42C83.6539 178.997 83.7533 179.486 83.9521 179.887C84.1543 180.285 84.4344 180.588 84.7923 180.797C85.1503 181.002 85.5663 181.105 86.0402 181.105C86.3485 181.105 86.6269 181.062 86.8754 180.976C87.1273 180.886 87.3444 180.754 87.5267 180.578C87.709 180.399 87.8499 180.177 87.9493 179.912L89.0828 180.23C88.9635 180.615 88.763 180.953 88.4813 181.244C88.1995 181.533 87.8515 181.758 87.4372 181.92C87.0229 182.08 86.5573 182.159 86.0402 182.159ZM92.1602 177.406V182H90.9869V174.364H92.1205V175.557H92.2199C92.3989 175.169 92.6707 174.857 93.0352 174.622C93.3998 174.384 93.8705 174.264 94.4472 174.264C94.9642 174.264 95.4166 174.37 95.8044 174.582C96.1922 174.791 96.4938 175.109 96.7093 175.537C96.9247 175.961 97.0324 176.498 97.0324 177.148V182H95.8591V177.227C95.8591 176.627 95.7033 176.16 95.3918 175.825C95.0802 175.487 94.6527 175.318 94.1091 175.318C93.7346 175.318 93.3998 175.399 93.1048 175.562C92.8132 175.724 92.5828 175.961 92.4138 176.273C92.2448 176.584 92.1602 176.962 92.1602 177.406ZM102.06 182.159C101.424 182.159 100.862 181.998 100.375 181.677C99.8873 181.352 99.5062 180.895 99.2311 180.305C98.956 179.711 98.8184 179.01 98.8184 178.202C98.8184 177.4 98.956 176.704 99.2311 176.114C99.5062 175.524 99.889 175.068 100.38 174.746C100.87 174.425 101.437 174.264 102.08 174.264C102.577 174.264 102.97 174.347 103.258 174.513C103.55 174.675 103.772 174.861 103.924 175.07C104.08 175.275 104.201 175.444 104.287 175.577H104.387V171.818H105.56V182H104.426V180.827H104.287C104.201 180.966 104.078 181.142 103.919 181.354C103.76 181.562 103.533 181.75 103.238 181.915C102.943 182.078 102.55 182.159 102.06 182.159ZM102.219 181.105C102.69 181.105 103.087 180.982 103.412 180.737C103.737 180.489 103.984 180.146 104.153 179.708C104.322 179.267 104.407 178.759 104.407 178.182C104.407 177.612 104.324 177.113 104.158 176.685C103.992 176.254 103.747 175.92 103.422 175.681C103.097 175.439 102.696 175.318 102.219 175.318C101.722 175.318 101.308 175.446 100.976 175.701C100.648 175.953 100.401 176.296 100.235 176.73C100.073 177.161 99.9917 177.645 99.9917 178.182C99.9917 178.725 100.075 179.219 100.24 179.663C100.409 180.104 100.658 180.455 100.986 180.717C101.318 180.976 101.728 181.105 102.219 181.105ZM107.872 182V174.364H109.045V182H107.872ZM108.468 173.091C108.24 173.091 108.042 173.013 107.877 172.857C107.714 172.701 107.633 172.514 107.633 172.295C107.633 172.077 107.714 171.889 107.877 171.734C108.042 171.578 108.24 171.5 108.468 171.5C108.697 171.5 108.893 171.578 109.055 171.734C109.221 171.889 109.304 172.077 109.304 172.295C109.304 172.514 109.221 172.701 109.055 172.857C108.893 173.013 108.697 173.091 108.468 173.091ZM112.367 177.406V182H111.194V174.364H112.328V175.557H112.427C112.606 175.169 112.878 174.857 113.242 174.622C113.607 174.384 114.078 174.264 114.654 174.264C115.171 174.264 115.624 174.37 116.011 174.582C116.399 174.791 116.701 175.109 116.916 175.537C117.132 175.961 117.239 176.498 117.239 177.148V182H116.066V177.227C116.066 176.627 115.91 176.16 115.599 175.825C115.287 175.487 114.86 175.318 114.316 175.318C113.942 175.318 113.607 175.399 113.312 175.562C113.02 175.724 112.79 175.961 112.621 176.273C112.452 176.584 112.367 176.962 112.367 177.406ZM122.466 185.023C121.899 185.023 121.412 184.95 121.004 184.804C120.597 184.661 120.257 184.473 119.985 184.237C119.717 184.005 119.503 183.757 119.344 183.491L120.278 182.835C120.384 182.974 120.519 183.134 120.681 183.312C120.843 183.495 121.065 183.652 121.347 183.785C121.632 183.921 122.005 183.989 122.466 183.989C123.082 183.989 123.591 183.839 123.992 183.541C124.393 183.243 124.594 182.776 124.594 182.139V180.588H124.494C124.408 180.727 124.285 180.9 124.126 181.105C123.971 181.307 123.745 181.488 123.45 181.647C123.159 181.803 122.764 181.881 122.267 181.881C121.65 181.881 121.097 181.735 120.606 181.443C120.119 181.152 119.733 180.727 119.448 180.17C119.166 179.614 119.025 178.937 119.025 178.142C119.025 177.36 119.163 176.679 119.438 176.099C119.713 175.515 120.096 175.065 120.587 174.746C121.077 174.425 121.644 174.264 122.287 174.264C122.784 174.264 123.178 174.347 123.47 174.513C123.765 174.675 123.99 174.861 124.146 175.07C124.305 175.275 124.428 175.444 124.514 175.577H124.633V174.364H125.767V182.219C125.767 182.875 125.618 183.409 125.32 183.82C125.025 184.234 124.627 184.537 124.126 184.729C123.629 184.925 123.076 185.023 122.466 185.023ZM122.426 180.827C122.897 180.827 123.294 180.719 123.619 180.504C123.944 180.288 124.191 179.978 124.36 179.574C124.529 179.17 124.614 178.686 124.614 178.122C124.614 177.572 124.531 177.086 124.365 176.665C124.199 176.245 123.954 175.915 123.629 175.676C123.304 175.437 122.903 175.318 122.426 175.318C121.929 175.318 121.515 175.444 121.183 175.696C120.855 175.948 120.608 176.286 120.442 176.71C120.28 177.134 120.199 177.605 120.199 178.122C120.199 178.652 120.282 179.121 120.447 179.529C120.616 179.933 120.865 180.252 121.193 180.484C121.525 180.712 121.936 180.827 122.426 180.827ZM132.011 182V171.818H133.185V175.577H133.284C133.37 175.444 133.489 175.275 133.642 175.07C133.798 174.861 134.02 174.675 134.308 174.513C134.6 174.347 134.994 174.264 135.491 174.264C136.134 174.264 136.701 174.425 137.192 174.746C137.682 175.068 138.065 175.524 138.34 176.114C138.615 176.704 138.753 177.4 138.753 178.202C138.753 179.01 138.615 179.711 138.34 180.305C138.065 180.895 137.684 181.352 137.197 181.677C136.709 181.998 136.148 182.159 135.511 182.159C135.021 182.159 134.628 182.078 134.333 181.915C134.038 181.75 133.811 181.562 133.652 181.354C133.493 181.142 133.37 180.966 133.284 180.827H133.145V182H132.011ZM133.165 178.182C133.165 178.759 133.249 179.267 133.418 179.708C133.587 180.146 133.834 180.489 134.159 180.737C134.484 180.982 134.882 181.105 135.352 181.105C135.843 181.105 136.252 180.976 136.58 180.717C136.912 180.455 137.16 180.104 137.326 179.663C137.495 179.219 137.579 178.725 137.579 178.182C137.579 177.645 137.497 177.161 137.331 176.73C137.168 176.296 136.922 175.953 136.59 175.701C136.262 175.446 135.849 175.318 135.352 175.318C134.875 175.318 134.474 175.439 134.149 175.681C133.824 175.92 133.579 176.254 133.413 176.685C133.248 177.113 133.165 177.612 133.165 178.182ZM143.749 182.159C143.013 182.159 142.379 181.997 141.845 181.672C141.315 181.344 140.905 180.886 140.617 180.3C140.332 179.71 140.19 179.024 140.19 178.241C140.19 177.459 140.332 176.77 140.617 176.173C140.905 175.573 141.306 175.106 141.82 174.771C142.337 174.433 142.94 174.264 143.63 174.264C144.028 174.264 144.42 174.33 144.808 174.463C145.196 174.596 145.549 174.811 145.867 175.109C146.185 175.404 146.439 175.795 146.628 176.283C146.817 176.77 146.911 177.37 146.911 178.082V178.58H141.025V177.565H145.718C145.718 177.134 145.632 176.75 145.459 176.412C145.29 176.074 145.048 175.807 144.734 175.612C144.422 175.416 144.054 175.318 143.63 175.318C143.163 175.318 142.758 175.434 142.417 175.666C142.079 175.895 141.819 176.193 141.636 176.561C141.454 176.929 141.363 177.323 141.363 177.744V178.42C141.363 178.997 141.462 179.486 141.661 179.887C141.863 180.285 142.143 180.588 142.501 180.797C142.859 181.002 143.275 181.105 143.749 181.105C144.057 181.105 144.336 181.062 144.584 180.976C144.836 180.886 145.053 180.754 145.236 180.578C145.418 180.399 145.559 180.177 145.658 179.912L146.792 180.23C146.672 180.615 146.472 180.953 146.19 181.244C145.909 181.533 145.561 181.758 145.146 181.92C144.732 182.08 144.266 182.159 143.749 182.159ZM149.869 177.406V182H148.696V174.364H149.829V175.557H149.929C150.108 175.169 150.38 174.857 150.744 174.622C151.109 174.384 151.579 174.264 152.156 174.264C152.673 174.264 153.126 174.37 153.513 174.582C153.901 174.791 154.203 175.109 154.418 175.537C154.634 175.961 154.741 176.498 154.741 177.148V182H153.568V177.227C153.568 176.627 153.412 176.16 153.101 175.825C152.789 175.487 152.362 175.318 151.818 175.318C151.444 175.318 151.109 175.399 150.814 175.562C150.522 175.724 150.292 175.961 150.123 176.273C149.954 176.584 149.869 176.962 149.869 177.406ZM159.988 182.159C159.272 182.159 158.655 181.99 158.138 181.652C157.621 181.314 157.223 180.848 156.945 180.255C156.667 179.662 156.527 178.984 156.527 178.222C156.527 177.446 156.67 176.762 156.955 176.168C157.243 175.572 157.644 175.106 158.158 174.771C158.675 174.433 159.278 174.264 159.968 174.264C160.505 174.264 160.989 174.364 161.419 174.562C161.85 174.761 162.203 175.04 162.478 175.398C162.754 175.756 162.924 176.173 162.991 176.651H161.817C161.728 176.303 161.529 175.994 161.221 175.726C160.916 175.454 160.505 175.318 159.988 175.318C159.53 175.318 159.129 175.437 158.785 175.676C158.443 175.911 158.176 176.245 157.984 176.675C157.795 177.103 157.701 177.605 157.701 178.182C157.701 178.772 157.794 179.286 157.979 179.723C158.168 180.161 158.433 180.5 158.775 180.742C159.119 180.984 159.524 181.105 159.988 181.105C160.293 181.105 160.569 181.052 160.818 180.946C161.066 180.84 161.277 180.688 161.449 180.489C161.622 180.29 161.744 180.051 161.817 179.773H162.991C162.924 180.223 162.76 180.629 162.498 180.991C162.24 181.349 161.897 181.634 161.469 181.846C161.045 182.055 160.551 182.159 159.988 182.159ZM165.879 177.406V182H164.706V171.818H165.879V175.557H165.978C166.157 175.162 166.426 174.849 166.784 174.617C167.145 174.382 167.626 174.264 168.226 174.264C168.746 174.264 169.202 174.369 169.593 174.577C169.984 174.783 170.287 175.099 170.503 175.527C170.721 175.951 170.831 176.491 170.831 177.148V182H169.657V177.227C169.657 176.621 169.5 176.152 169.185 175.82C168.874 175.486 168.441 175.318 167.888 175.318C167.503 175.318 167.158 175.399 166.853 175.562C166.552 175.724 166.313 175.961 166.138 176.273C165.965 176.584 165.879 176.962 165.879 177.406ZM172.977 182V174.364H174.111V175.557H174.21C174.369 175.149 174.626 174.833 174.981 174.607C175.335 174.379 175.761 174.264 176.258 174.264C176.762 174.264 177.181 174.379 177.516 174.607C177.854 174.833 178.118 175.149 178.307 175.557H178.386C178.582 175.162 178.875 174.849 179.266 174.617C179.657 174.382 180.126 174.264 180.673 174.264C181.356 174.264 181.914 174.478 182.349 174.906C182.783 175.33 183 175.991 183 176.889V182H181.827V176.889C181.827 176.326 181.672 175.923 181.364 175.681C181.056 175.439 180.693 175.318 180.275 175.318C179.739 175.318 179.323 175.481 179.028 175.805C178.733 176.127 178.585 176.535 178.585 177.028V182H177.392V176.77C177.392 176.336 177.251 175.986 176.969 175.721C176.688 175.452 176.325 175.318 175.881 175.318C175.576 175.318 175.291 175.399 175.025 175.562C174.764 175.724 174.552 175.95 174.389 176.238C174.23 176.523 174.15 176.853 174.15 177.227V182H172.977ZM187.392 182.179C186.908 182.179 186.469 182.088 186.075 181.906C185.68 181.72 185.367 181.453 185.135 181.105C184.903 180.754 184.787 180.33 184.787 179.832C184.787 179.395 184.873 179.04 185.046 178.768C185.218 178.493 185.448 178.278 185.737 178.122C186.025 177.966 186.343 177.85 186.691 177.774C187.043 177.695 187.396 177.632 187.75 177.585C188.214 177.526 188.59 177.481 188.879 177.451C189.17 177.418 189.383 177.363 189.515 177.287C189.651 177.211 189.719 177.078 189.719 176.889V176.849C189.719 176.359 189.585 175.978 189.316 175.706C189.051 175.434 188.648 175.298 188.108 175.298C187.548 175.298 187.109 175.421 186.791 175.666C186.473 175.911 186.249 176.173 186.12 176.452L185.006 176.054C185.205 175.59 185.47 175.229 185.801 174.97C186.136 174.708 186.501 174.526 186.895 174.423C187.293 174.317 187.684 174.264 188.068 174.264C188.314 174.264 188.595 174.294 188.914 174.354C189.235 174.41 189.545 174.528 189.843 174.707C190.145 174.886 190.395 175.156 190.594 175.517C190.793 175.878 190.892 176.362 190.892 176.969V182H189.719V180.966H189.659C189.58 181.132 189.447 181.309 189.262 181.498C189.076 181.687 188.829 181.848 188.521 181.98C188.213 182.113 187.836 182.179 187.392 182.179ZM187.571 181.125C188.035 181.125 188.426 181.034 188.745 180.852C189.066 180.669 189.308 180.434 189.47 180.146C189.636 179.857 189.719 179.554 189.719 179.236V178.162C189.669 178.222 189.56 178.276 189.391 178.326C189.225 178.372 189.033 178.414 188.814 178.45C188.599 178.483 188.388 178.513 188.183 178.54C187.981 178.563 187.817 178.583 187.691 178.599C187.386 178.639 187.101 178.704 186.835 178.793C186.574 178.879 186.362 179.01 186.199 179.186C186.04 179.358 185.96 179.594 185.96 179.892C185.96 180.3 186.111 180.608 186.413 180.817C186.718 181.022 187.104 181.125 187.571 181.125ZM193.034 182V174.364H194.167V175.517H194.247C194.386 175.139 194.638 174.833 195.003 174.597C195.367 174.362 195.778 174.244 196.236 174.244C196.322 174.244 196.429 174.246 196.559 174.249C196.688 174.253 196.786 174.258 196.852 174.264V175.457C196.812 175.447 196.721 175.433 196.579 175.413C196.439 175.389 196.292 175.378 196.136 175.378C195.765 175.378 195.433 175.456 195.142 175.612C194.853 175.764 194.625 175.976 194.456 176.248C194.29 176.516 194.207 176.823 194.207 177.168V182H193.034ZM199.337 179.216L199.317 177.764H199.555L202.896 174.364H204.348L200.788 177.963H200.689L199.337 179.216ZM198.243 182V171.818H199.416V182H198.243ZM203.095 182L200.112 178.222L200.947 177.406L204.587 182H203.095ZM207.807 177.545L207.886 175.358L206.037 176.531L205.56 175.696L207.509 174.682L205.56 173.668L206.037 172.832L207.886 174.006L207.807 171.818H208.761L208.682 174.006L210.531 172.832L211.009 173.668L209.06 174.682L211.009 175.696L210.531 176.531L208.682 175.358L208.761 177.545H207.807Z" fill="#404040"/>
<path d="M78.8857 152.335V154.028H73.647V152.335H78.8857ZM85.093 159.159C84.2749 159.159 83.5476 159.019 82.9112 158.739C82.2786 158.458 81.7786 158.068 81.4112 157.568C81.0438 157.068 80.8487 156.491 80.826 155.835H82.9624C82.9813 156.15 83.0855 156.424 83.2749 156.659C83.4643 156.89 83.7161 157.07 84.0305 157.199C84.3449 157.328 84.6972 157.392 85.0874 157.392C85.504 157.392 85.8733 157.32 86.1953 157.176C86.5173 157.028 86.7692 156.824 86.951 156.562C87.1328 156.301 87.2218 156 87.218 155.659C87.2218 155.307 87.1309 154.996 86.9453 154.727C86.7597 154.458 86.4908 154.248 86.1385 154.097C85.79 153.945 85.3696 153.869 84.8771 153.869H83.8487V152.244H84.8771C85.2824 152.244 85.6366 152.174 85.9396 152.034C86.2464 151.894 86.487 151.697 86.6612 151.443C86.8355 151.186 86.9207 150.888 86.9169 150.551C86.9207 150.222 86.8468 149.936 86.6953 149.693C86.5476 149.447 86.3374 149.256 86.0646 149.119C85.7957 148.983 85.4794 148.915 85.1158 148.915C84.7597 148.915 84.4302 148.979 84.1271 149.108C83.8241 149.237 83.5798 149.42 83.3942 149.659C83.2086 149.894 83.1101 150.174 83.0987 150.5H81.0703C81.0855 149.848 81.273 149.277 81.6328 148.784C81.9964 148.288 82.4813 147.902 83.0874 147.625C83.6934 147.345 84.3733 147.205 85.1271 147.205C85.9036 147.205 86.5779 147.35 87.1499 147.642C87.7256 147.93 88.1707 148.318 88.4851 148.807C88.7995 149.295 88.9567 149.835 88.9567 150.426C88.9605 151.081 88.7673 151.631 88.3771 152.074C87.9908 152.517 87.4832 152.807 86.8544 152.943V153.034C87.6726 153.148 88.2995 153.451 88.7351 153.943C89.1745 154.432 89.3923 155.04 89.3885 155.767C89.3885 156.419 89.2029 157.002 88.8317 157.517C88.4643 158.028 87.9567 158.43 87.3089 158.722C86.665 159.013 85.9264 159.159 85.093 159.159ZM95.6399 159.222C94.7043 159.222 93.9013 158.985 93.2308 158.511C92.5642 158.034 92.0509 157.347 91.6911 156.449C91.335 155.547 91.157 154.462 91.157 153.193C91.1607 151.924 91.3407 150.845 91.6967 149.955C92.0566 149.061 92.5698 148.379 93.2365 147.909C93.907 147.439 94.7081 147.205 95.6399 147.205C96.5717 147.205 97.3729 147.439 98.0433 147.909C98.7138 148.379 99.227 149.061 99.5831 149.955C99.9429 150.848 100.123 151.928 100.123 153.193C100.123 154.466 99.9429 155.553 99.5831 156.455C99.227 157.352 98.7138 158.038 98.0433 158.511C97.3767 158.985 96.5755 159.222 95.6399 159.222ZM95.6399 157.443C96.3672 157.443 96.9411 157.085 97.3615 156.369C97.7857 155.65 97.9979 154.591 97.9979 153.193C97.9979 152.269 97.9013 151.492 97.7081 150.864C97.5149 150.235 97.2422 149.761 96.8899 149.443C96.5376 149.121 96.121 148.96 95.6399 148.96C94.9164 148.96 94.3445 149.32 93.924 150.04C93.5036 150.756 93.2914 151.807 93.2876 153.193C93.2839 154.121 93.3767 154.902 93.5661 155.534C93.7592 156.167 94.032 156.644 94.3842 156.966C94.7365 157.284 95.1551 157.443 95.6399 157.443ZM108.232 156.818V156.205C108.232 155.754 108.327 155.339 108.516 154.96C108.71 154.581 108.99 154.277 109.357 154.045C109.725 153.814 110.17 153.699 110.692 153.699C111.23 153.699 111.681 153.814 112.045 154.045C112.408 154.273 112.683 154.576 112.869 154.955C113.058 155.333 113.153 155.75 113.153 156.205V156.818C113.153 157.269 113.058 157.684 112.869 158.062C112.679 158.441 112.401 158.746 112.033 158.977C111.67 159.208 111.223 159.324 110.692 159.324C110.162 159.324 109.713 159.208 109.346 158.977C108.978 158.746 108.7 158.441 108.511 158.062C108.325 157.684 108.232 157.269 108.232 156.818ZM109.715 156.205V156.818C109.715 157.117 109.787 157.392 109.931 157.642C110.075 157.892 110.329 158.017 110.692 158.017C111.06 158.017 111.312 157.894 111.448 157.648C111.588 157.398 111.658 157.121 111.658 156.818V156.205C111.658 155.902 111.592 155.625 111.46 155.375C111.327 155.121 111.071 154.994 110.692 154.994C110.336 154.994 110.085 155.121 109.937 155.375C109.789 155.625 109.715 155.902 109.715 156.205ZM102.317 150.159V149.545C102.317 149.091 102.414 148.674 102.607 148.295C102.8 147.917 103.081 147.614 103.448 147.386C103.816 147.155 104.261 147.04 104.783 147.04C105.317 147.04 105.766 147.155 106.13 147.386C106.497 147.614 106.774 147.917 106.96 148.295C107.145 148.674 107.238 149.091 107.238 149.545V150.159C107.238 150.614 107.143 151.03 106.954 151.409C106.768 151.784 106.492 152.085 106.124 152.312C105.757 152.54 105.31 152.653 104.783 152.653C104.249 152.653 103.799 152.54 103.431 152.312C103.067 152.085 102.791 151.782 102.602 151.403C102.412 151.025 102.317 150.61 102.317 150.159ZM103.812 149.545V150.159C103.812 150.462 103.882 150.739 104.022 150.989C104.166 151.235 104.42 151.358 104.783 151.358C105.147 151.358 105.397 151.235 105.533 150.989C105.674 150.739 105.744 150.462 105.744 150.159V149.545C105.744 149.242 105.677 148.966 105.545 148.716C105.412 148.462 105.158 148.335 104.783 148.335C104.424 148.335 104.172 148.462 104.028 148.716C103.884 148.97 103.812 149.246 103.812 149.545ZM102.965 159L110.965 147.364H112.386L104.386 159H102.965ZM124.792 152.335V154.028H119.553V152.335H124.792ZM135.077 159.159C134.259 159.159 133.532 159.019 132.896 158.739C132.263 158.458 131.763 158.068 131.396 157.568C131.028 157.068 130.833 156.491 130.81 155.835H132.947C132.966 156.15 133.07 156.424 133.259 156.659C133.449 156.89 133.701 157.07 134.015 157.199C134.329 157.328 134.682 157.392 135.072 157.392C135.488 157.392 135.858 157.32 136.18 157.176C136.502 157.028 136.754 156.824 136.935 156.562C137.117 156.301 137.206 156 137.202 155.659C137.206 155.307 137.115 154.996 136.93 154.727C136.744 154.458 136.475 154.248 136.123 154.097C135.774 153.945 135.354 153.869 134.862 153.869H133.833V152.244H134.862C135.267 152.244 135.621 152.174 135.924 152.034C136.231 151.894 136.471 151.697 136.646 151.443C136.82 151.186 136.905 150.888 136.901 150.551C136.905 150.222 136.831 149.936 136.68 149.693C136.532 149.447 136.322 149.256 136.049 149.119C135.78 148.983 135.464 148.915 135.1 148.915C134.744 148.915 134.415 148.979 134.112 149.108C133.808 149.237 133.564 149.42 133.379 149.659C133.193 149.894 133.094 150.174 133.083 150.5H131.055C131.07 149.848 131.257 149.277 131.617 148.784C131.981 148.288 132.466 147.902 133.072 147.625C133.678 147.345 134.358 147.205 135.112 147.205C135.888 147.205 136.562 147.35 137.134 147.642C137.71 147.93 138.155 148.318 138.469 148.807C138.784 149.295 138.941 149.835 138.941 150.426C138.945 151.081 138.752 151.631 138.362 152.074C137.975 152.517 137.468 152.807 136.839 152.943V153.034C137.657 153.148 138.284 153.451 138.719 153.943C139.159 154.432 139.377 155.04 139.373 155.767C139.373 156.419 139.187 157.002 138.816 157.517C138.449 158.028 137.941 158.43 137.293 158.722C136.649 159.013 135.911 159.159 135.077 159.159ZM145.624 159.222C144.689 159.222 143.886 158.985 143.215 158.511C142.549 158.034 142.035 157.347 141.675 156.449C141.319 155.547 141.141 154.462 141.141 153.193C141.145 151.924 141.325 150.845 141.681 149.955C142.041 149.061 142.554 148.379 143.221 147.909C143.891 147.439 144.692 147.205 145.624 147.205C146.556 147.205 147.357 147.439 148.028 147.909C148.698 148.379 149.211 149.061 149.567 149.955C149.927 150.848 150.107 151.928 150.107 153.193C150.107 154.466 149.927 155.553 149.567 156.455C149.211 157.352 148.698 158.038 148.028 158.511C147.361 158.985 146.56 159.222 145.624 159.222ZM145.624 157.443C146.352 157.443 146.925 157.085 147.346 156.369C147.77 155.65 147.982 154.591 147.982 153.193C147.982 152.269 147.886 151.492 147.692 150.864C147.499 150.235 147.227 149.761 146.874 149.443C146.522 149.121 146.105 148.96 145.624 148.96C144.901 148.96 144.329 149.32 143.908 150.04C143.488 150.756 143.276 151.807 143.272 153.193C143.268 154.121 143.361 154.902 143.55 155.534C143.744 156.167 144.016 156.644 144.369 156.966C144.721 157.284 145.139 157.443 145.624 157.443ZM158.217 156.818V156.205C158.217 155.754 158.311 155.339 158.501 154.96C158.694 154.581 158.974 154.277 159.342 154.045C159.709 153.814 160.154 153.699 160.677 153.699C161.215 153.699 161.665 153.814 162.029 154.045C162.393 154.273 162.667 154.576 162.853 154.955C163.042 155.333 163.137 155.75 163.137 156.205V156.818C163.137 157.269 163.042 157.684 162.853 158.062C162.664 158.441 162.385 158.746 162.018 158.977C161.654 159.208 161.207 159.324 160.677 159.324C160.147 159.324 159.698 159.208 159.33 158.977C158.963 158.746 158.684 158.441 158.495 158.062C158.309 157.684 158.217 157.269 158.217 156.818ZM159.7 156.205V156.818C159.7 157.117 159.772 157.392 159.915 157.642C160.059 157.892 160.313 158.017 160.677 158.017C161.044 158.017 161.296 157.894 161.433 157.648C161.573 157.398 161.643 157.121 161.643 156.818V156.205C161.643 155.902 161.576 155.625 161.444 155.375C161.311 155.121 161.056 154.994 160.677 154.994C160.321 154.994 160.069 155.121 159.921 155.375C159.773 155.625 159.7 155.902 159.7 156.205ZM152.302 150.159V149.545C152.302 149.091 152.398 148.674 152.592 148.295C152.785 147.917 153.065 147.614 153.433 147.386C153.8 147.155 154.245 147.04 154.768 147.04C155.302 147.04 155.751 147.155 156.114 147.386C156.482 147.614 156.758 147.917 156.944 148.295C157.129 148.674 157.222 149.091 157.222 149.545V150.159C157.222 150.614 157.128 151.03 156.938 151.409C156.753 151.784 156.476 152.085 156.109 152.312C155.741 152.54 155.294 152.653 154.768 152.653C154.234 152.653 153.783 152.54 153.415 152.312C153.052 152.085 152.775 151.782 152.586 151.403C152.397 151.025 152.302 150.61 152.302 150.159ZM153.796 149.545V150.159C153.796 150.462 153.866 150.739 154.006 150.989C154.15 151.235 154.404 151.358 154.768 151.358C155.131 151.358 155.381 151.235 155.518 150.989C155.658 150.739 155.728 150.462 155.728 150.159V149.545C155.728 149.242 155.662 148.966 155.529 148.716C155.397 148.462 155.143 148.335 154.768 148.335C154.408 148.335 154.156 148.462 154.012 148.716C153.868 148.97 153.796 149.246 153.796 149.545ZM152.95 159L160.95 147.364H162.37L154.37 159H152.95Z" fill="#404040"/>
<mask id="path-3-inside-1_586_5749" fill="white">
<path d="M214.454 116.146C217.126 116.146 219.304 113.978 219.173 111.31C217.976 87.0404 207.808 64.009 190.545 46.7463C172.14 28.3403 147.176 18 121.146 18C95.116 18 70.1522 28.3403 51.7463 46.7463C34.4835 64.009 24.3155 87.0404 23.1191 111.31C22.9875 113.978 25.1661 116.146 27.8381 116.146V116.146C30.5102 116.146 32.6625 113.978 32.8084 111.31C33.9957 89.6084 43.1407 69.0362 58.5884 53.5884C75.1797 36.9971 97.6823 27.6763 121.146 27.6763C144.609 27.6763 167.112 36.9972 183.703 53.5884C199.151 69.0362 208.296 89.6085 209.483 111.31C209.629 113.978 211.782 116.146 214.454 116.146V116.146Z"/>
</mask>
<path d="M214.454 116.146C217.126 116.146 219.304 113.978 219.173 111.31C217.976 87.0404 207.808 64.009 190.545 46.7463C172.14 28.3403 147.176 18 121.146 18C95.116 18 70.1522 28.3403 51.7463 46.7463C34.4835 64.009 24.3155 87.0404 23.1191 111.31C22.9875 113.978 25.1661 116.146 27.8381 116.146V116.146C30.5102 116.146 32.6625 113.978 32.8084 111.31C33.9957 89.6084 43.1407 69.0362 58.5884 53.5884C75.1797 36.9971 97.6823 27.6763 121.146 27.6763C144.609 27.6763 167.112 36.9972 183.703 53.5884C199.151 69.0362 208.296 89.6085 209.483 111.31C209.629 113.978 211.782 116.146 214.454 116.146V116.146Z" stroke="white" stroke-width="16.5387" stroke-linejoin="round" mask="url(#path-3-inside-1_586_5749)"/>
<mask id="path-4-inside-2_586_5749" fill="white">
<path d="M69.112 38.5023C68.4962 37.5588 67.2258 37.3007 66.3057 37.9508C53.805 46.784 43.5532 58.5207 36.4016 72.1875C35.8941 73.1573 36.2858 74.3485 37.2589 74.8497V74.8497C38.2509 75.3605 39.4673 74.9601 39.9861 73.9722C46.8335 60.933 56.6282 49.733 68.5631 41.2952C69.463 40.659 69.7143 39.4253 69.112 38.5023V38.5023Z"/>
</mask>
<path d="M69.112 38.5023C68.4962 37.5588 67.2258 37.3007 66.3057 37.9508C53.805 46.784 43.5532 58.5207 36.4016 72.1875C35.8941 73.1573 36.2858 74.3485 37.2589 74.8497V74.8497C38.2509 75.3605 39.4673 74.9601 39.9861 73.9722C46.8335 60.933 56.6282 49.733 68.5631 41.2952C69.463 40.659 69.7143 39.4253 69.112 38.5023V38.5023Z" stroke="#FFCE64" stroke-width="18.3764" stroke-linejoin="round" mask="url(#path-4-inside-2_586_5749)"/>
<mask id="path-5-inside-3_586_5749" fill="white">
<path d="M214.761 117.957C215.863 117.957 216.758 117.064 216.735 115.962C216.48 103.259 213.783 90.729 208.797 79.0788C208.359 78.054 207.156 77.6108 206.146 78.0834V78.0834C205.155 78.5474 204.723 79.7215 205.153 80.728C209.912 91.8591 212.491 103.827 212.746 115.962C212.769 117.064 213.66 117.957 214.761 117.957V117.957Z"/>
</mask>
<path d="M214.761 117.957C215.863 117.957 216.758 117.064 216.735 115.962C216.48 103.259 213.783 90.729 208.797 79.0788C208.359 78.054 207.156 77.6108 206.146 78.0834V78.0834C205.155 78.5474 204.723 79.7215 205.153 80.728C209.912 91.8591 212.491 103.827 212.746 115.962C212.769 117.064 213.66 117.957 214.761 117.957V117.957Z" stroke="#FF9C00" stroke-width="18.3764" stroke-linejoin="round" mask="url(#path-5-inside-3_586_5749)"/>
<mask id="path-6-inside-4_586_5749" fill="white">
<path d="M36.3097 76.9373C35.3062 76.451 34.0969 76.8784 33.6448 77.8977C28.3353 89.8683 25.4601 102.808 25.1925 115.937C25.17 117.038 26.0648 117.932 27.1662 117.932V117.932C28.2676 117.932 29.1586 117.039 29.182 115.938C29.4487 103.395 32.1987 91.0337 37.2677 79.5949C37.7112 78.5942 37.2948 77.4146 36.3097 76.9373V76.9373Z"/>
</mask>
<path d="M36.3097 76.9373C35.3062 76.451 34.0969 76.8784 33.6448 77.8977C28.3353 89.8683 25.4601 102.808 25.1925 115.937C25.17 117.038 26.0648 117.932 27.1662 117.932V117.932C28.2676 117.932 29.1586 117.039 29.182 115.938C29.4487 103.395 32.1987 91.0337 37.2677 79.5949C37.7112 78.5942 37.2948 77.4146 36.3097 76.9373V76.9373Z" stroke="#FF9C00" stroke-width="18.3764" stroke-linejoin="round" mask="url(#path-6-inside-4_586_5749)"/>
<mask id="path-7-inside-5_586_5749" fill="white">
<path d="M204.736 74.9857C205.71 74.4861 206.104 73.2955 205.598 72.3249C197.984 57.7185 186.839 45.3226 173.216 36.3053C172.277 35.6834 171.014 35.9799 170.427 36.9416V36.9416C169.852 37.883 170.141 39.1096 171.061 39.7186C184.07 48.3343 194.719 60.1655 202.01 74.1039C202.528 75.0926 203.743 75.4949 204.736 74.9857V74.9857Z"/>
</mask>
<path d="M204.736 74.9857C205.71 74.4861 206.104 73.2955 205.598 72.3249C197.984 57.7185 186.839 45.3226 173.216 36.3053C172.277 35.6834 171.014 35.9799 170.427 36.9416V36.9416C169.852 37.883 170.141 39.1096 171.061 39.7186C184.07 48.3343 194.719 60.1655 202.01 74.1039C202.528 75.0926 203.743 75.4949 204.736 74.9857V74.9857Z" stroke="#FFCE64" stroke-width="18.3764" stroke-linejoin="round" mask="url(#path-7-inside-5_586_5749)"/>
<mask id="path-8-inside-6_586_5749" fill="white">
<path d="M166.683 35.0892C167.323 33.9282 166.914 32.4649 165.746 31.8368C151.551 24.2015 135.683 20.3122 119.6 20.545C103.516 20.7779 87.7625 25.1257 73.7856 33.1699C72.6372 33.8308 72.2701 35.3039 72.9427 36.4455V36.4455C73.6295 37.6114 75.1364 37.9863 76.3106 37.3138C89.5474 29.7329 104.452 25.6359 119.668 25.4156C134.884 25.1953 149.897 28.8589 163.34 36.0532C164.534 36.6918 166.029 36.2741 166.683 35.0892V35.0892Z"/>
</mask>
<path d="M166.683 35.0892C167.323 33.9282 166.914 32.4649 165.746 31.8368C151.551 24.2015 135.683 20.3122 119.6 20.545C103.516 20.7779 87.7625 25.1257 73.7856 33.1699C72.6372 33.8308 72.2701 35.3039 72.9427 36.4455V36.4455C73.6295 37.6114 75.1364 37.9863 76.3106 37.3138C89.5474 29.7329 104.452 25.6359 119.668 25.4156C134.884 25.1953 149.897 28.8589 163.34 36.0532C164.534 36.6918 166.029 36.2741 166.683 35.0892V35.0892Z" stroke="#0ACF83" stroke-width="18.3764" stroke-linejoin="round" mask="url(#path-8-inside-6_586_5749)"/>
<circle cx="127.036" cy="22.7081" r="4.7081" fill="#3CC57C"/>
<circle cx="127.036" cy="22.7081" r="2.17297" fill="white"/>
<path d="M121.001 12.1662C120.3 12.1662 119.697 11.9886 119.195 11.6335C118.695 11.2756 118.31 10.7599 118.04 10.0866C117.773 9.41051 117.639 8.59659 117.639 7.64489C117.642 6.69318 117.777 5.88352 118.044 5.21591C118.314 4.54545 118.699 4.03409 119.199 3.68182C119.702 3.32955 120.303 3.15341 121.001 3.15341C121.7 3.15341 122.301 3.32955 122.804 3.68182C123.307 4.03409 123.692 4.54545 123.959 5.21591C124.229 5.88636 124.364 6.69602 124.364 7.64489C124.364 8.59943 124.229 9.41477 123.959 10.0909C123.692 10.7642 123.307 11.2784 122.804 11.6335C122.304 11.9886 121.703 12.1662 121.001 12.1662ZM121.001 10.8324C121.547 10.8324 121.977 10.5639 122.293 10.027C122.611 9.48722 122.77 8.69318 122.77 7.64489C122.77 6.9517 122.697 6.36932 122.553 5.89773C122.408 5.42614 122.203 5.07102 121.939 4.83239C121.675 4.59091 121.362 4.47017 121.001 4.47017C120.459 4.47017 120.03 4.74006 119.714 5.27983C119.399 5.81676 119.24 6.60511 119.237 7.64489C119.234 8.34091 119.304 8.92614 119.446 9.40057C119.591 9.875 119.795 10.233 120.06 10.4744C120.324 10.7131 120.638 10.8324 121.001 10.8324ZM126.407 12.0938C126.148 12.0938 125.927 12.0028 125.742 11.821C125.558 11.6392 125.467 11.4176 125.469 11.1562C125.467 10.9006 125.558 10.6818 125.742 10.5C125.927 10.3182 126.148 10.2273 126.407 10.2273C126.657 10.2273 126.874 10.3182 127.059 10.5C127.246 10.6818 127.342 10.9006 127.344 11.1562C127.342 11.3295 127.296 11.4872 127.208 11.6293C127.123 11.7713 127.009 11.8849 126.867 11.9702C126.728 12.0526 126.575 12.0938 126.407 12.0938ZM131.392 3.27273V12H129.811V4.81108H129.76L127.718 6.11506V4.66619L129.887 3.27273H131.392ZM136.74 12.1193C136.126 12.1193 135.581 12.0142 135.103 11.804C134.629 11.5937 134.254 11.3011 133.978 10.9261C133.703 10.5511 133.556 10.1179 133.539 9.62642H135.142C135.156 9.86222 135.234 10.0682 135.376 10.2443C135.518 10.4176 135.707 10.5526 135.943 10.6491C136.179 10.7457 136.443 10.794 136.735 10.794C137.048 10.794 137.325 10.7401 137.566 10.6321C137.808 10.5213 137.997 10.3679 138.133 10.1719C138.27 9.97585 138.336 9.75 138.333 9.49432C138.336 9.23011 138.268 8.99716 138.129 8.79545C137.99 8.59375 137.788 8.43608 137.524 8.32244C137.262 8.20881 136.947 8.15199 136.578 8.15199H135.806V6.93324H136.578C136.882 6.93324 137.147 6.88068 137.375 6.77557C137.605 6.67045 137.785 6.52273 137.916 6.33239C138.047 6.1392 138.11 5.91619 138.108 5.66335C138.11 5.41619 138.055 5.2017 137.941 5.01989C137.831 4.83523 137.673 4.69176 137.468 4.58949C137.267 4.48722 137.029 4.43608 136.757 4.43608C136.49 4.43608 136.243 4.48437 136.015 4.58097C135.788 4.67756 135.605 4.81534 135.466 4.99432C135.326 5.17045 135.252 5.38068 135.244 5.625H133.723C133.734 5.13636 133.875 4.70739 134.145 4.33807C134.417 3.96591 134.781 3.67614 135.235 3.46875C135.69 3.25852 136.2 3.15341 136.765 3.15341C137.348 3.15341 137.853 3.26278 138.282 3.48153C138.714 3.69744 139.048 3.98864 139.284 4.35511C139.52 4.72159 139.637 5.12642 139.637 5.5696C139.64 6.06108 139.495 6.47301 139.203 6.8054C138.913 7.13778 138.532 7.35511 138.061 7.45739V7.52557C138.674 7.6108 139.145 7.83807 139.471 8.20739C139.801 8.57386 139.964 9.02983 139.961 9.57528C139.961 10.0639 139.822 10.5014 139.544 10.8878C139.268 11.2713 138.887 11.5724 138.402 11.7912C137.919 12.0099 137.365 12.1193 136.74 12.1193ZM146.09 10.3636V9.90341C146.09 9.56534 146.161 9.25426 146.303 8.97017C146.448 8.68608 146.658 8.45739 146.934 8.28409C147.21 8.1108 147.543 8.02415 147.935 8.02415C148.339 8.02415 148.677 8.1108 148.95 8.28409C149.222 8.45455 149.428 8.68182 149.567 8.96591C149.71 9.25 149.781 9.5625 149.781 9.90341V10.3636C149.781 10.7017 149.71 11.0128 149.567 11.2969C149.425 11.581 149.217 11.8097 148.941 11.983C148.668 12.1563 148.333 12.2429 147.935 12.2429C147.538 12.2429 147.201 12.1563 146.925 11.983C146.65 11.8097 146.441 11.581 146.299 11.2969C146.16 11.0128 146.09 10.7017 146.09 10.3636ZM147.202 9.90341V10.3636C147.202 10.5881 147.256 10.794 147.364 10.9815C147.472 11.169 147.663 11.2628 147.935 11.2628C148.211 11.2628 148.4 11.1705 148.502 10.9858C148.607 10.7983 148.66 10.5909 148.66 10.3636V9.90341C148.66 9.67614 148.61 9.46875 148.511 9.28125C148.411 9.09091 148.219 8.99574 147.935 8.99574C147.668 8.99574 147.479 9.09091 147.369 9.28125C147.258 9.46875 147.202 9.67614 147.202 9.90341ZM141.654 5.36932V4.90909C141.654 4.56818 141.727 4.25568 141.871 3.97159C142.016 3.6875 142.227 3.46023 142.502 3.28977C142.778 3.11648 143.112 3.02983 143.504 3.02983C143.904 3.02983 144.241 3.11648 144.513 3.28977C144.789 3.46023 144.996 3.6875 145.136 3.97159C145.275 4.25568 145.344 4.56818 145.344 4.90909V5.36932C145.344 5.71023 145.273 6.02273 145.131 6.30682C144.992 6.58807 144.785 6.81392 144.509 6.98438C144.234 7.15483 143.898 7.24006 143.504 7.24006C143.103 7.24006 142.765 7.15483 142.489 6.98438C142.217 6.81392 142.009 6.58665 141.867 6.30256C141.725 6.01847 141.654 5.70739 141.654 5.36932ZM142.775 4.90909V5.36932C142.775 5.59659 142.827 5.80398 142.933 5.99148C143.04 6.17614 143.231 6.26847 143.504 6.26847C143.776 6.26847 143.964 6.17614 144.066 5.99148C144.171 5.80398 144.224 5.59659 144.224 5.36932V4.90909C144.224 4.68182 144.174 4.47443 144.075 4.28693C143.975 4.09659 143.785 4.00142 143.504 4.00142C143.234 4.00142 143.045 4.09659 142.937 4.28693C142.829 4.47727 142.775 4.68466 142.775 4.90909ZM142.14 12L148.14 3.27273H149.205L143.205 12H142.14Z" fill="#31B73F"/>
<path d="M11.0016 128.362V129.456H6.54705V128.362H11.0016ZM16.6257 123.818V134H15.3928V125.111H15.3331L12.8473 126.761V125.509L15.3928 123.818H16.6257ZM22.875 134.139C22.1259 134.139 21.4879 133.935 20.9609 133.528C20.4339 133.117 20.0313 132.522 19.7528 131.743C19.4744 130.961 19.3352 130.016 19.3352 128.909C19.3352 127.809 19.4744 126.869 19.7528 126.09C20.0346 125.308 20.4389 124.711 20.9659 124.3C21.4962 123.886 22.1326 123.679 22.875 123.679C23.6174 123.679 24.2521 123.886 24.7791 124.3C25.3094 124.711 25.7138 125.308 25.9922 126.09C26.2739 126.869 26.4148 127.809 26.4148 128.909C26.4148 130.016 26.2756 130.961 25.9972 131.743C25.7188 132.522 25.3161 133.117 24.7891 133.528C24.2621 133.935 23.6241 134.139 22.875 134.139ZM22.875 133.045C23.6174 133.045 24.1941 132.687 24.6051 131.972C25.0161 131.256 25.2216 130.235 25.2216 128.909C25.2216 128.027 25.1271 127.277 24.9382 126.657C24.7526 126.037 24.4841 125.565 24.1328 125.24C23.7848 124.915 23.3655 124.753 22.875 124.753C22.1392 124.753 21.5642 125.116 21.1499 125.842C20.7356 126.564 20.5284 127.587 20.5284 128.909C20.5284 129.791 20.6212 130.54 20.8068 131.156C20.9924 131.773 21.2592 132.242 21.6072 132.563C21.9586 132.885 22.3812 133.045 22.875 133.045ZM31.625 134.139C30.8759 134.139 30.2379 133.935 29.7109 133.528C29.1839 133.117 28.7813 132.522 28.5028 131.743C28.2244 130.961 28.0852 130.016 28.0852 128.909C28.0852 127.809 28.2244 126.869 28.5028 126.09C28.7846 125.308 29.1889 124.711 29.7159 124.3C30.2462 123.886 30.8826 123.679 31.625 123.679C32.3674 123.679 33.0021 123.886 33.5291 124.3C34.0594 124.711 34.4638 125.308 34.7422 126.09C35.0239 126.869 35.1648 127.809 35.1648 128.909C35.1648 130.016 35.0256 130.961 34.7472 131.743C34.4688 132.522 34.0661 133.117 33.5391 133.528C33.0121 133.935 32.3741 134.139 31.625 134.139ZM31.625 133.045C32.3674 133.045 32.9441 132.687 33.3551 131.972C33.7661 131.256 33.9716 130.235 33.9716 128.909C33.9716 128.027 33.8771 127.277 33.6882 126.657C33.5026 126.037 33.2341 125.565 32.8828 125.24C32.5348 124.915 32.1155 124.753 31.625 124.753C30.8892 124.753 30.3142 125.116 29.8999 125.842C29.4856 126.564 29.2784 127.587 29.2784 128.909C29.2784 129.791 29.3712 130.54 29.5568 131.156C29.7424 131.773 30.0092 132.242 30.3572 132.563C30.7086 132.885 31.1312 133.045 31.625 133.045Z" fill="#FF9C00"/>
<path d="M207.634 123.818V134H206.401V125.111H206.341L203.855 126.761V125.509L206.401 123.818H207.634ZM213.883 134.139C213.134 134.139 212.496 133.935 211.969 133.528C211.442 133.117 211.039 132.522 210.761 131.743C210.482 130.961 210.343 130.016 210.343 128.909C210.343 127.809 210.482 126.869 210.761 126.09C211.042 125.308 211.447 124.711 211.974 124.3C212.504 123.886 213.14 123.679 213.883 123.679C214.625 123.679 215.26 123.886 215.787 124.3C216.317 124.711 216.722 125.308 217 126.09C217.282 126.869 217.423 127.809 217.423 128.909C217.423 130.016 217.283 130.961 217.005 131.743C216.727 132.522 216.324 133.117 215.797 133.528C215.27 133.935 214.632 134.139 213.883 134.139ZM213.883 133.045C214.625 133.045 215.202 132.687 215.613 131.972C216.024 131.256 216.229 130.235 216.229 128.909C216.229 128.027 216.135 127.277 215.946 126.657C215.76 126.037 215.492 125.565 215.141 125.24C214.793 124.915 214.373 124.753 213.883 124.753C213.147 124.753 212.572 125.116 212.158 125.842C211.743 126.564 211.536 127.587 211.536 128.909C211.536 129.791 211.629 130.54 211.815 131.156C212 131.773 212.267 132.242 212.615 132.563C212.966 132.885 213.389 133.045 213.883 133.045ZM222.633 134.139C221.884 134.139 221.246 133.935 220.719 133.528C220.192 133.117 219.789 132.522 219.511 131.743C219.232 130.961 219.093 130.016 219.093 128.909C219.093 127.809 219.232 126.869 219.511 126.09C219.792 125.308 220.197 124.711 220.724 124.3C221.254 123.886 221.89 123.679 222.633 123.679C223.375 123.679 224.01 123.886 224.537 124.3C225.067 124.711 225.472 125.308 225.75 126.09C226.032 126.869 226.173 127.809 226.173 128.909C226.173 130.016 226.033 130.961 225.755 131.743C225.477 132.522 225.074 133.117 224.547 133.528C224.02 133.935 223.382 134.139 222.633 134.139ZM222.633 133.045C223.375 133.045 223.952 132.687 224.363 131.972C224.774 131.256 224.979 130.235 224.979 128.909C224.979 128.027 224.885 127.277 224.696 126.657C224.51 126.037 224.242 125.565 223.891 125.24C223.543 124.915 223.123 124.753 222.633 124.753C221.897 124.753 221.322 125.116 220.908 125.842C220.493 126.564 220.286 127.587 220.286 128.909C220.286 129.791 220.379 130.54 220.565 131.156C220.75 131.773 221.017 132.242 221.365 132.563C221.716 132.885 222.139 133.045 222.633 133.045Z" fill="#FF9C00"/>
</svg>
