<svg width="217" height="213" viewBox="0 0 217 213" fill="none" xmlns="http://www.w3.org/2000/svg">
<path d="M35.6802 179V168.818H39.1206C39.916 168.818 40.569 168.954 41.0794 169.226C41.5898 169.494 41.9676 169.864 42.2129 170.335C42.4582 170.805 42.5808 171.34 42.5808 171.94C42.5808 172.54 42.4582 173.072 42.2129 173.536C41.9676 174 41.5914 174.365 41.0843 174.63C40.5772 174.892 39.9293 175.023 39.1404 175.023H36.3564V173.909H39.1007C39.6442 173.909 40.0817 173.83 40.4132 173.67C40.7479 173.511 40.9899 173.286 41.139 172.994C41.2915 172.699 41.3677 172.348 41.3677 171.94C41.3677 171.533 41.2915 171.176 41.139 170.871C40.9866 170.567 40.743 170.331 40.4082 170.165C40.0734 169.996 39.631 169.912 39.0808 169.912H36.9132V179H35.6802ZM40.4728 174.426L42.9785 179H41.5467L39.0808 174.426H40.4728ZM44.4762 179V171.364H45.6495V179H44.4762ZM45.0728 170.091C44.8441 170.091 44.6469 170.013 44.4812 169.857C44.3188 169.701 44.2376 169.514 44.2376 169.295C44.2376 169.077 44.3188 168.889 44.4812 168.734C44.6469 168.578 44.8441 168.5 45.0728 168.5C45.3015 168.5 45.497 168.578 45.6594 168.734C45.8252 168.889 45.908 169.077 45.908 169.295C45.908 169.514 45.8252 169.701 45.6594 169.857C45.497 170.013 45.3015 170.091 45.0728 170.091ZM53.2076 173.074L52.1536 173.372C52.0873 173.196 51.9895 173.026 51.8603 172.86C51.7343 172.691 51.562 172.552 51.3432 172.442C51.1245 172.333 50.8444 172.278 50.503 172.278C50.0357 172.278 49.6462 172.386 49.3347 172.602C49.0265 172.814 48.8723 173.084 48.8723 173.412C48.8723 173.704 48.9784 173.934 49.1905 174.103C49.4026 174.272 49.7341 174.413 50.1848 174.526L51.3184 174.804C52.0011 174.97 52.5099 175.223 52.8446 175.565C53.1794 175.903 53.3468 176.339 53.3468 176.872C53.3468 177.31 53.2208 177.701 52.9689 178.045C52.7203 178.39 52.3723 178.662 51.9249 178.861C51.4775 179.06 50.9571 179.159 50.3638 179.159C49.5849 179.159 48.9403 178.99 48.4299 178.652C47.9194 178.314 47.5963 177.82 47.4604 177.17L48.574 176.892C48.6801 177.303 48.8806 177.611 49.1756 177.817C49.4739 178.022 49.8633 178.125 50.3439 178.125C50.8908 178.125 51.325 178.009 51.6465 177.777C51.9713 177.542 52.1337 177.26 52.1337 176.932C52.1337 176.667 52.0409 176.445 51.8553 176.266C51.6697 176.083 51.3846 175.947 51.0002 175.858L49.7275 175.56C49.0281 175.394 48.5144 175.137 48.1863 174.789C47.8614 174.438 47.699 173.999 47.699 173.472C47.699 173.041 47.82 172.66 48.062 172.328C48.3072 171.997 48.6403 171.737 49.0613 171.548C49.4855 171.359 49.9661 171.264 50.503 171.264C51.2587 171.264 51.852 171.43 52.2828 171.761C52.717 172.093 53.0253 172.53 53.2076 173.074ZM56.2067 176.216L56.1868 174.764H56.4254L59.7663 171.364H61.218L57.6584 174.963H57.5589L56.2067 176.216ZM55.1129 179V168.818H56.2862V179H55.1129ZM59.9652 179L56.9822 175.222L57.8175 174.406L61.4567 179H59.9652ZM69.5492 179.139C68.8797 179.139 68.303 179.017 67.8191 178.771C67.3352 178.526 66.9623 178.19 66.7005 177.762C66.4386 177.335 66.3077 176.846 66.3077 176.295C66.3077 175.871 66.3972 175.495 66.5762 175.167C66.7585 174.835 67.0087 174.529 67.3269 174.247C67.6484 173.962 68.0179 173.677 68.4355 173.392L69.9071 172.298C70.1955 172.109 70.4258 171.907 70.5982 171.692C70.7739 171.476 70.8617 171.195 70.8617 170.847C70.8617 170.588 70.7473 170.338 70.5186 170.096C70.2933 169.854 69.9966 169.733 69.6287 169.733C69.3702 169.733 69.1415 169.799 68.9426 169.932C68.7471 170.061 68.593 170.227 68.4803 170.429C68.3709 170.628 68.3162 170.833 68.3162 171.045C68.3162 171.284 68.3809 171.526 68.5101 171.771C68.6427 172.013 68.8101 172.262 69.0123 172.517C69.2177 172.769 69.4299 173.027 69.6486 173.293L74.3219 179H72.91L69.052 174.347C68.6941 173.916 68.3693 173.525 68.0776 173.173C67.7859 172.822 67.5539 172.476 67.3816 172.134C67.2092 171.793 67.123 171.423 67.123 171.026C67.123 170.568 67.2241 170.167 67.4263 169.822C67.6318 169.474 67.9185 169.204 68.2864 169.012C68.6576 168.817 69.0918 168.719 69.589 168.719C70.0994 168.719 70.5385 168.818 70.9064 169.017C71.2743 169.213 71.5577 169.473 71.7566 169.798C71.9554 170.119 72.0549 170.469 72.0549 170.847C72.0549 171.334 71.9339 171.756 71.6919 172.114C71.45 172.472 71.1202 172.805 70.7026 173.114L68.6742 174.625C68.2168 174.963 67.9069 175.291 67.7445 175.609C67.5821 175.928 67.5009 176.156 67.5009 176.295C67.5009 176.614 67.5837 176.91 67.7495 177.185C67.9152 177.46 68.1489 177.683 68.4505 177.852C68.7521 178.021 69.1051 178.105 69.5094 178.105C69.8939 178.105 70.2684 178.024 70.633 177.862C70.9976 177.696 71.3274 177.457 71.6223 177.146C71.9206 176.834 72.156 176.46 72.3283 176.022C72.504 175.585 72.5918 175.092 72.5918 174.545H73.7253C73.7253 175.222 73.6474 175.773 73.4917 176.201C73.3359 176.629 73.1602 176.963 72.9647 177.205C72.7691 177.447 72.6117 177.628 72.4924 177.747C72.4526 177.797 72.4161 177.847 72.383 177.896C72.3498 177.946 72.3134 177.996 72.2736 178.045C71.9455 178.413 71.5312 178.688 71.0307 178.871C70.5302 179.05 70.0364 179.139 69.5492 179.139ZM82.6605 179.159C81.9711 179.159 81.3662 178.995 80.8459 178.667C80.3288 178.339 79.9245 177.88 79.6328 177.29C79.3445 176.7 79.2003 176.01 79.2003 175.222C79.2003 174.426 79.3445 173.732 79.6328 173.138C79.9245 172.545 80.3288 172.085 80.8459 171.756C81.3662 171.428 81.9711 171.264 82.6605 171.264C83.3499 171.264 83.9531 171.428 84.4702 171.756C84.9905 172.085 85.3949 172.545 85.6832 173.138C85.9749 173.732 86.1207 174.426 86.1207 175.222C86.1207 176.01 85.9749 176.7 85.6832 177.29C85.3949 177.88 84.9905 178.339 84.4702 178.667C83.9531 178.995 83.3499 179.159 82.6605 179.159ZM82.6605 178.105C83.1842 178.105 83.6151 177.971 83.9531 177.702C84.2912 177.434 84.5414 177.081 84.7038 176.643C84.8662 176.206 84.9474 175.732 84.9474 175.222C84.9474 174.711 84.8662 174.236 84.7038 173.795C84.5414 173.354 84.2912 172.998 83.9531 172.726C83.6151 172.454 83.1842 172.318 82.6605 172.318C82.1368 172.318 81.706 172.454 81.3679 172.726C81.0298 172.998 80.7796 173.354 80.6172 173.795C80.4548 174.236 80.3736 174.711 80.3736 175.222C80.3736 175.732 80.4548 176.206 80.6172 176.643C80.7796 177.081 81.0298 177.434 81.3679 177.702C81.706 177.971 82.1368 178.105 82.6605 178.105ZM87.9118 181.864V171.364H89.0453V172.577H89.1845C89.2707 172.444 89.39 172.275 89.5424 172.07C89.6982 171.861 89.9203 171.675 90.2086 171.513C90.5003 171.347 90.8947 171.264 91.3919 171.264C92.0349 171.264 92.6016 171.425 93.0922 171.746C93.5827 172.068 93.9655 172.524 94.2406 173.114C94.5157 173.704 94.6532 174.4 94.6532 175.202C94.6532 176.01 94.5157 176.711 94.2406 177.305C93.9655 177.895 93.5843 178.352 93.0971 178.677C92.6099 178.998 92.0481 179.159 91.4118 179.159C90.9212 179.159 90.5285 179.078 90.2335 178.915C89.9385 178.75 89.7115 178.562 89.5524 178.354C89.3933 178.142 89.2707 177.966 89.1845 177.827H89.085V181.864H87.9118ZM89.0652 175.182C89.0652 175.759 89.1497 176.267 89.3187 176.708C89.4877 177.146 89.7347 177.489 90.0595 177.737C90.3843 177.982 90.782 178.105 91.2527 178.105C91.7432 178.105 92.1525 177.976 92.4806 177.717C92.8121 177.455 93.0607 177.104 93.2264 176.663C93.3954 176.219 93.4799 175.725 93.4799 175.182C93.4799 174.645 93.3971 174.161 93.2314 173.73C93.069 173.296 92.822 172.953 92.4906 172.701C92.1625 172.446 91.7498 172.318 91.2527 172.318C90.7754 172.318 90.3743 172.439 90.0495 172.681C89.7247 172.92 89.4795 173.254 89.3137 173.685C89.148 174.113 89.0652 174.612 89.0652 175.182ZM96.443 181.864V171.364H97.5765V172.577H97.7157C97.8019 172.444 97.9212 172.275 98.0737 172.07C98.2295 171.861 98.4515 171.675 98.7399 171.513C99.0315 171.347 99.426 171.264 99.9231 171.264C100.566 171.264 101.133 171.425 101.623 171.746C102.114 172.068 102.497 172.524 102.772 173.114C103.047 173.704 103.184 174.4 103.184 175.202C103.184 176.01 103.047 176.711 102.772 177.305C102.497 177.895 102.116 178.352 101.628 178.677C101.141 178.998 100.579 179.159 99.943 179.159C99.4525 179.159 99.0597 179.078 98.7647 178.915C98.4698 178.75 98.2427 178.562 98.0836 178.354C97.9245 178.142 97.8019 177.966 97.7157 177.827H97.6163V181.864H96.443ZM97.5964 175.182C97.5964 175.759 97.6809 176.267 97.85 176.708C98.019 177.146 98.2659 177.489 98.5907 177.737C98.9155 177.982 99.3133 178.105 99.7839 178.105C100.274 178.105 100.684 177.976 101.012 177.717C101.343 177.455 101.592 177.104 101.758 176.663C101.927 176.219 102.011 175.725 102.011 175.182C102.011 174.645 101.928 174.161 101.763 173.73C101.6 173.296 101.353 172.953 101.022 172.701C100.694 172.446 100.281 172.318 99.7839 172.318C99.3066 172.318 98.9056 172.439 98.5808 172.681C98.256 172.92 98.0107 173.254 97.845 173.685C97.6793 174.113 97.5964 174.612 97.5964 175.182ZM108.077 179.159C107.387 179.159 106.782 178.995 106.262 178.667C105.745 178.339 105.34 177.88 105.049 177.29C104.76 176.7 104.616 176.01 104.616 175.222C104.616 174.426 104.76 173.732 105.049 173.138C105.34 172.545 105.745 172.085 106.262 171.756C106.782 171.428 107.387 171.264 108.077 171.264C108.766 171.264 109.369 171.428 109.886 171.756C110.407 172.085 110.811 172.545 111.099 173.138C111.391 173.732 111.537 174.426 111.537 175.222C111.537 176.01 111.391 176.7 111.099 177.29C110.811 177.88 110.407 178.339 109.886 178.667C109.369 178.995 108.766 179.159 108.077 179.159ZM108.077 178.105C108.6 178.105 109.031 177.971 109.369 177.702C109.707 177.434 109.957 177.081 110.12 176.643C110.282 176.206 110.363 175.732 110.363 175.222C110.363 174.711 110.282 174.236 110.12 173.795C109.957 173.354 109.707 172.998 109.369 172.726C109.031 172.454 108.6 172.318 108.077 172.318C107.553 172.318 107.122 172.454 106.784 172.726C106.446 172.998 106.196 173.354 106.033 173.795C105.871 174.236 105.79 174.711 105.79 175.222C105.79 175.732 105.871 176.206 106.033 176.643C106.196 177.081 106.446 177.434 106.784 177.702C107.122 177.971 107.553 178.105 108.077 178.105ZM113.328 179V171.364H114.461V172.517H114.541C114.68 172.139 114.932 171.833 115.297 171.597C115.661 171.362 116.072 171.244 116.529 171.244C116.616 171.244 116.723 171.246 116.853 171.249C116.982 171.253 117.08 171.258 117.146 171.264V172.457C117.106 172.447 117.015 172.433 116.873 172.413C116.733 172.389 116.586 172.378 116.43 172.378C116.059 172.378 115.727 172.456 115.436 172.612C115.147 172.764 114.919 172.976 114.75 173.248C114.584 173.516 114.501 173.823 114.501 174.168V179H113.328ZM122.336 171.364V172.358H118.379V171.364H122.336ZM119.532 169.534H120.706V176.812C120.706 177.144 120.754 177.393 120.85 177.558C120.949 177.721 121.075 177.83 121.228 177.886C121.383 177.939 121.547 177.966 121.72 177.966C121.849 177.966 121.955 177.959 122.038 177.946C122.121 177.929 122.187 177.916 122.237 177.906L122.475 178.96C122.396 178.99 122.285 179.02 122.142 179.05C122 179.083 121.819 179.099 121.6 179.099C121.269 179.099 120.944 179.028 120.626 178.886C120.311 178.743 120.049 178.526 119.841 178.234C119.635 177.943 119.532 177.575 119.532 177.131V169.534ZM128.914 175.878V171.364H130.087V179H128.914V177.707H128.834C128.655 178.095 128.377 178.425 127.999 178.697C127.621 178.965 127.144 179.099 126.567 179.099C126.09 179.099 125.666 178.995 125.294 178.786C124.923 178.574 124.632 178.256 124.419 177.832C124.207 177.404 124.101 176.866 124.101 176.216V171.364H125.275V176.136C125.275 176.693 125.43 177.137 125.742 177.469C126.057 177.8 126.458 177.966 126.945 177.966C127.237 177.966 127.533 177.891 127.835 177.742C128.14 177.593 128.395 177.364 128.6 177.056C128.809 176.748 128.914 176.355 128.914 175.878ZM133.409 174.406V179H132.236V171.364H133.369V172.557H133.469C133.648 172.169 133.92 171.857 134.284 171.622C134.649 171.384 135.119 171.264 135.696 171.264C136.213 171.264 136.666 171.37 137.053 171.582C137.441 171.791 137.743 172.109 137.958 172.537C138.174 172.961 138.281 173.498 138.281 174.148V179H137.108V174.227C137.108 173.627 136.952 173.16 136.641 172.825C136.329 172.487 135.902 172.318 135.358 172.318C134.984 172.318 134.649 172.399 134.354 172.562C134.062 172.724 133.832 172.961 133.663 173.273C133.494 173.584 133.409 173.962 133.409 174.406ZM140.425 179V171.364H141.599V179H140.425ZM141.022 170.091C140.793 170.091 140.596 170.013 140.43 169.857C140.268 169.701 140.187 169.514 140.187 169.295C140.187 169.077 140.268 168.889 140.43 168.734C140.596 168.578 140.793 168.5 141.022 168.5C141.251 168.5 141.446 168.578 141.609 168.734C141.774 168.889 141.857 169.077 141.857 169.295C141.857 169.514 141.774 169.701 141.609 169.857C141.446 170.013 141.251 170.091 141.022 170.091ZM147.069 171.364V172.358H143.111V171.364H147.069ZM144.265 169.534H145.438V176.812C145.438 177.144 145.486 177.393 145.582 177.558C145.682 177.721 145.808 177.83 145.96 177.886C146.116 177.939 146.28 177.966 146.452 177.966C146.581 177.966 146.688 177.959 146.77 177.946C146.853 177.929 146.92 177.916 146.969 177.906L147.208 178.96C147.128 178.99 147.017 179.02 146.875 179.05C146.732 179.083 146.552 179.099 146.333 179.099C146.001 179.099 145.677 179.028 145.358 178.886C145.044 178.743 144.782 178.526 144.573 178.234C144.367 177.943 144.265 177.575 144.265 177.131V169.534ZM149.589 181.864C149.39 181.864 149.213 181.847 149.057 181.814C148.902 181.784 148.794 181.754 148.734 181.724L149.032 180.69C149.318 180.763 149.569 180.79 149.788 180.77C150.007 180.75 150.201 180.652 150.37 180.477C150.542 180.304 150.7 180.024 150.842 179.636L151.061 179.04L148.237 171.364H149.51L151.618 177.449H151.697L153.805 171.364H155.078L151.836 180.114C151.691 180.508 151.51 180.835 151.295 181.093C151.079 181.355 150.829 181.549 150.544 181.675C150.262 181.801 149.944 181.864 149.589 181.864ZM55.73 197V186.818H56.9033V190.577H57.0028C57.0889 190.444 57.2082 190.275 57.3607 190.07C57.5165 189.861 57.7385 189.675 58.0269 189.513C58.3186 189.347 58.713 189.264 59.2101 189.264C59.8531 189.264 60.4199 189.425 60.9104 189.746C61.401 190.068 61.7838 190.524 62.0589 191.114C62.334 191.704 62.4715 192.4 62.4715 193.202C62.4715 194.01 62.334 194.711 62.0589 195.305C61.7838 195.895 61.4026 196.352 60.9154 196.677C60.4282 196.998 59.8664 197.159 59.23 197.159C58.7395 197.159 58.3467 197.078 58.0518 196.915C57.7568 196.75 57.5297 196.562 57.3706 196.354C57.2116 196.142 57.0889 195.966 57.0028 195.827H56.8635V197H55.73ZM56.8834 193.182C56.8834 193.759 56.968 194.267 57.137 194.708C57.306 195.146 57.5529 195.489 57.8778 195.737C58.2026 195.982 58.6003 196.105 59.0709 196.105C59.5615 196.105 59.9708 195.976 60.2989 195.717C60.6304 195.455 60.8789 195.104 61.0447 194.663C61.2137 194.219 61.2982 193.725 61.2982 193.182C61.2982 192.645 61.2153 192.161 61.0496 191.73C60.8872 191.296 60.6403 190.953 60.3089 190.701C59.9807 190.446 59.5681 190.318 59.0709 190.318C58.5937 190.318 58.1926 190.439 57.8678 190.681C57.543 190.92 57.2977 191.254 57.132 191.685C56.9663 192.113 56.8834 192.612 56.8834 193.182ZM67.468 197.159C66.7322 197.159 66.0974 196.997 65.5638 196.672C65.0335 196.344 64.6242 195.886 64.3358 195.3C64.0508 194.71 63.9083 194.024 63.9083 193.241C63.9083 192.459 64.0508 191.77 64.3358 191.173C64.6242 190.573 65.0252 190.106 65.539 189.771C66.056 189.433 66.6592 189.264 67.3486 189.264C67.7464 189.264 68.1391 189.33 68.5269 189.463C68.9147 189.596 69.2677 189.811 69.5858 190.109C69.904 190.404 70.1576 190.795 70.3465 191.283C70.5354 191.77 70.6299 192.37 70.6299 193.082V193.58H64.7435V192.565H69.4367C69.4367 192.134 69.3505 191.75 69.1782 191.412C69.0091 191.074 68.7672 190.807 68.4523 190.612C68.1408 190.416 67.7729 190.318 67.3486 190.318C66.8813 190.318 66.4769 190.434 66.1356 190.666C65.7975 190.895 65.5373 191.193 65.355 191.561C65.1727 191.929 65.0816 192.323 65.0816 192.744V193.42C65.0816 193.997 65.181 194.486 65.3799 194.887C65.5821 195.285 65.8621 195.588 66.2201 195.797C66.578 196.002 66.994 196.105 67.468 196.105C67.7762 196.105 68.0546 196.062 68.3032 195.976C68.5551 195.886 68.7722 195.754 68.9545 195.578C69.1367 195.399 69.2776 195.177 69.377 194.912L70.5106 195.23C70.3912 195.615 70.1907 195.953 69.909 196.244C69.6273 196.533 69.2793 196.758 68.865 196.92C68.4507 197.08 67.985 197.159 67.468 197.159ZM73.588 192.406V197H72.4147V189.364H73.5482V190.557H73.6476C73.8266 190.169 74.0984 189.857 74.463 189.622C74.8276 189.384 75.2982 189.264 75.8749 189.264C76.392 189.264 76.8444 189.37 77.2322 189.582C77.6199 189.791 77.9215 190.109 78.137 190.537C78.3524 190.961 78.4601 191.498 78.4601 192.148V197H77.2868V192.227C77.2868 191.627 77.1311 191.16 76.8195 190.825C76.508 190.487 76.0804 190.318 75.5368 190.318C75.1623 190.318 74.8276 190.399 74.5326 190.562C74.2409 190.724 74.0106 190.961 73.8415 191.273C73.6725 191.584 73.588 191.962 73.588 192.406ZM83.7064 197.159C82.9905 197.159 82.374 196.99 81.857 196.652C81.3399 196.314 80.9422 195.848 80.6638 195.255C80.3854 194.662 80.2462 193.984 80.2462 193.222C80.2462 192.446 80.3887 191.762 80.6737 191.168C80.9621 190.572 81.3631 190.106 81.8769 189.771C82.3939 189.433 82.9971 189.264 83.6865 189.264C84.2235 189.264 84.7074 189.364 85.1382 189.562C85.5691 189.761 85.9221 190.04 86.1972 190.398C86.4723 190.756 86.643 191.173 86.7093 191.651H85.536C85.4465 191.303 85.2476 190.994 84.9394 190.726C84.6344 190.454 84.2235 190.318 83.7064 190.318C83.249 190.318 82.848 190.437 82.5033 190.676C82.1619 190.911 81.8951 191.245 81.7029 191.675C81.5139 192.103 81.4195 192.605 81.4195 193.182C81.4195 193.772 81.5123 194.286 81.6979 194.723C81.8868 195.161 82.152 195.5 82.4933 195.742C82.838 195.984 83.2424 196.105 83.7064 196.105C84.0113 196.105 84.2881 196.052 84.5367 195.946C84.7852 195.84 84.9957 195.688 85.1681 195.489C85.3404 195.29 85.463 195.051 85.536 194.773H86.7093C86.643 195.223 86.4789 195.629 86.2171 195.991C85.9585 196.349 85.6155 196.634 85.1879 196.846C84.7637 197.055 84.2699 197.159 83.7064 197.159ZM89.5977 192.406V197H88.4244V186.818H89.5977V190.557H89.6972C89.8762 190.162 90.1446 189.849 90.5026 189.617C90.8638 189.382 91.3444 189.264 91.9443 189.264C92.4647 189.264 92.9204 189.369 93.3115 189.577C93.7026 189.783 94.0059 190.099 94.2213 190.527C94.4401 190.951 94.5494 191.491 94.5494 192.148V197H93.3762V192.227C93.3762 191.621 93.2187 191.152 92.9039 190.82C92.5923 190.486 92.1598 190.318 91.6063 190.318C91.2218 190.318 90.8771 190.399 90.5722 190.562C90.2706 190.724 90.0319 190.961 89.8563 191.273C89.6839 191.584 89.5977 191.962 89.5977 192.406ZM96.6959 197V189.364H97.8295V190.557H97.9289C98.088 190.149 98.3448 189.833 98.6995 189.607C99.0541 189.379 99.48 189.264 99.9772 189.264C100.481 189.264 100.9 189.379 101.235 189.607C101.573 189.833 101.837 190.149 102.025 190.557H102.105C102.301 190.162 102.594 189.849 102.985 189.617C103.376 189.382 103.845 189.264 104.392 189.264C105.075 189.264 105.633 189.478 106.067 189.906C106.502 190.33 106.719 190.991 106.719 191.889V197H105.545V191.889C105.545 191.326 105.391 190.923 105.083 190.681C104.775 190.439 104.412 190.318 103.994 190.318C103.457 190.318 103.041 190.481 102.746 190.805C102.451 191.127 102.304 191.535 102.304 192.028V197H101.111V191.77C101.111 191.336 100.97 190.986 100.688 190.721C100.406 190.452 100.043 190.318 99.5993 190.318C99.2944 190.318 99.0094 190.399 98.7442 190.562C98.4824 190.724 98.2703 190.95 98.1079 191.238C97.9488 191.523 97.8692 191.853 97.8692 192.227V197H96.6959ZM111.111 197.179C110.627 197.179 110.188 197.088 109.794 196.906C109.399 196.72 109.086 196.453 108.854 196.105C108.622 195.754 108.506 195.33 108.506 194.832C108.506 194.395 108.592 194.04 108.764 193.768C108.937 193.493 109.167 193.278 109.456 193.122C109.744 192.966 110.062 192.85 110.41 192.774C110.761 192.695 111.114 192.632 111.469 192.585C111.933 192.526 112.309 192.481 112.598 192.451C112.889 192.418 113.101 192.363 113.234 192.287C113.37 192.211 113.438 192.078 113.438 191.889V191.849C113.438 191.359 113.304 190.978 113.035 190.706C112.77 190.434 112.367 190.298 111.827 190.298C111.267 190.298 110.828 190.421 110.509 190.666C110.191 190.911 109.968 191.173 109.838 191.452L108.725 191.054C108.924 190.59 109.189 190.229 109.52 189.97C109.855 189.708 110.219 189.526 110.614 189.423C111.012 189.317 111.403 189.264 111.787 189.264C112.032 189.264 112.314 189.294 112.632 189.354C112.954 189.41 113.264 189.528 113.562 189.707C113.864 189.886 114.114 190.156 114.313 190.517C114.512 190.878 114.611 191.362 114.611 191.969V197H113.438V195.966H113.378C113.299 196.132 113.166 196.309 112.98 196.498C112.795 196.687 112.548 196.848 112.24 196.98C111.931 197.113 111.555 197.179 111.111 197.179ZM111.29 196.125C111.754 196.125 112.145 196.034 112.463 195.852C112.785 195.669 113.027 195.434 113.189 195.146C113.355 194.857 113.438 194.554 113.438 194.236V193.162C113.388 193.222 113.279 193.276 113.11 193.326C112.944 193.372 112.752 193.414 112.533 193.45C112.318 193.483 112.107 193.513 111.902 193.54C111.699 193.563 111.535 193.583 111.409 193.599C111.104 193.639 110.819 193.704 110.554 193.793C110.292 193.879 110.08 194.01 109.918 194.186C109.759 194.358 109.679 194.594 109.679 194.892C109.679 195.3 109.83 195.608 110.132 195.817C110.437 196.022 110.823 196.125 111.29 196.125ZM116.753 197V189.364H117.886V190.517H117.966C118.105 190.139 118.357 189.833 118.721 189.597C119.086 189.362 119.497 189.244 119.954 189.244C120.04 189.244 120.148 189.246 120.277 189.249C120.407 189.253 120.504 189.258 120.571 189.264V190.457C120.531 190.447 120.44 190.433 120.297 190.413C120.158 190.389 120.011 190.378 119.855 190.378C119.484 190.378 119.152 190.456 118.861 190.612C118.572 190.764 118.343 190.976 118.174 191.248C118.009 191.516 117.926 191.823 117.926 192.168V197H116.753ZM123.055 194.216L123.035 192.764H123.274L126.615 189.364H128.067L124.507 192.963H124.408L123.055 194.216ZM121.962 197V186.818H123.135V197H121.962ZM126.814 197L123.831 193.222L124.666 192.406L128.305 197H126.814ZM131.526 192.545L131.605 190.358L129.756 191.531L129.278 190.696L131.227 189.682L129.278 188.668L129.756 187.832L131.605 189.006L131.526 186.818H132.48L132.401 189.006L134.25 187.832L134.727 188.668L132.778 189.682L134.727 190.696L134.25 191.531L132.401 190.358L132.48 192.545H131.526Z" fill="#404040"/>
<path d="M56.0696 156L61.0185 146.205V146.125H55.2741V144.364H63.2003V146.165L58.2571 156H56.0696ZM68.9233 156.159C68.1657 156.159 67.4877 156.017 66.8892 155.733C66.2907 155.445 65.8153 155.051 65.4631 154.551C65.1146 154.051 64.929 153.479 64.9062 152.835H66.9517C66.9896 153.312 67.196 153.703 67.571 154.006C67.946 154.305 68.3968 154.455 68.9233 154.455C69.3362 154.455 69.7036 154.36 70.0256 154.17C70.3475 153.981 70.6013 153.718 70.7869 153.381C70.9725 153.044 71.0634 152.659 71.0597 152.227C71.0634 151.788 70.9706 151.398 70.7812 151.057C70.5919 150.716 70.3324 150.449 70.0028 150.256C69.6733 150.059 69.2945 149.96 68.8665 149.96C68.518 149.956 68.1752 150.021 67.8381 150.153C67.5009 150.286 67.2339 150.46 67.0369 150.676L65.1335 150.364L65.7415 144.364H72.4915V146.125H67.4858L67.1506 149.21H67.2188C67.4347 148.956 67.7396 148.746 68.1335 148.58C68.5275 148.409 68.9593 148.324 69.429 148.324C70.1335 148.324 70.7623 148.491 71.3153 148.824C71.8684 149.153 72.304 149.608 72.6222 150.188C72.9403 150.767 73.0994 151.43 73.0994 152.176C73.0994 152.945 72.9214 153.631 72.5653 154.233C72.2131 154.831 71.7225 155.303 71.0938 155.648C70.4688 155.989 69.7453 156.159 68.9233 156.159ZM81.2244 153.818V153.205C81.2244 152.754 81.3191 152.339 81.5085 151.96C81.7017 151.581 81.982 151.277 82.3494 151.045C82.7169 150.814 83.1619 150.699 83.6847 150.699C84.2225 150.699 84.6733 150.814 85.0369 151.045C85.4006 151.273 85.6752 151.576 85.8608 151.955C86.0502 152.333 86.1449 152.75 86.1449 153.205V153.818C86.1449 154.269 86.0502 154.684 85.8608 155.062C85.6714 155.441 85.393 155.746 85.0256 155.977C84.6619 156.208 84.215 156.324 83.6847 156.324C83.1544 156.324 82.7055 156.208 82.3381 155.977C81.9706 155.746 81.6922 155.441 81.5028 155.062C81.3172 154.684 81.2244 154.269 81.2244 153.818ZM82.7074 153.205V153.818C82.7074 154.117 82.7794 154.392 82.9233 154.642C83.0672 154.892 83.321 155.017 83.6847 155.017C84.0521 155.017 84.304 154.894 84.4403 154.648C84.5805 154.398 84.6506 154.121 84.6506 153.818V153.205C84.6506 152.902 84.5843 152.625 84.4517 152.375C84.3191 152.121 84.0634 151.994 83.6847 151.994C83.3286 151.994 83.0767 152.121 82.929 152.375C82.7813 152.625 82.7074 152.902 82.7074 153.205ZM75.3097 147.159V146.545C75.3097 146.091 75.4063 145.674 75.5994 145.295C75.7926 144.917 76.0729 144.614 76.4403 144.386C76.8078 144.155 77.2528 144.04 77.7756 144.04C78.3097 144.04 78.7585 144.155 79.1222 144.386C79.4896 144.614 79.7661 144.917 79.9517 145.295C80.1373 145.674 80.2301 146.091 80.2301 146.545V147.159C80.2301 147.614 80.1354 148.03 79.946 148.409C79.7604 148.784 79.4839 149.085 79.1165 149.312C78.7491 149.54 78.3021 149.653 77.7756 149.653C77.2415 149.653 76.7907 149.54 76.4233 149.312C76.0597 149.085 75.7831 148.782 75.5938 148.403C75.4044 148.025 75.3097 147.61 75.3097 147.159ZM76.804 146.545V147.159C76.804 147.462 76.8741 147.739 77.0142 147.989C77.1581 148.235 77.4119 148.358 77.7756 148.358C78.1392 148.358 78.3892 148.235 78.5256 147.989C78.6657 147.739 78.7358 147.462 78.7358 147.159V146.545C78.7358 146.242 78.6695 145.966 78.5369 145.716C78.4044 145.462 78.1506 145.335 77.7756 145.335C77.4157 145.335 77.1638 145.462 77.0199 145.716C76.8759 145.97 76.804 146.246 76.804 146.545ZM75.9574 156L83.9574 144.364H85.3778L77.3778 156H75.9574ZM97.7841 149.335V151.028H92.5455V149.335H97.7841ZM108.626 144.364V156H106.518V146.415H106.45L103.729 148.153V146.222L106.621 144.364H108.626ZM115.882 156.222C114.946 156.222 114.143 155.985 113.473 155.511C112.806 155.034 112.293 154.347 111.933 153.449C111.577 152.547 111.399 151.462 111.399 150.193C111.403 148.924 111.583 147.845 111.939 146.955C112.299 146.061 112.812 145.379 113.479 144.909C114.149 144.439 114.95 144.205 115.882 144.205C116.814 144.205 117.615 144.439 118.286 144.909C118.956 145.379 119.469 146.061 119.825 146.955C120.185 147.848 120.365 148.928 120.365 150.193C120.365 151.466 120.185 152.553 119.825 153.455C119.469 154.352 118.956 155.038 118.286 155.511C117.619 155.985 116.818 156.222 115.882 156.222ZM115.882 154.443C116.609 154.443 117.183 154.085 117.604 153.369C118.028 152.65 118.24 151.591 118.24 150.193C118.24 149.269 118.143 148.492 117.95 147.864C117.757 147.235 117.484 146.761 117.132 146.443C116.78 146.121 116.363 145.96 115.882 145.96C115.159 145.96 114.587 146.32 114.166 147.04C113.746 147.756 113.534 148.807 113.53 150.193C113.526 151.121 113.619 151.902 113.808 152.534C114.001 153.167 114.274 153.644 114.626 153.966C114.979 154.284 115.397 154.443 115.882 154.443ZM126.554 156.222C125.618 156.222 124.815 155.985 124.145 155.511C123.478 155.034 122.965 154.347 122.605 153.449C122.249 152.547 122.071 151.462 122.071 150.193C122.075 148.924 122.255 147.845 122.611 146.955C122.971 146.061 123.484 145.379 124.151 144.909C124.821 144.439 125.622 144.205 126.554 144.205C127.486 144.205 128.287 144.439 128.957 144.909C129.628 145.379 130.141 146.061 130.497 146.955C130.857 147.848 131.037 148.928 131.037 150.193C131.037 151.466 130.857 152.553 130.497 153.455C130.141 154.352 129.628 155.038 128.957 155.511C128.291 155.985 127.49 156.222 126.554 156.222ZM126.554 154.443C127.281 154.443 127.855 154.085 128.276 153.369C128.7 152.65 128.912 151.591 128.912 150.193C128.912 149.269 128.815 148.492 128.622 147.864C128.429 147.235 128.156 146.761 127.804 146.443C127.452 146.121 127.035 145.96 126.554 145.96C125.83 145.96 125.259 146.32 124.838 147.04C124.418 147.756 124.205 148.807 124.202 150.193C124.198 151.121 124.291 151.902 124.48 152.534C124.673 153.167 124.946 153.644 125.298 153.966C125.651 154.284 126.069 154.443 126.554 154.443ZM139.146 153.818V153.205C139.146 152.754 139.241 152.339 139.43 151.96C139.624 151.581 139.904 151.277 140.271 151.045C140.639 150.814 141.084 150.699 141.607 150.699C142.144 150.699 142.595 150.814 142.959 151.045C143.322 151.273 143.597 151.576 143.783 151.955C143.972 152.333 144.067 152.75 144.067 153.205V153.818C144.067 154.269 143.972 154.684 143.783 155.062C143.593 155.441 143.315 155.746 142.947 155.977C142.584 156.208 142.137 156.324 141.607 156.324C141.076 156.324 140.627 156.208 140.26 155.977C139.893 155.746 139.614 155.441 139.425 155.062C139.239 154.684 139.146 154.269 139.146 153.818ZM140.629 153.205V153.818C140.629 154.117 140.701 154.392 140.845 154.642C140.989 154.892 141.243 155.017 141.607 155.017C141.974 155.017 142.226 154.894 142.362 154.648C142.502 154.398 142.572 154.121 142.572 153.818V153.205C142.572 152.902 142.506 152.625 142.374 152.375C142.241 152.121 141.985 151.994 141.607 151.994C141.25 151.994 140.999 152.121 140.851 152.375C140.703 152.625 140.629 152.902 140.629 153.205ZM133.232 147.159V146.545C133.232 146.091 133.328 145.674 133.521 145.295C133.714 144.917 133.995 144.614 134.362 144.386C134.73 144.155 135.175 144.04 135.697 144.04C136.232 144.04 136.68 144.155 137.044 144.386C137.411 144.614 137.688 144.917 137.874 145.295C138.059 145.674 138.152 146.091 138.152 146.545V147.159C138.152 147.614 138.057 148.03 137.868 148.409C137.682 148.784 137.406 149.085 137.038 149.312C136.671 149.54 136.224 149.653 135.697 149.653C135.163 149.653 134.713 149.54 134.345 149.312C133.982 149.085 133.705 148.782 133.516 148.403C133.326 148.025 133.232 147.61 133.232 147.159ZM134.726 146.545V147.159C134.726 147.462 134.796 147.739 134.936 147.989C135.08 148.235 135.334 148.358 135.697 148.358C136.061 148.358 136.311 148.235 136.447 147.989C136.588 147.739 136.658 147.462 136.658 147.159V146.545C136.658 146.242 136.591 145.966 136.459 145.716C136.326 145.462 136.072 145.335 135.697 145.335C135.338 145.335 135.086 145.462 134.942 145.716C134.798 145.97 134.726 146.246 134.726 146.545ZM133.879 156L141.879 144.364H143.3L135.3 156H133.879Z" fill="#404040"/>
<mask id="path-3-inside-1_371_5257" fill="white">
<path d="M192.562 113.146C195.235 113.146 197.413 110.978 197.282 108.31C196.085 84.0404 185.917 61.009 168.654 43.7463C150.248 25.3403 125.285 15 99.2548 15C73.2249 15 48.2611 25.3403 29.8552 43.7463C12.5924 61.009 2.42444 84.0404 1.228 108.31C1.09644 110.978 3.275 113.146 5.94703 113.146C8.61906 113.146 10.7714 110.978 10.9173 108.31C12.1046 86.6085 21.2496 66.0362 36.6973 50.5884C53.2886 33.9971 75.7912 24.6763 99.2548 24.6763C122.718 24.6763 145.221 33.9972 161.812 50.5884C177.26 66.0362 186.405 86.6085 187.592 108.31C187.738 110.978 189.89 113.146 192.562 113.146Z"/>
</mask>
<path d="M192.562 113.146C195.235 113.146 197.413 110.978 197.282 108.31C196.085 84.0404 185.917 61.009 168.654 43.7463C150.248 25.3403 125.285 15 99.2548 15C73.2249 15 48.2611 25.3403 29.8552 43.7463C12.5924 61.009 2.42444 84.0404 1.228 108.31C1.09644 110.978 3.275 113.146 5.94703 113.146C8.61906 113.146 10.7714 110.978 10.9173 108.31C12.1046 86.6085 21.2496 66.0362 36.6973 50.5884C53.2886 33.9971 75.7912 24.6763 99.2548 24.6763C122.718 24.6763 145.221 33.9972 161.812 50.5884C177.26 66.0362 186.405 86.6085 187.592 108.31C187.738 110.978 189.89 113.146 192.562 113.146Z" stroke="white" stroke-width="16.5387" stroke-linejoin="round" mask="url(#path-3-inside-1_371_5257)"/>
<mask id="path-4-inside-2_371_5257" fill="white">
<path d="M192.872 114.957C193.973 114.957 194.868 114.064 194.846 112.962C194.523 96.8841 190.29 81.1259 182.512 67.1004C174.747 53.0981 163.702 41.277 150.37 32.6802C149.423 32.0695 148.165 32.3811 147.589 33.3497C147.025 34.298 147.328 35.5215 148.255 36.1197C161.022 44.3574 171.601 55.6811 179.038 69.093C186.478 82.5105 190.534 97.5824 190.857 112.962C190.88 114.064 191.771 114.957 192.872 114.957Z"/>
</mask>
<path d="M192.872 114.957C193.973 114.957 194.868 114.064 194.846 112.962C194.523 96.8841 190.29 81.1259 182.512 67.1004C174.747 53.0981 163.702 41.277 150.37 32.6802C149.423 32.0695 148.165 32.3811 147.589 33.3497C147.025 34.298 147.328 35.5215 148.255 36.1197C161.022 44.3574 171.601 55.6811 179.038 69.093C186.478 82.5105 190.534 97.5824 190.857 112.962C190.88 114.064 191.771 114.957 192.872 114.957Z" stroke="#62DC6F" stroke-width="18.3764" stroke-linejoin="round" mask="url(#path-4-inside-2_371_5257)"/>
<mask id="path-5-inside-3_371_5257" fill="white">
<path d="M48.6562 34.5532C48.0576 33.5986 46.792 33.3173 45.8601 33.9505C33.1274 42.6018 22.6108 54.2379 15.2034 67.8908C7.78333 81.5671 3.71019 96.8485 3.31458 112.444C3.28665 113.545 4.17673 114.443 5.27801 114.449C6.37956 114.455 7.27515 113.566 7.30406 112.465C7.69562 97.5478 11.5979 82.9329 18.6957 69.8506C25.7909 56.7731 35.8626 45.6264 48.0563 37.3368C48.9682 36.7168 49.242 35.4873 48.6562 34.5532Z"/>
</mask>
<path d="M48.6562 34.5532C48.0576 33.5986 46.792 33.3173 45.8601 33.9505C33.1274 42.6018 22.6108 54.2379 15.2034 67.8908C7.78333 81.5671 3.71019 96.8485 3.31458 112.444C3.28665 113.545 4.17673 114.443 5.27801 114.449C6.37956 114.455 7.27515 113.566 7.30406 112.465C7.69562 97.5478 11.5979 82.9329 18.6957 69.8506C25.7909 56.7731 35.8626 45.6264 48.0563 37.3368C48.9682 36.7168 49.242 35.4873 48.6562 34.5532Z" stroke="#FF9C00" stroke-width="18.3764" stroke-linejoin="round" mask="url(#path-5-inside-3_371_5257)"/>
<mask id="path-6-inside-4_371_5257" fill="white">
<path d="M144.794 32.0892C145.434 30.9282 145.025 29.4649 143.857 28.8368C129.662 21.2015 113.793 17.3122 97.7108 17.545C81.6272 17.7779 65.8734 22.1257 51.8964 30.1699C50.7481 30.8308 50.3809 32.3039 51.0535 33.4455C51.7404 34.6114 53.2473 34.9863 54.4215 34.3138C67.6582 26.7329 82.5633 22.6359 97.779 22.4156C112.994 22.1953 128.008 25.8589 141.451 33.0532C142.644 33.6918 144.14 33.2741 144.794 32.0892Z"/>
</mask>
<path d="M144.794 32.0892C145.434 30.9282 145.025 29.4649 143.857 28.8368C129.662 21.2015 113.793 17.3122 97.7108 17.545C81.6272 17.7779 65.8734 22.1257 51.8964 30.1699C50.7481 30.8308 50.3809 32.3039 51.0535 33.4455C51.7404 34.6114 53.2473 34.9863 54.4215 34.3138C67.6582 26.7329 82.5633 22.6359 97.779 22.4156C112.994 22.1953 128.008 25.8589 141.451 33.0532C142.644 33.6918 144.14 33.2741 144.794 32.0892Z" stroke="#FFCE64" stroke-width="18.3764" stroke-linejoin="round" mask="url(#path-6-inside-4_371_5257)"/>
<circle cx="105.708" cy="19.7081" r="4.7081" fill="#F8C016"/>
<circle cx="105.708" cy="19.7081" r="2.17297" fill="white"/>
<path d="M112.497 12.1193C111.929 12.1193 111.42 12.0128 110.972 11.7997C110.523 11.5838 110.166 11.2884 109.902 10.9134C109.641 10.5384 109.501 10.1094 109.484 9.62642H111.018C111.047 9.98437 111.202 10.277 111.483 10.5043C111.764 10.7287 112.102 10.8409 112.497 10.8409C112.807 10.8409 113.082 10.7699 113.324 10.6278C113.565 10.4858 113.756 10.2884 113.895 10.0355C114.034 9.78267 114.102 9.49432 114.099 9.17045C114.102 8.84091 114.033 8.5483 113.891 8.29261C113.749 8.03693 113.554 7.83665 113.307 7.69176C113.06 7.54403 112.776 7.47017 112.455 7.47017C112.193 7.46733 111.936 7.51562 111.683 7.61506C111.43 7.71449 111.23 7.84517 111.082 8.0071L109.655 7.77273L110.111 3.27273H115.173V4.59375H111.419L111.168 6.90767H111.219C111.381 6.71733 111.609 6.55966 111.905 6.43466C112.2 6.30682 112.524 6.2429 112.876 6.2429C113.405 6.2429 113.876 6.3679 114.291 6.6179C114.706 6.86506 115.033 7.20597 115.271 7.64062C115.51 8.07528 115.629 8.57244 115.629 9.1321C115.629 9.70881 115.496 10.223 115.229 10.6747C114.964 11.1236 114.597 11.4773 114.125 11.7358C113.656 11.9915 113.114 12.1193 112.497 12.1193ZM120.091 12.1193C119.523 12.1193 119.014 12.0128 118.565 11.7997C118.116 11.5838 117.76 11.2884 117.496 10.9134C117.234 10.5384 117.095 10.1094 117.078 9.62642H118.612C118.641 9.98437 118.795 10.277 119.077 10.5043C119.358 10.7287 119.696 10.8409 120.091 10.8409C120.401 10.8409 120.676 10.7699 120.918 10.6278C121.159 10.4858 121.349 10.2884 121.489 10.0355C121.628 9.78267 121.696 9.49432 121.693 9.17045C121.696 8.84091 121.626 8.5483 121.484 8.29261C121.342 8.03693 121.148 7.83665 120.901 7.69176C120.653 7.54403 120.369 7.47017 120.048 7.47017C119.787 7.46733 119.53 7.51562 119.277 7.61506C119.024 7.71449 118.824 7.84517 118.676 8.0071L117.249 7.77273L117.705 3.27273H122.767V4.59375H119.013L118.761 6.90767H118.812C118.974 6.71733 119.203 6.55966 119.499 6.43466C119.794 6.30682 120.118 6.2429 120.47 6.2429C120.999 6.2429 121.47 6.3679 121.885 6.6179C122.3 6.86506 122.626 7.20597 122.865 7.64062C123.104 8.07528 123.223 8.57244 123.223 9.1321C123.223 9.70881 123.089 10.223 122.822 10.6747C122.558 11.1236 122.19 11.4773 121.719 11.7358C121.25 11.9915 120.707 12.1193 120.091 12.1193ZM129.317 10.3636V9.90341C129.317 9.56534 129.388 9.25426 129.53 8.97017C129.675 8.68608 129.885 8.45739 130.161 8.28409C130.436 8.1108 130.77 8.02415 131.162 8.02415C131.565 8.02415 131.903 8.1108 132.176 8.28409C132.449 8.45455 132.655 8.68182 132.794 8.96591C132.936 9.25 133.007 9.5625 133.007 9.90341V10.3636C133.007 10.7017 132.936 11.0128 132.794 11.2969C132.652 11.581 132.443 11.8097 132.168 11.983C131.895 12.1563 131.56 12.2429 131.162 12.2429C130.764 12.2429 130.428 12.1563 130.152 11.983C129.876 11.8097 129.668 11.581 129.526 11.2969C129.386 11.0128 129.317 10.7017 129.317 10.3636ZM130.429 9.90341V10.3636C130.429 10.5881 130.483 10.794 130.591 10.9815C130.699 11.169 130.889 11.2628 131.162 11.2628C131.438 11.2628 131.626 11.1705 131.729 10.9858C131.834 10.7983 131.886 10.5909 131.886 10.3636V9.90341C131.886 9.67614 131.837 9.46875 131.737 9.28125C131.638 9.09091 131.446 8.99574 131.162 8.99574C130.895 8.99574 130.706 9.09091 130.595 9.28125C130.484 9.46875 130.429 9.67614 130.429 9.90341ZM124.881 5.36932V4.90909C124.881 4.56818 124.953 4.25568 125.098 3.97159C125.243 3.6875 125.453 3.46023 125.729 3.28977C126.004 3.11648 126.338 3.02983 126.73 3.02983C127.131 3.02983 127.467 3.11648 127.74 3.28977C128.016 3.46023 128.223 3.6875 128.362 3.97159C128.501 4.25568 128.571 4.56818 128.571 4.90909V5.36932C128.571 5.71023 128.5 6.02273 128.358 6.30682C128.219 6.58807 128.011 6.81392 127.736 6.98438C127.46 7.15483 127.125 7.24006 126.73 7.24006C126.33 7.24006 125.991 7.15483 125.716 6.98438C125.443 6.81392 125.236 6.58665 125.094 6.30256C124.952 6.01847 124.881 5.70739 124.881 5.36932ZM126.001 4.90909V5.36932C126.001 5.59659 126.054 5.80398 126.159 5.99148C126.267 6.17614 126.457 6.26847 126.73 6.26847C127.003 6.26847 127.19 6.17614 127.293 5.99148C127.398 5.80398 127.45 5.59659 127.45 5.36932V4.90909C127.45 4.68182 127.401 4.47443 127.301 4.28693C127.202 4.09659 127.011 4.00142 126.73 4.00142C126.46 4.00142 126.271 4.09659 126.163 4.28693C126.055 4.47727 126.001 4.68466 126.001 4.90909ZM125.366 12L131.366 3.27273H132.432L126.432 12H125.366Z" fill="#EFBA00"/>
<path d="M185.634 120.818V131H184.401V122.111H184.341L181.855 123.761V122.509L184.401 120.818H185.634ZM191.883 131.139C191.134 131.139 190.496 130.935 189.969 130.528C189.442 130.117 189.039 129.522 188.761 128.743C188.482 127.961 188.343 127.016 188.343 125.909C188.343 124.809 188.482 123.869 188.761 123.09C189.042 122.308 189.447 121.711 189.974 121.3C190.504 120.886 191.14 120.679 191.883 120.679C192.625 120.679 193.26 120.886 193.787 121.3C194.317 121.711 194.722 122.308 195 123.09C195.282 123.869 195.423 124.809 195.423 125.909C195.423 127.016 195.283 127.961 195.005 128.743C194.727 129.522 194.324 130.117 193.797 130.528C193.27 130.935 192.632 131.139 191.883 131.139ZM191.883 130.045C192.625 130.045 193.202 129.687 193.613 128.972C194.024 128.256 194.229 127.235 194.229 125.909C194.229 125.027 194.135 124.277 193.946 123.657C193.76 123.037 193.492 122.565 193.141 122.24C192.793 121.915 192.373 121.753 191.883 121.753C191.147 121.753 190.572 122.116 190.158 122.842C189.743 123.564 189.536 124.587 189.536 125.909C189.536 126.791 189.629 127.54 189.815 128.156C190 128.773 190.267 129.242 190.615 129.563C190.966 129.885 191.389 130.045 191.883 130.045ZM200.633 131.139C199.884 131.139 199.246 130.935 198.719 130.528C198.192 130.117 197.789 129.522 197.511 128.743C197.232 127.961 197.093 127.016 197.093 125.909C197.093 124.809 197.232 123.869 197.511 123.09C197.792 122.308 198.197 121.711 198.724 121.3C199.254 120.886 199.89 120.679 200.633 120.679C201.375 120.679 202.01 120.886 202.537 121.3C203.067 121.711 203.472 122.308 203.75 123.09C204.032 123.869 204.173 124.809 204.173 125.909C204.173 127.016 204.033 127.961 203.755 128.743C203.477 129.522 203.074 130.117 202.547 130.528C202.02 130.935 201.382 131.139 200.633 131.139ZM200.633 130.045C201.375 130.045 201.952 129.687 202.363 128.972C202.774 128.256 202.979 127.235 202.979 125.909C202.979 125.027 202.885 124.277 202.696 123.657C202.51 123.037 202.242 122.565 201.891 122.24C201.543 121.915 201.123 121.753 200.633 121.753C199.897 121.753 199.322 122.116 198.908 122.842C198.493 123.564 198.286 124.587 198.286 125.909C198.286 126.791 198.379 127.54 198.565 128.156C198.75 128.773 199.017 129.242 199.365 129.563C199.716 129.885 200.139 130.045 200.633 130.045Z" fill="#0ACF83"/>
<path d="M4.375 131.139C3.62595 131.139 2.98793 130.935 2.46094 130.528C1.93395 130.117 1.53125 129.522 1.25284 128.743C0.974432 127.961 0.835227 127.016 0.835227 125.909C0.835227 124.809 0.974432 123.869 1.25284 123.09C1.53456 122.308 1.93892 121.711 2.46591 121.3C2.99621 120.886 3.63258 120.679 4.375 120.679C5.11742 120.679 5.75213 120.886 6.27912 121.3C6.80942 121.711 7.21378 122.308 7.49219 123.09C7.77391 123.869 7.91477 124.809 7.91477 125.909C7.91477 127.016 7.77557 127.961 7.49716 128.743C7.21875 129.522 6.81605 130.117 6.28906 130.528C5.76207 130.935 5.12405 131.139 4.375 131.139ZM4.375 130.045C5.11742 130.045 5.69413 129.687 6.10511 128.972C6.5161 128.256 6.72159 127.235 6.72159 125.909C6.72159 125.027 6.62713 124.277 6.43821 123.657C6.2526 123.037 5.98414 122.565 5.63281 122.24C5.2848 121.915 4.86553 121.753 4.375 121.753C3.6392 121.753 3.06416 122.116 2.64986 122.842C2.23556 123.564 2.02841 124.587 2.02841 125.909C2.02841 126.791 2.12121 127.54 2.30682 128.156C2.49242 128.773 2.75923 129.242 3.10724 129.563C3.45857 129.885 3.88116 130.045 4.375 130.045Z" fill="#FFC260"/>
</svg>
