<svg width="258" height="198" viewBox="0 0 258 198" fill="none" xmlns="http://www.w3.org/2000/svg">
<path d="M74.7735 153.818V164H73.5406V153.818H74.7735ZM78.2599 159.406V164H77.0866V156.364H78.2201V157.557H78.3195C78.4985 157.169 78.7703 156.857 79.1349 156.622C79.4994 156.384 79.9701 156.264 80.5468 156.264C81.0638 156.264 81.5162 156.37 81.904 156.582C82.2918 156.791 82.5934 157.109 82.8089 157.537C83.0243 157.961 83.132 158.498 83.132 159.148V164H81.9587V159.227C81.9587 158.627 81.8029 158.16 81.4914 157.825C81.1798 157.487 80.7523 157.318 80.2087 157.318C79.8342 157.318 79.4994 157.399 79.2045 157.562C78.9128 157.724 78.6824 157.961 78.5134 158.273C78.3444 158.584 78.2599 158.962 78.2599 159.406ZM90.6851 158.074L89.6311 158.372C89.5648 158.196 89.4671 158.026 89.3378 157.86C89.2119 157.691 89.0395 157.552 88.8208 157.442C88.602 157.333 88.3219 157.278 87.9806 157.278C87.5132 157.278 87.1238 157.386 86.8122 157.602C86.504 157.814 86.3499 158.084 86.3499 158.412C86.3499 158.704 86.4559 158.934 86.6681 159.103C86.8802 159.272 87.2116 159.413 87.6624 159.526L88.7959 159.804C89.4787 159.97 89.9874 160.223 90.3222 160.565C90.6569 160.903 90.8243 161.339 90.8243 161.872C90.8243 162.31 90.6984 162.701 90.4465 163.045C90.1979 163.39 89.8499 163.662 89.4024 163.861C88.955 164.06 88.4346 164.159 87.8414 164.159C87.0625 164.159 86.4178 163.99 85.9074 163.652C85.397 163.314 85.0738 162.82 84.9379 162.17L86.0516 161.892C86.1576 162.303 86.3582 162.611 86.6531 162.817C86.9514 163.022 87.3409 163.125 87.8215 163.125C88.3683 163.125 88.8025 163.009 89.124 162.777C89.4488 162.542 89.6112 162.26 89.6112 161.932C89.6112 161.667 89.5184 161.445 89.3328 161.266C89.1472 161.083 88.8622 160.947 88.4777 160.858L87.205 160.56C86.5057 160.394 85.9919 160.137 85.6638 159.789C85.339 159.438 85.1766 158.999 85.1766 158.472C85.1766 158.041 85.2976 157.66 85.5395 157.328C85.7848 156.997 86.1179 156.737 86.5388 156.548C86.963 156.359 87.4436 156.264 87.9806 156.264C88.7362 156.264 89.3295 156.43 89.7604 156.761C90.1946 157.093 90.5028 157.53 90.6851 158.074ZM92.5905 164V156.364H93.7638V164H92.5905ZM93.1871 155.091C92.9584 155.091 92.7612 155.013 92.5954 154.857C92.433 154.701 92.3518 154.514 92.3518 154.295C92.3518 154.077 92.433 153.889 92.5954 153.734C92.7612 153.578 92.9584 153.5 93.1871 153.5C93.4157 153.5 93.6113 153.578 93.7737 153.734C93.9394 153.889 94.0223 154.077 94.0223 154.295C94.0223 154.514 93.9394 154.701 93.7737 154.857C93.6113 155.013 93.4157 155.091 93.1871 155.091ZM98.7963 164.159C98.1599 164.159 97.5981 163.998 97.1109 163.677C96.6237 163.352 96.2425 162.895 95.9674 162.305C95.6923 161.711 95.5548 161.01 95.5548 160.202C95.5548 159.4 95.6923 158.704 95.9674 158.114C96.2425 157.524 96.6253 157.068 97.1159 156.746C97.6064 156.425 98.1731 156.264 98.8161 156.264C99.3133 156.264 99.7061 156.347 99.9944 156.513C100.286 156.675 100.508 156.861 100.661 157.07C100.816 157.275 100.937 157.444 101.024 157.577H101.123V153.818H102.296V164H101.163V162.827H101.024C100.937 162.966 100.815 163.142 100.656 163.354C100.497 163.562 100.27 163.75 99.9745 163.915C99.6795 164.078 99.2868 164.159 98.7963 164.159ZM98.9553 163.105C99.426 163.105 99.8237 162.982 100.149 162.737C100.473 162.489 100.72 162.146 100.889 161.708C101.058 161.267 101.143 160.759 101.143 160.182C101.143 159.612 101.06 159.113 100.894 158.685C100.729 158.254 100.483 157.92 100.158 157.681C99.8337 157.439 99.4326 157.318 98.9553 157.318C98.4582 157.318 98.0439 157.446 97.7124 157.701C97.3843 157.953 97.1374 158.296 96.9717 158.73C96.8093 159.161 96.7281 159.645 96.7281 160.182C96.7281 160.725 96.8109 161.219 96.9767 161.663C97.1457 162.104 97.3943 162.455 97.7224 162.717C98.0538 162.976 98.4648 163.105 98.9553 163.105ZM107.81 164.159C107.074 164.159 106.439 163.997 105.906 163.672C105.375 163.344 104.966 162.886 104.678 162.3C104.393 161.71 104.25 161.024 104.25 160.241C104.25 159.459 104.393 158.77 104.678 158.173C104.966 157.573 105.367 157.106 105.881 156.771C106.398 156.433 107.001 156.264 107.69 156.264C108.088 156.264 108.481 156.33 108.869 156.463C109.256 156.596 109.609 156.811 109.928 157.109C110.246 157.404 110.499 157.795 110.688 158.283C110.877 158.77 110.972 159.37 110.972 160.082V160.58H105.085V159.565H109.778C109.778 159.134 109.692 158.75 109.52 158.412C109.351 158.074 109.109 157.807 108.794 157.612C108.483 157.416 108.115 157.318 107.69 157.318C107.223 157.318 106.819 157.434 106.477 157.666C106.139 157.895 105.879 158.193 105.697 158.561C105.515 158.929 105.423 159.323 105.423 159.744V160.42C105.423 160.997 105.523 161.486 105.722 161.887C105.924 162.285 106.204 162.588 106.562 162.797C106.92 163.002 107.336 163.105 107.81 163.105C108.118 163.105 108.396 163.062 108.645 162.976C108.897 162.886 109.114 162.754 109.296 162.578C109.479 162.399 109.619 162.177 109.719 161.912L110.852 162.23C110.733 162.615 110.533 162.953 110.251 163.244C109.969 163.533 109.621 163.758 109.207 163.92C108.792 164.08 108.327 164.159 107.81 164.159ZM117.867 153.818V164H116.694V153.818H117.867ZM123.218 164.159C122.482 164.159 121.847 163.997 121.314 163.672C120.784 163.344 120.374 162.886 120.086 162.3C119.801 161.71 119.658 161.024 119.658 160.241C119.658 159.459 119.801 158.77 120.086 158.173C120.374 157.573 120.775 157.106 121.289 156.771C121.806 156.433 122.409 156.264 123.099 156.264C123.496 156.264 123.889 156.33 124.277 156.463C124.665 156.596 125.018 156.811 125.336 157.109C125.654 157.404 125.908 157.795 126.097 158.283C126.285 158.77 126.38 159.37 126.38 160.082V160.58H120.494V159.565H125.187C125.187 159.134 125.101 158.75 124.928 158.412C124.759 158.074 124.517 157.807 124.202 157.612C123.891 157.416 123.523 157.318 123.099 157.318C122.631 157.318 122.227 157.434 121.886 157.666C121.547 157.895 121.287 158.193 121.105 158.561C120.923 158.929 120.832 159.323 120.832 159.744V160.42C120.832 160.997 120.931 161.486 121.13 161.887C121.332 162.285 121.612 162.588 121.97 162.797C122.328 163.002 122.744 163.105 123.218 163.105C123.526 163.105 123.805 163.062 124.053 162.976C124.305 162.886 124.522 162.754 124.704 162.578C124.887 162.399 125.028 162.177 125.127 161.912L126.261 162.23C126.141 162.615 125.941 162.953 125.659 163.244C125.377 163.533 125.029 163.758 124.615 163.92C124.201 164.08 123.735 164.159 123.218 164.159ZM131.247 167.023C130.68 167.023 130.193 166.95 129.785 166.804C129.378 166.661 129.038 166.473 128.766 166.237C128.498 166.005 128.284 165.757 128.125 165.491L129.06 164.835C129.166 164.974 129.3 165.134 129.462 165.312C129.625 165.495 129.847 165.652 130.128 165.785C130.414 165.921 130.786 165.989 131.247 165.989C131.864 165.989 132.372 165.839 132.773 165.541C133.174 165.243 133.375 164.776 133.375 164.139V162.588H133.275C133.189 162.727 133.067 162.9 132.908 163.105C132.752 163.307 132.526 163.488 132.231 163.647C131.94 163.803 131.545 163.881 131.048 163.881C130.432 163.881 129.878 163.735 129.388 163.443C128.9 163.152 128.514 162.727 128.229 162.17C127.948 161.614 127.807 160.937 127.807 160.142C127.807 159.36 127.944 158.679 128.219 158.099C128.494 157.515 128.877 157.065 129.368 156.746C129.858 156.425 130.425 156.264 131.068 156.264C131.565 156.264 131.96 156.347 132.251 156.513C132.546 156.675 132.772 156.861 132.927 157.07C133.087 157.275 133.209 157.444 133.295 157.577H133.415V156.364H134.548V164.219C134.548 164.875 134.399 165.409 134.101 165.82C133.806 166.234 133.408 166.537 132.908 166.729C132.41 166.925 131.857 167.023 131.247 167.023ZM131.207 162.827C131.678 162.827 132.076 162.719 132.4 162.504C132.725 162.288 132.972 161.978 133.141 161.574C133.31 161.17 133.395 160.686 133.395 160.122C133.395 159.572 133.312 159.086 133.146 158.665C132.98 158.245 132.735 157.915 132.41 157.676C132.086 157.437 131.685 157.318 131.207 157.318C130.71 157.318 130.296 157.444 129.964 157.696C129.636 157.948 129.389 158.286 129.224 158.71C129.061 159.134 128.98 159.605 128.98 160.122C128.98 160.652 129.063 161.121 129.229 161.529C129.398 161.933 129.646 162.252 129.974 162.484C130.306 162.712 130.717 162.827 131.207 162.827ZM138.943 164.179C138.459 164.179 138.02 164.088 137.626 163.906C137.231 163.72 136.918 163.453 136.686 163.105C136.454 162.754 136.338 162.33 136.338 161.832C136.338 161.395 136.424 161.04 136.597 160.768C136.769 160.493 136.999 160.278 137.288 160.122C137.576 159.966 137.894 159.85 138.242 159.774C138.593 159.695 138.946 159.632 139.301 159.585C139.765 159.526 140.141 159.481 140.43 159.451C140.721 159.418 140.933 159.363 141.066 159.287C141.202 159.211 141.27 159.078 141.27 158.889V158.849C141.27 158.359 141.136 157.978 140.867 157.706C140.602 157.434 140.199 157.298 139.659 157.298C139.099 157.298 138.66 157.421 138.342 157.666C138.023 157.911 137.8 158.173 137.67 158.452L136.557 158.054C136.756 157.59 137.021 157.229 137.352 156.97C137.687 156.708 138.052 156.526 138.446 156.423C138.844 156.317 139.235 156.264 139.619 156.264C139.864 156.264 140.146 156.294 140.464 156.354C140.786 156.41 141.096 156.528 141.394 156.707C141.696 156.886 141.946 157.156 142.145 157.517C142.344 157.878 142.443 158.362 142.443 158.969V164H141.27V162.966H141.21C141.131 163.132 140.998 163.309 140.812 163.498C140.627 163.687 140.38 163.848 140.072 163.98C139.763 164.113 139.387 164.179 138.943 164.179ZM139.122 163.125C139.586 163.125 139.977 163.034 140.295 162.852C140.617 162.669 140.859 162.434 141.021 162.146C141.187 161.857 141.27 161.554 141.27 161.236V160.162C141.22 160.222 141.111 160.276 140.942 160.326C140.776 160.372 140.584 160.414 140.365 160.45C140.15 160.483 139.939 160.513 139.734 160.54C139.531 160.563 139.367 160.583 139.241 160.599C138.936 160.639 138.651 160.704 138.386 160.793C138.124 160.879 137.912 161.01 137.75 161.186C137.591 161.358 137.511 161.594 137.511 161.892C137.511 162.3 137.662 162.608 137.964 162.817C138.269 163.022 138.655 163.125 139.122 163.125ZM145.758 153.818V164H144.585V153.818H145.758ZM157.253 158.074L156.199 158.372C156.133 158.196 156.035 158.026 155.906 157.86C155.78 157.691 155.608 157.552 155.389 157.442C155.17 157.333 154.89 157.278 154.549 157.278C154.082 157.278 153.692 157.386 153.381 157.602C153.072 157.814 152.918 158.084 152.918 158.412C152.918 158.704 153.024 158.934 153.236 159.103C153.449 159.272 153.78 159.413 154.231 159.526L155.364 159.804C156.047 159.97 156.556 160.223 156.891 160.565C157.225 160.903 157.393 161.339 157.393 161.872C157.393 162.31 157.267 162.701 157.015 163.045C156.766 163.39 156.418 163.662 155.971 163.861C155.523 164.06 155.003 164.159 154.41 164.159C153.631 164.159 152.986 163.99 152.476 163.652C151.965 163.314 151.642 162.82 151.506 162.17L152.62 161.892C152.726 162.303 152.927 162.611 153.222 162.817C153.52 163.022 153.909 163.125 154.39 163.125C154.937 163.125 155.371 163.009 155.692 162.777C156.017 162.542 156.18 162.26 156.18 161.932C156.18 161.667 156.087 161.445 155.901 161.266C155.716 161.083 155.431 160.947 155.046 160.858L153.773 160.56C153.074 160.394 152.56 160.137 152.232 159.789C151.907 159.438 151.745 158.999 151.745 158.472C151.745 158.041 151.866 157.66 152.108 157.328C152.353 156.997 152.686 156.737 153.107 156.548C153.531 156.359 154.012 156.264 154.549 156.264C155.305 156.264 155.898 156.43 156.329 156.761C156.763 157.093 157.071 157.53 157.253 158.074ZM159.159 166.864V156.364H160.292V157.577H160.432C160.518 157.444 160.637 157.275 160.79 157.07C160.945 156.861 161.167 156.675 161.456 156.513C161.747 156.347 162.142 156.264 162.639 156.264C163.282 156.264 163.849 156.425 164.339 156.746C164.83 157.068 165.213 157.524 165.488 158.114C165.763 158.704 165.9 159.4 165.9 160.202C165.9 161.01 165.763 161.711 165.488 162.305C165.213 162.895 164.831 163.352 164.344 163.677C163.857 163.998 163.295 164.159 162.659 164.159C162.168 164.159 161.776 164.078 161.481 163.915C161.186 163.75 160.959 163.562 160.799 163.354C160.64 163.142 160.518 162.966 160.432 162.827H160.332V166.864H159.159ZM160.312 160.182C160.312 160.759 160.397 161.267 160.566 161.708C160.735 162.146 160.982 162.489 161.307 162.737C161.631 162.982 162.029 163.105 162.5 163.105C162.99 163.105 163.4 162.976 163.728 162.717C164.059 162.455 164.308 162.104 164.473 161.663C164.642 161.219 164.727 160.725 164.727 160.182C164.727 159.645 164.644 159.161 164.478 158.73C164.316 158.296 164.069 157.953 163.738 157.701C163.41 157.446 162.997 157.318 162.5 157.318C162.022 157.318 161.621 157.439 161.297 157.681C160.972 157.92 160.727 158.254 160.561 158.685C160.395 159.113 160.312 159.612 160.312 160.182ZM170.892 164.159C170.156 164.159 169.521 163.997 168.988 163.672C168.457 163.344 168.048 162.886 167.76 162.3C167.475 161.71 167.332 161.024 167.332 160.241C167.332 159.459 167.475 158.77 167.76 158.173C168.048 157.573 168.449 157.106 168.963 156.771C169.48 156.433 170.083 156.264 170.772 156.264C171.17 156.264 171.563 156.33 171.951 156.463C172.339 156.596 172.691 156.811 173.01 157.109C173.328 157.404 173.581 157.795 173.77 158.283C173.959 158.77 174.054 159.37 174.054 160.082V160.58H168.167V159.565H172.861C172.861 159.134 172.774 158.75 172.602 158.412C172.433 158.074 172.191 157.807 171.876 157.612C171.565 157.416 171.197 157.318 170.772 157.318C170.305 157.318 169.901 157.434 169.559 157.666C169.221 157.895 168.961 158.193 168.779 158.561C168.597 158.929 168.505 159.323 168.505 159.744V160.42C168.505 160.997 168.605 161.486 168.804 161.887C169.006 162.285 169.286 162.588 169.644 162.797C170.002 163.002 170.418 163.105 170.892 163.105C171.2 163.105 171.478 163.062 171.727 162.976C171.979 162.886 172.196 162.754 172.378 162.578C172.561 162.399 172.701 162.177 172.801 161.912L173.934 162.23C173.815 162.615 173.615 162.953 173.333 163.244C173.051 163.533 172.703 163.758 172.289 163.92C171.874 164.08 171.409 164.159 170.892 164.159ZM177.012 159.406V164H175.839V156.364H176.972V157.557H177.071C177.25 157.169 177.522 156.857 177.887 156.622C178.251 156.384 178.722 156.264 179.299 156.264C179.816 156.264 180.268 156.37 180.656 156.582C181.044 156.791 181.345 157.109 181.561 157.537C181.776 157.961 181.884 158.498 181.884 159.148V164H180.711V159.227C180.711 158.627 180.555 158.16 180.243 157.825C179.932 157.487 179.504 157.318 178.961 157.318C178.586 157.318 178.251 157.399 177.956 157.562C177.665 157.724 177.434 157.961 177.265 158.273C177.096 158.584 177.012 158.962 177.012 159.406ZM186.911 164.159C186.275 164.159 185.713 163.998 185.226 163.677C184.739 163.352 184.358 162.895 184.083 162.305C183.808 161.711 183.67 161.01 183.67 160.202C183.67 159.4 183.808 158.704 184.083 158.114C184.358 157.524 184.741 157.068 185.231 156.746C185.722 156.425 186.288 156.264 186.931 156.264C187.429 156.264 187.821 156.347 188.11 156.513C188.401 156.675 188.623 156.861 188.776 157.07C188.932 157.275 189.053 157.444 189.139 157.577H189.238V153.818H190.411V164H189.278V162.827H189.139C189.053 162.966 188.93 163.142 188.771 163.354C188.612 163.562 188.385 163.75 188.09 163.915C187.795 164.078 187.402 164.159 186.911 164.159ZM187.071 163.105C187.541 163.105 187.939 162.982 188.264 162.737C188.589 162.489 188.835 162.146 189.005 161.708C189.174 161.267 189.258 160.759 189.258 160.182C189.258 159.612 189.175 159.113 189.009 158.685C188.844 158.254 188.599 157.92 188.274 157.681C187.949 157.439 187.548 157.318 187.071 157.318C186.573 157.318 186.159 157.446 185.828 157.701C185.5 157.953 185.253 158.296 185.087 158.73C184.925 159.161 184.843 159.645 184.843 160.182C184.843 160.725 184.926 161.219 185.092 161.663C185.261 162.104 185.509 162.455 185.838 162.717C186.169 162.976 186.58 163.105 187.071 163.105ZM192.723 164V156.364H193.897V164H192.723ZM193.32 155.091C193.091 155.091 192.894 155.013 192.728 154.857C192.566 154.701 192.485 154.514 192.485 154.295C192.485 154.077 192.566 153.889 192.728 153.734C192.894 153.578 193.091 153.5 193.32 153.5C193.549 153.5 193.744 153.578 193.907 153.734C194.072 153.889 194.155 154.077 194.155 154.295C194.155 154.514 194.072 154.701 193.907 154.857C193.744 155.013 193.549 155.091 193.32 155.091ZM197.219 159.406V164H196.046V156.364H197.179V157.557H197.278C197.457 157.169 197.729 156.857 198.094 156.622C198.458 156.384 198.929 156.264 199.506 156.264C200.023 156.264 200.475 156.37 200.863 156.582C201.251 156.791 201.552 157.109 201.768 157.537C201.983 157.961 202.091 158.498 202.091 159.148V164H200.918V159.227C200.918 158.627 200.762 158.16 200.45 157.825C200.139 157.487 199.711 157.318 199.168 157.318C198.793 157.318 198.458 157.399 198.163 157.562C197.872 157.724 197.641 157.961 197.472 158.273C197.303 158.584 197.219 158.962 197.219 159.406ZM207.317 167.023C206.751 167.023 206.263 166.95 205.856 166.804C205.448 166.661 205.108 166.473 204.837 166.237C204.568 166.005 204.354 165.757 204.195 165.491L205.13 164.835C205.236 164.974 205.37 165.134 205.533 165.312C205.695 165.495 205.917 165.652 206.199 165.785C206.484 165.921 206.857 165.989 207.317 165.989C207.934 165.989 208.443 165.839 208.844 165.541C209.245 165.243 209.445 164.776 209.445 164.139V162.588H209.346C209.26 162.727 209.137 162.9 208.978 163.105C208.822 163.307 208.597 163.488 208.302 163.647C208.01 163.803 207.616 163.881 207.119 163.881C206.502 163.881 205.949 163.735 205.458 163.443C204.971 163.152 204.585 162.727 204.3 162.17C204.018 161.614 203.877 160.937 203.877 160.142C203.877 159.36 204.015 158.679 204.29 158.099C204.565 157.515 204.948 157.065 205.438 156.746C205.929 156.425 206.495 156.264 207.138 156.264C207.636 156.264 208.03 156.347 208.322 156.513C208.617 156.675 208.842 156.861 208.998 157.07C209.157 157.275 209.28 157.444 209.366 157.577H209.485V156.364H210.619V164.219C210.619 164.875 210.469 165.409 210.171 165.82C209.876 166.234 209.478 166.537 208.978 166.729C208.481 166.925 207.927 167.023 207.317 167.023ZM207.278 162.827C207.748 162.827 208.146 162.719 208.471 162.504C208.796 162.288 209.043 161.978 209.212 161.574C209.381 161.17 209.465 160.686 209.465 160.122C209.465 159.572 209.382 159.086 209.217 158.665C209.051 158.245 208.806 157.915 208.481 157.676C208.156 157.437 207.755 157.318 207.278 157.318C206.78 157.318 206.366 157.444 206.035 157.696C205.707 157.948 205.46 158.286 205.294 158.71C205.132 159.134 205.05 159.605 205.05 160.122C205.05 160.652 205.133 161.121 205.299 161.529C205.468 161.933 205.717 162.252 206.045 162.484C206.376 162.712 206.787 162.827 207.278 162.827ZM102.73 182V171.818H103.903V175.577H104.003C104.089 175.444 104.208 175.275 104.361 175.07C104.516 174.861 104.739 174.675 105.027 174.513C105.319 174.347 105.713 174.264 106.21 174.264C106.853 174.264 107.42 174.425 107.91 174.746C108.401 175.068 108.784 175.524 109.059 176.114C109.334 176.704 109.472 177.4 109.472 178.202C109.472 179.01 109.334 179.711 109.059 180.305C108.784 180.895 108.403 181.352 107.915 181.677C107.428 181.998 106.866 182.159 106.23 182.159C105.739 182.159 105.347 182.078 105.052 181.915C104.757 181.75 104.53 181.562 104.371 181.354C104.212 181.142 104.089 180.966 104.003 180.827H103.864V182H102.73ZM103.883 178.182C103.883 178.759 103.968 179.267 104.137 179.708C104.306 180.146 104.553 180.489 104.878 180.737C105.203 180.982 105.6 181.105 106.071 181.105C106.561 181.105 106.971 180.976 107.299 180.717C107.63 180.455 107.879 180.104 108.045 179.663C108.214 179.219 108.298 178.725 108.298 178.182C108.298 177.645 108.215 177.161 108.05 176.73C107.887 176.296 107.64 175.953 107.309 175.701C106.981 175.446 106.568 175.318 106.071 175.318C105.594 175.318 105.193 175.439 104.868 175.681C104.543 175.92 104.298 176.254 104.132 176.685C103.966 177.113 103.883 177.612 103.883 178.182ZM114.468 182.159C113.732 182.159 113.097 181.997 112.564 181.672C112.034 181.344 111.624 180.886 111.336 180.3C111.051 179.71 110.908 179.024 110.908 178.241C110.908 177.459 111.051 176.77 111.336 176.173C111.624 175.573 112.025 175.106 112.539 174.771C113.056 174.433 113.659 174.264 114.349 174.264C114.746 174.264 115.139 174.33 115.527 174.463C115.915 174.596 116.268 174.811 116.586 175.109C116.904 175.404 117.158 175.795 117.347 176.283C117.535 176.77 117.63 177.37 117.63 178.082V178.58H111.744V177.565H116.437C116.437 177.134 116.351 176.75 116.178 176.412C116.009 176.074 115.767 175.807 115.452 175.612C115.141 175.416 114.773 175.318 114.349 175.318C113.881 175.318 113.477 175.434 113.136 175.666C112.797 175.895 112.537 176.193 112.355 176.561C112.173 176.929 112.082 177.323 112.082 177.744V178.42C112.082 178.997 112.181 179.486 112.38 179.887C112.582 180.285 112.862 180.588 113.22 180.797C113.578 181.002 113.994 181.105 114.468 181.105C114.776 181.105 115.055 181.062 115.303 180.976C115.555 180.886 115.772 180.754 115.954 180.578C116.137 180.399 116.278 180.177 116.377 179.912L117.511 180.23C117.391 180.615 117.191 180.953 116.909 181.244C116.627 181.533 116.279 181.758 115.865 181.92C115.451 182.08 114.985 182.159 114.468 182.159ZM120.588 177.406V182H119.415V174.364H120.548V175.557H120.648C120.827 175.169 121.098 174.857 121.463 174.622C121.828 174.384 122.298 174.264 122.875 174.264C123.392 174.264 123.844 174.37 124.232 174.582C124.62 174.791 124.922 175.109 125.137 175.537C125.352 175.961 125.46 176.498 125.46 177.148V182H124.287V177.227C124.287 176.627 124.131 176.16 123.82 175.825C123.508 175.487 123.08 175.318 122.537 175.318C122.162 175.318 121.828 175.399 121.533 175.562C121.241 175.724 121.011 175.961 120.842 176.273C120.672 176.584 120.588 176.962 120.588 177.406ZM130.706 182.159C129.991 182.159 129.374 181.99 128.857 181.652C128.34 181.314 127.942 180.848 127.664 180.255C127.385 179.662 127.246 178.984 127.246 178.222C127.246 177.446 127.389 176.762 127.674 176.168C127.962 175.572 128.363 175.106 128.877 174.771C129.394 174.433 129.997 174.264 130.687 174.264C131.223 174.264 131.707 174.364 132.138 174.562C132.569 174.761 132.922 175.04 133.197 175.398C133.472 175.756 133.643 176.173 133.709 176.651H132.536C132.446 176.303 132.248 175.994 131.939 175.726C131.634 175.454 131.223 175.318 130.706 175.318C130.249 175.318 129.848 175.437 129.503 175.676C129.162 175.911 128.895 176.245 128.703 176.675C128.514 177.103 128.419 177.605 128.419 178.182C128.419 178.772 128.512 179.286 128.698 179.723C128.887 180.161 129.152 180.5 129.493 180.742C129.838 180.984 130.242 181.105 130.706 181.105C131.011 181.105 131.288 181.052 131.537 180.946C131.785 180.84 131.996 180.688 132.168 180.489C132.34 180.29 132.463 180.051 132.536 179.773H133.709C133.643 180.223 133.479 180.629 133.217 180.991C132.959 181.349 132.616 181.634 132.188 181.846C131.764 182.055 131.27 182.159 130.706 182.159ZM136.598 177.406V182H135.424V171.818H136.598V175.557H136.697C136.876 175.162 137.145 174.849 137.503 174.617C137.864 174.382 138.344 174.264 138.944 174.264C139.465 174.264 139.92 174.369 140.312 174.577C140.703 174.783 141.006 175.099 141.221 175.527C141.44 175.951 141.549 176.491 141.549 177.148V182H140.376V177.227C140.376 176.621 140.219 176.152 139.904 175.82C139.592 175.486 139.16 175.318 138.606 175.318C138.222 175.318 137.877 175.399 137.572 175.562C137.271 175.724 137.032 175.961 136.856 176.273C136.684 176.584 136.598 176.962 136.598 177.406ZM143.696 182V174.364H144.829V175.557H144.929C145.088 175.149 145.345 174.833 145.699 174.607C146.054 174.379 146.48 174.264 146.977 174.264C147.481 174.264 147.9 174.379 148.235 174.607C148.573 174.833 148.837 175.149 149.025 175.557H149.105C149.301 175.162 149.594 174.849 149.985 174.617C150.376 174.382 150.845 174.264 151.392 174.264C152.075 174.264 152.633 174.478 153.067 174.906C153.502 175.33 153.719 175.991 153.719 176.889V182H152.545V176.889C152.545 176.326 152.391 175.923 152.083 175.681C151.775 175.439 151.412 175.318 150.994 175.318C150.457 175.318 150.041 175.481 149.746 175.805C149.451 176.127 149.304 176.535 149.304 177.028V182H148.111V176.77C148.111 176.336 147.97 175.986 147.688 175.721C147.406 175.452 147.043 175.318 146.599 175.318C146.294 175.318 146.009 175.399 145.744 175.562C145.482 175.724 145.27 175.95 145.108 176.238C144.949 176.523 144.869 176.853 144.869 177.227V182H143.696ZM158.111 182.179C157.627 182.179 157.188 182.088 156.794 181.906C156.399 181.72 156.086 181.453 155.854 181.105C155.622 180.754 155.506 180.33 155.506 179.832C155.506 179.395 155.592 179.04 155.764 178.768C155.937 178.493 156.167 178.278 156.456 178.122C156.744 177.966 157.062 177.85 157.41 177.774C157.761 177.695 158.114 177.632 158.469 177.585C158.933 177.526 159.309 177.481 159.598 177.451C159.889 177.418 160.101 177.363 160.234 177.287C160.37 177.211 160.438 177.078 160.438 176.889V176.849C160.438 176.359 160.304 175.978 160.035 175.706C159.77 175.434 159.367 175.298 158.827 175.298C158.267 175.298 157.828 175.421 157.509 175.666C157.191 175.911 156.968 176.173 156.838 176.452L155.725 176.054C155.924 175.59 156.189 175.229 156.52 174.97C156.855 174.708 157.219 174.526 157.614 174.423C158.012 174.317 158.403 174.264 158.787 174.264C159.032 174.264 159.314 174.294 159.632 174.354C159.954 174.41 160.264 174.528 160.562 174.707C160.864 174.886 161.114 175.156 161.313 175.517C161.512 175.878 161.611 176.362 161.611 176.969V182H160.438V180.966H160.378C160.299 181.132 160.166 181.309 159.98 181.498C159.795 181.687 159.548 181.848 159.24 181.98C158.931 182.113 158.555 182.179 158.111 182.179ZM158.29 181.125C158.754 181.125 159.145 181.034 159.463 180.852C159.785 180.669 160.027 180.434 160.189 180.146C160.355 179.857 160.438 179.554 160.438 179.236V178.162C160.388 178.222 160.279 178.276 160.11 178.326C159.944 178.372 159.752 178.414 159.533 178.45C159.318 178.483 159.107 178.513 158.902 178.54C158.699 178.563 158.535 178.583 158.409 178.599C158.104 178.639 157.819 178.704 157.554 178.793C157.292 178.879 157.08 179.01 156.918 179.186C156.759 179.358 156.679 179.594 156.679 179.892C156.679 180.3 156.83 180.608 157.132 180.817C157.437 181.022 157.823 181.125 158.29 181.125ZM163.753 182V174.364H164.886V175.517H164.966C165.105 175.139 165.357 174.833 165.721 174.597C166.086 174.362 166.497 174.244 166.954 174.244C167.04 174.244 167.148 174.246 167.277 174.249C167.407 174.253 167.504 174.258 167.571 174.264V175.457C167.531 175.447 167.44 175.433 167.297 175.413C167.158 175.389 167.011 175.378 166.855 175.378C166.484 175.378 166.152 175.456 165.861 175.612C165.572 175.764 165.343 175.976 165.174 176.248C165.009 176.516 164.926 176.823 164.926 177.168V182H163.753ZM170.055 179.216L170.035 177.764H170.274L173.615 174.364H175.067L171.507 177.963H171.408L170.055 179.216ZM168.962 182V171.818H170.135V182H168.962ZM173.814 182L170.831 178.222L171.666 177.406L175.305 182H173.814ZM178.526 177.545L178.605 175.358L176.756 176.531L176.278 175.696L178.227 174.682L176.278 173.668L176.756 172.832L178.605 174.006L178.526 171.818H179.48L179.401 174.006L181.25 172.832L181.727 173.668L179.778 174.682L181.727 175.696L181.25 176.531L179.401 175.358L179.48 177.545H178.526Z" fill="#404040"/>
<path d="M117.132 141.222C116.196 141.222 115.393 140.985 114.723 140.511C114.056 140.034 113.543 139.347 113.183 138.449C112.827 137.547 112.649 136.462 112.649 135.193C112.653 133.924 112.833 132.845 113.189 131.955C113.549 131.061 114.062 130.379 114.729 129.909C115.399 129.439 116.2 129.205 117.132 129.205C118.064 129.205 118.865 129.439 119.536 129.909C120.206 130.379 120.719 131.061 121.075 131.955C121.435 132.848 121.615 133.928 121.615 135.193C121.615 136.466 121.435 137.553 121.075 138.455C120.719 139.352 120.206 140.038 119.536 140.511C118.869 140.985 118.068 141.222 117.132 141.222ZM117.132 139.443C117.859 139.443 118.433 139.085 118.854 138.369C119.278 137.65 119.49 136.591 119.49 135.193C119.49 134.269 119.393 133.492 119.2 132.864C119.007 132.235 118.734 131.761 118.382 131.443C118.03 131.121 117.613 130.96 117.132 130.96C116.409 130.96 115.837 131.32 115.416 132.04C114.996 132.756 114.784 133.807 114.78 135.193C114.776 136.121 114.869 136.902 115.058 137.534C115.251 138.167 115.524 138.644 115.876 138.966C116.229 139.284 116.647 139.443 117.132 139.443ZM132.784 134.335V136.028H127.545V134.335H132.784ZM143.07 141.159C142.251 141.159 141.524 141.019 140.888 140.739C140.255 140.458 139.755 140.068 139.388 139.568C139.02 139.068 138.825 138.491 138.803 137.835H140.939C140.958 138.15 141.062 138.424 141.251 138.659C141.441 138.89 141.693 139.07 142.007 139.199C142.321 139.328 142.674 139.392 143.064 139.392C143.481 139.392 143.85 139.32 144.172 139.176C144.494 139.028 144.746 138.824 144.928 138.562C145.109 138.301 145.198 138 145.195 137.659C145.198 137.307 145.107 136.996 144.922 136.727C144.736 136.458 144.467 136.248 144.115 136.097C143.767 135.945 143.346 135.869 142.854 135.869H141.825V134.244H142.854C143.259 134.244 143.613 134.174 143.916 134.034C144.223 133.894 144.464 133.697 144.638 133.443C144.812 133.186 144.897 132.888 144.893 132.551C144.897 132.222 144.823 131.936 144.672 131.693C144.524 131.447 144.314 131.256 144.041 131.119C143.772 130.983 143.456 130.915 143.092 130.915C142.736 130.915 142.407 130.979 142.104 131.108C141.801 131.237 141.556 131.42 141.371 131.659C141.185 131.894 141.087 132.174 141.075 132.5H139.047C139.062 131.848 139.25 131.277 139.609 130.784C139.973 130.288 140.458 129.902 141.064 129.625C141.67 129.345 142.35 129.205 143.104 129.205C143.88 129.205 144.554 129.35 145.126 129.642C145.702 129.93 146.147 130.318 146.462 130.807C146.776 131.295 146.933 131.835 146.933 132.426C146.937 133.081 146.744 133.631 146.354 134.074C145.967 134.517 145.46 134.807 144.831 134.943V135.034C145.649 135.148 146.276 135.451 146.712 135.943C147.151 136.432 147.369 137.04 147.365 137.767C147.365 138.419 147.179 139.002 146.808 139.517C146.441 140.028 145.933 140.43 145.286 140.722C144.642 141.013 143.903 141.159 143.07 141.159ZM153.491 141.159C152.673 141.159 151.946 141.019 151.31 140.739C150.677 140.458 150.177 140.068 149.81 139.568C149.442 139.068 149.247 138.491 149.224 137.835H151.361C151.38 138.15 151.484 138.424 151.673 138.659C151.863 138.89 152.115 139.07 152.429 139.199C152.743 139.328 153.096 139.392 153.486 139.392C153.902 139.392 154.272 139.32 154.594 139.176C154.916 139.028 155.168 138.824 155.349 138.562C155.531 138.301 155.62 138 155.616 137.659C155.62 137.307 155.529 136.996 155.344 136.727C155.158 136.458 154.889 136.248 154.537 136.097C154.188 135.945 153.768 135.869 153.276 135.869H152.247V134.244H153.276C153.681 134.244 154.035 134.174 154.338 134.034C154.645 133.894 154.885 133.697 155.06 133.443C155.234 133.186 155.319 132.888 155.315 132.551C155.319 132.222 155.245 131.936 155.094 131.693C154.946 131.447 154.736 131.256 154.463 131.119C154.194 130.983 153.878 130.915 153.514 130.915C153.158 130.915 152.829 130.979 152.526 131.108C152.223 131.237 151.978 131.42 151.793 131.659C151.607 131.894 151.509 132.174 151.497 132.5H149.469C149.484 131.848 149.671 131.277 150.031 130.784C150.395 130.288 150.88 129.902 151.486 129.625C152.092 129.345 152.772 129.205 153.526 129.205C154.302 129.205 154.976 129.35 155.548 129.642C156.124 129.93 156.569 130.318 156.884 130.807C157.198 131.295 157.355 131.835 157.355 132.426C157.359 133.081 157.166 133.631 156.776 134.074C156.389 134.517 155.882 134.807 155.253 134.943V135.034C156.071 135.148 156.698 135.451 157.134 135.943C157.573 136.432 157.791 137.04 157.787 137.767C157.787 138.419 157.601 139.002 157.23 139.517C156.863 140.028 156.355 140.43 155.707 140.722C155.063 141.013 154.325 141.159 153.491 141.159ZM165.959 138.818V138.205C165.959 137.754 166.054 137.339 166.243 136.96C166.436 136.581 166.716 136.277 167.084 136.045C167.451 135.814 167.896 135.699 168.419 135.699C168.957 135.699 169.408 135.814 169.771 136.045C170.135 136.273 170.41 136.576 170.595 136.955C170.785 137.333 170.879 137.75 170.879 138.205V138.818C170.879 139.269 170.785 139.684 170.595 140.062C170.406 140.441 170.127 140.746 169.76 140.977C169.396 141.208 168.949 141.324 168.419 141.324C167.889 141.324 167.44 141.208 167.072 140.977C166.705 140.746 166.427 140.441 166.237 140.062C166.052 139.684 165.959 139.269 165.959 138.818ZM167.442 138.205V138.818C167.442 139.117 167.514 139.392 167.658 139.642C167.802 139.892 168.055 140.017 168.419 140.017C168.786 140.017 169.038 139.894 169.175 139.648C169.315 139.398 169.385 139.121 169.385 138.818V138.205C169.385 137.902 169.319 137.625 169.186 137.375C169.054 137.121 168.798 136.994 168.419 136.994C168.063 136.994 167.811 137.121 167.663 137.375C167.516 137.625 167.442 137.902 167.442 138.205ZM160.044 132.159V131.545C160.044 131.091 160.141 130.674 160.334 130.295C160.527 129.917 160.807 129.614 161.175 129.386C161.542 129.155 161.987 129.04 162.51 129.04C163.044 129.04 163.493 129.155 163.857 129.386C164.224 129.614 164.5 129.917 164.686 130.295C164.872 130.674 164.964 131.091 164.964 131.545V132.159C164.964 132.614 164.87 133.03 164.68 133.409C164.495 133.784 164.218 134.085 163.851 134.312C163.483 134.54 163.036 134.653 162.51 134.653C161.976 134.653 161.525 134.54 161.158 134.312C160.794 134.085 160.518 133.782 160.328 133.403C160.139 133.025 160.044 132.61 160.044 132.159ZM161.538 131.545V132.159C161.538 132.462 161.608 132.739 161.749 132.989C161.893 133.235 162.146 133.358 162.51 133.358C162.874 133.358 163.124 133.235 163.26 132.989C163.4 132.739 163.47 132.462 163.47 132.159V131.545C163.47 131.242 163.404 130.966 163.271 130.716C163.139 130.462 162.885 130.335 162.51 130.335C162.15 130.335 161.898 130.462 161.754 130.716C161.61 130.97 161.538 131.246 161.538 131.545ZM160.692 141L168.692 129.364H170.112L162.112 141H160.692Z" fill="#404040"/>
<mask id="path-3-inside-1_586_5783" fill="white">
<path d="M233.563 98.1459C236.235 98.1459 238.414 95.9783 238.282 93.3095C237.086 69.0404 226.918 46.009 209.655 28.7463C191.249 10.3403 166.285 1.9652e-06 140.255 0C114.225 -1.9652e-06 89.2616 10.3403 70.8556 28.7463C53.5929 46.009 43.4249 69.0404 42.2285 93.3095C42.0969 95.9783 44.2755 98.1459 46.9475 98.1459V98.1459C49.6195 98.1459 51.7719 95.9777 51.9178 93.3096C53.105 71.6084 62.2501 51.0362 77.6978 35.5884C94.2891 18.9971 116.792 9.67628 140.255 9.67628C163.719 9.67628 186.221 18.9972 202.813 35.5884C218.26 51.0362 227.405 71.6085 228.593 93.3096C228.739 95.9777 230.891 98.1459 233.563 98.1459V98.1459Z"/>
</mask>
<path d="M233.563 98.1459C236.235 98.1459 238.414 95.9783 238.282 93.3095C237.086 69.0404 226.918 46.009 209.655 28.7463C191.249 10.3403 166.285 1.9652e-06 140.255 0C114.225 -1.9652e-06 89.2616 10.3403 70.8556 28.7463C53.5929 46.009 43.4249 69.0404 42.2285 93.3095C42.0969 95.9783 44.2755 98.1459 46.9475 98.1459V98.1459C49.6195 98.1459 51.7719 95.9777 51.9178 93.3096C53.105 71.6084 62.2501 51.0362 77.6978 35.5884C94.2891 18.9971 116.792 9.67628 140.255 9.67628C163.719 9.67628 186.221 18.9972 202.813 35.5884C218.26 51.0362 227.405 71.6085 228.593 93.3096C228.739 95.9777 230.891 98.1459 233.563 98.1459V98.1459Z" stroke="white" stroke-width="16.5387" stroke-linejoin="round" mask="url(#path-3-inside-1_586_5783)"/>
<mask id="path-4-inside-2_586_5783" fill="white">
<path d="M233.871 99.9567C234.972 99.9567 235.867 99.0636 235.845 97.9623C235.521 81.8841 231.288 66.1259 223.511 52.1004C215.746 38.0981 204.7 26.277 191.369 17.6802C190.422 17.0695 189.163 17.3811 188.587 18.3497V18.3497C188.023 19.298 188.327 20.5215 189.254 21.1197C202.021 29.3574 212.599 40.6811 220.036 54.093C227.477 67.5105 231.532 82.5824 231.855 97.9623C231.878 99.0635 232.769 99.9567 233.871 99.9567V99.9567Z"/>
</mask>
<path d="M233.871 99.9567C234.972 99.9567 235.867 99.0636 235.845 97.9623C235.521 81.8841 231.288 66.1259 223.511 52.1004C215.746 38.0981 204.7 26.277 191.369 17.6802C190.422 17.0695 189.163 17.3811 188.587 18.3497V18.3497C188.023 19.298 188.327 20.5215 189.254 21.1197C202.021 29.3574 212.599 40.6811 220.036 54.093C227.477 67.5105 231.532 82.5824 231.855 97.9623C231.878 99.0635 232.769 99.9567 233.871 99.9567V99.9567Z" stroke="#FF9C00" stroke-width="18.3764" stroke-linejoin="round" mask="url(#path-4-inside-2_586_5783)"/>
<mask id="path-5-inside-3_586_5783" fill="white">
<path d="M89.6548 19.5532C89.0562 18.5986 87.7906 18.3173 86.8586 18.9505C74.1259 27.6018 63.6093 39.2379 56.2019 52.8908C48.7819 66.5671 44.7087 81.8485 44.3131 97.4439C44.2852 98.5448 45.1753 99.4426 46.2765 99.4485V99.4485C47.3781 99.4545 48.2737 98.566 48.3026 97.4648C48.6942 82.5478 52.5964 67.9329 59.6942 54.8506C66.7894 41.7731 76.8612 30.6264 89.0549 22.3368C89.9667 21.7168 90.2405 20.4873 89.6548 19.5532V19.5532Z"/>
</mask>
<path d="M89.6548 19.5532C89.0562 18.5986 87.7906 18.3173 86.8586 18.9505C74.1259 27.6018 63.6093 39.2379 56.2019 52.8908C48.7819 66.5671 44.7087 81.8485 44.3131 97.4439C44.2852 98.5448 45.1753 99.4426 46.2765 99.4485V99.4485C47.3781 99.4545 48.2737 98.566 48.3026 97.4648C48.6942 82.5478 52.5964 67.9329 59.6942 54.8506C66.7894 41.7731 76.8612 30.6264 89.0549 22.3368C89.9667 21.7168 90.2405 20.4873 89.6548 19.5532V19.5532Z" stroke="#0ACF83" stroke-width="18.3764" stroke-linejoin="round" mask="url(#path-5-inside-3_586_5783)"/>
<mask id="path-6-inside-4_586_5783" fill="white">
<path d="M185.792 17.0892C186.433 15.9282 186.024 14.4649 184.856 13.8368C170.66 6.2015 154.792 2.31216 138.709 2.54503C122.626 2.77792 106.872 7.12568 92.895 15.1699C91.7466 15.8308 91.3795 17.3039 92.052 18.4455V18.4455C92.7389 19.6114 94.2458 19.9863 95.42 19.3138C108.657 11.7329 123.562 7.63594 138.778 7.41561C153.993 7.1953 169.006 10.8589 182.45 18.0532C183.643 18.6918 185.139 18.2741 185.792 17.0892V17.0892Z"/>
</mask>
<path d="M185.792 17.0892C186.433 15.9282 186.024 14.4649 184.856 13.8368C170.66 6.2015 154.792 2.31216 138.709 2.54503C122.626 2.77792 106.872 7.12568 92.895 15.1699C91.7466 15.8308 91.3795 17.3039 92.052 18.4455V18.4455C92.7389 19.6114 94.2458 19.9863 95.42 19.3138C108.657 11.7329 123.562 7.63594 138.778 7.41561C153.993 7.1953 169.006 10.8589 182.45 18.0532C183.643 18.6918 185.139 18.2741 185.792 17.0892V17.0892Z" stroke="#FFCE64" stroke-width="18.3764" stroke-linejoin="round" mask="url(#path-6-inside-4_586_5783)"/>
<circle cx="46.7081" cy="92.7081" r="4.7081" fill="#3CC57C"/>
<circle cx="46.7081" cy="92.708" r="2.17297" fill="white"/>
<path d="M4.25923 83.1662C3.55753 83.1662 2.95526 82.9886 2.45241 82.6335C1.95241 82.2756 1.56747 81.7599 1.29759 81.0866C1.03054 80.4105 0.897017 79.5966 0.897017 78.6449C0.899858 77.6932 1.0348 76.8835 1.30185 76.2159C1.57173 75.5455 1.95668 75.0341 2.45668 74.6818C2.95952 74.3295 3.56037 74.1534 4.25923 74.1534C4.9581 74.1534 5.55895 74.3295 6.06179 74.6818C6.56463 75.0341 6.94957 75.5455 7.21662 76.2159C7.48651 76.8864 7.62145 77.696 7.62145 78.6449C7.62145 79.5994 7.48651 80.4148 7.21662 81.0909C6.94957 81.7642 6.56463 82.2784 6.06179 82.6335C5.56179 82.9886 4.96094 83.1662 4.25923 83.1662ZM4.25923 81.8324C4.80469 81.8324 5.23509 81.5639 5.55043 81.027C5.86861 80.4872 6.0277 79.6932 6.0277 78.6449C6.0277 77.9517 5.95526 77.3693 5.81037 76.8977C5.66548 76.4261 5.46094 76.071 5.19673 75.8324C4.93253 75.5909 4.62003 75.4702 4.25923 75.4702C3.71662 75.4702 3.28764 75.7401 2.9723 76.2798C2.65696 76.8168 2.49787 77.6051 2.49503 78.6449C2.49219 79.3409 2.56179 79.9261 2.70384 80.4006C2.84872 80.875 3.05327 81.233 3.31747 81.4744C3.58168 81.7131 3.8956 81.8324 4.25923 81.8324ZM9.66477 83.0938C9.40625 83.0938 9.18466 83.0028 9 82.821C8.81534 82.6392 8.72443 82.4176 8.72727 82.1562C8.72443 81.9006 8.81534 81.6818 9 81.5C9.18466 81.3182 9.40625 81.2273 9.66477 81.2273C9.91477 81.2273 10.1321 81.3182 10.3168 81.5C10.5043 81.6818 10.5994 81.9006 10.6023 82.1562C10.5994 82.3295 10.554 82.4872 10.4659 82.6293C10.3807 82.7713 10.267 82.8849 10.125 82.9702C9.9858 83.0526 9.83239 83.0938 9.66477 83.0938ZM14.6495 74.2727V83H13.0685V75.8111H13.0174L10.9762 77.1151V75.6662L13.1452 74.2727H14.6495ZM20.0913 83.1662C19.3896 83.1662 18.7873 82.9886 18.2844 82.6335C17.7844 82.2756 17.3995 81.7599 17.1296 81.0866C16.8626 80.4105 16.729 79.5966 16.729 78.6449C16.7319 77.6932 16.8668 76.8835 17.1339 76.2159C17.4038 75.5455 17.7887 75.0341 18.2887 74.6818C18.7915 74.3295 19.3924 74.1534 20.0913 74.1534C20.7901 74.1534 21.391 74.3295 21.8938 74.6818C22.3967 75.0341 22.7816 75.5455 23.0487 76.2159C23.3185 76.8864 23.4535 77.696 23.4535 78.6449C23.4535 79.5994 23.3185 80.4148 23.0487 81.0909C22.7816 81.7642 22.3967 82.2784 21.8938 82.6335C21.3938 82.9886 20.793 83.1662 20.0913 83.1662ZM20.0913 81.8324C20.6367 81.8324 21.0671 81.5639 21.3825 81.027C21.7006 80.4872 21.8597 79.6932 21.8597 78.6449C21.8597 77.9517 21.7873 77.3693 21.6424 76.8977C21.4975 76.4261 21.293 76.071 21.0288 75.8324C20.7646 75.5909 20.4521 75.4702 20.0913 75.4702C19.5487 75.4702 19.1197 75.7401 18.8043 76.2798C18.489 76.8168 18.3299 77.6051 18.3271 78.6449C18.3242 79.3409 18.3938 79.9261 18.5359 80.4006C18.6808 80.875 18.8853 81.233 19.1495 81.4744C19.4137 81.7131 19.7276 81.8324 20.0913 81.8324ZM28.0653 83.1193C27.6477 83.1165 27.2401 83.044 26.8423 82.902C26.4446 82.7571 26.0866 82.5227 25.7685 82.1989C25.4503 81.8722 25.1974 81.4389 25.0099 80.8991C24.8224 80.3565 24.7301 79.6847 24.733 78.8835C24.733 78.1364 24.8125 77.4702 24.9716 76.8849C25.1307 76.2997 25.3594 75.8054 25.6577 75.402C25.956 74.9957 26.3153 74.6861 26.7358 74.473C27.1591 74.2599 27.6321 74.1534 28.1548 74.1534C28.7031 74.1534 29.1889 74.2614 29.6122 74.4773C30.0384 74.6932 30.3821 74.9886 30.6435 75.3636C30.9048 75.7358 31.0668 76.1562 31.1293 76.625H29.5739C29.4943 76.2898 29.331 76.0227 29.0838 75.8239C28.8395 75.6222 28.5298 75.5213 28.1548 75.5213C27.5497 75.5213 27.0838 75.7841 26.7571 76.3097C26.4332 76.8352 26.2699 77.5568 26.267 78.4744H26.3267C26.4659 78.2244 26.6463 78.0099 26.8679 77.831C27.0895 77.652 27.3395 77.5142 27.6179 77.4176C27.8991 77.3182 28.196 77.2685 28.5085 77.2685C29.0199 77.2685 29.4787 77.3906 29.8849 77.6349C30.294 77.8793 30.6179 78.2159 30.8565 78.6449C31.0952 79.071 31.2131 79.5597 31.2102 80.1108C31.2131 80.6847 31.0824 81.2003 30.8182 81.6577C30.554 82.1122 30.1861 82.4702 29.7145 82.7315C29.2429 82.9929 28.6932 83.1222 28.0653 83.1193ZM28.0568 81.8409C28.3665 81.8409 28.6435 81.7656 28.8878 81.6151C29.1321 81.4645 29.3253 81.2614 29.4673 81.0057C29.6094 80.75 29.679 80.4631 29.6761 80.1449C29.679 79.8324 29.6108 79.5497 29.4716 79.2969C29.3352 79.044 29.1463 78.8437 28.9048 78.696C28.6634 78.5483 28.3878 78.4744 28.0781 78.4744C27.848 78.4744 27.6335 78.5185 27.4347 78.6065C27.2358 78.6946 27.0625 78.8168 26.9148 78.973C26.767 79.1264 26.6506 79.3054 26.5653 79.5099C26.483 79.7116 26.4403 79.9276 26.4375 80.1577C26.4403 80.4616 26.5114 80.7415 26.6506 80.9972C26.7898 81.2528 26.9815 81.4574 27.2259 81.6108C27.4702 81.7642 27.7472 81.8409 28.0568 81.8409ZM37.3168 81.3636V80.9034C37.3168 80.5653 37.3878 80.2543 37.5298 79.9702C37.6747 79.6861 37.8849 79.4574 38.1605 79.2841C38.4361 79.1108 38.7699 79.0241 39.1619 79.0241C39.5653 79.0241 39.9034 79.1108 40.1761 79.2841C40.4489 79.4545 40.6548 79.6818 40.794 79.9659C40.9361 80.25 41.0071 80.5625 41.0071 80.9034V81.3636C41.0071 81.7017 40.9361 82.0128 40.794 82.2969C40.652 82.581 40.4432 82.8097 40.1676 82.983C39.8949 83.1563 39.5597 83.2429 39.1619 83.2429C38.7642 83.2429 38.4276 83.1563 38.152 82.983C37.8764 82.8097 37.6676 82.581 37.5256 82.2969C37.3864 82.0128 37.3168 81.7017 37.3168 81.3636ZM38.429 80.9034V81.3636C38.429 81.5881 38.483 81.794 38.5909 81.9815C38.6989 82.169 38.8892 82.2628 39.1619 82.2628C39.4375 82.2628 39.6264 82.1705 39.7287 81.9858C39.8338 81.7983 39.8864 81.5909 39.8864 81.3636V80.9034C39.8864 80.6761 39.8366 80.4688 39.7372 80.2812C39.6378 80.0909 39.446 79.9957 39.1619 79.9957C38.8949 79.9957 38.706 80.0909 38.5952 80.2812C38.4844 80.4688 38.429 80.6761 38.429 80.9034ZM32.8807 76.3693V75.9091C32.8807 75.5682 32.9531 75.2557 33.098 74.9716C33.2429 74.6875 33.4531 74.4602 33.7287 74.2898C34.0043 74.1165 34.3381 74.0298 34.7301 74.0298C35.1307 74.0298 35.4673 74.1165 35.7401 74.2898C36.0156 74.4602 36.223 74.6875 36.3622 74.9716C36.5014 75.2557 36.571 75.5682 36.571 75.9091V76.3693C36.571 76.7102 36.5 77.0227 36.358 77.3068C36.2188 77.5881 36.0114 77.8139 35.7358 77.9844C35.4602 78.1548 35.125 78.2401 34.7301 78.2401C34.3295 78.2401 33.9915 78.1548 33.7159 77.9844C33.4432 77.8139 33.2358 77.5866 33.0938 77.3026C32.9517 77.0185 32.8807 76.7074 32.8807 76.3693ZM34.0014 75.9091V76.3693C34.0014 76.5966 34.054 76.804 34.1591 76.9915C34.267 77.1761 34.4574 77.2685 34.7301 77.2685C35.0028 77.2685 35.1903 77.1761 35.2926 76.9915C35.3977 76.804 35.4503 76.5966 35.4503 76.3693V75.9091C35.4503 75.6818 35.4006 75.4744 35.3011 75.2869C35.2017 75.0966 35.0114 75.0014 34.7301 75.0014C34.4602 75.0014 34.2713 75.0966 34.1634 75.2869C34.0554 75.4773 34.0014 75.6847 34.0014 75.9091ZM33.3665 83L39.3665 74.2727H40.4318L34.4318 83H33.3665Z" fill="#31B73F"/>
<path d="M226.634 105.818V116H225.401V107.111H225.341L222.855 108.761V107.509L225.401 105.818H226.634ZM232.883 116.139C232.134 116.139 231.496 115.935 230.969 115.528C230.442 115.117 230.039 114.522 229.761 113.743C229.482 112.961 229.343 112.016 229.343 110.909C229.343 109.809 229.482 108.869 229.761 108.09C230.042 107.308 230.447 106.711 230.974 106.3C231.504 105.886 232.14 105.679 232.883 105.679C233.625 105.679 234.26 105.886 234.787 106.3C235.317 106.711 235.722 107.308 236 108.09C236.282 108.869 236.423 109.809 236.423 110.909C236.423 112.016 236.283 112.961 236.005 113.743C235.727 114.522 235.324 115.117 234.797 115.528C234.27 115.935 233.632 116.139 232.883 116.139ZM232.883 115.045C233.625 115.045 234.202 114.687 234.613 113.972C235.024 113.256 235.229 112.235 235.229 110.909C235.229 110.027 235.135 109.277 234.946 108.657C234.76 108.037 234.492 107.565 234.141 107.24C233.793 106.915 233.373 106.753 232.883 106.753C232.147 106.753 231.572 107.116 231.158 107.842C230.743 108.564 230.536 109.587 230.536 110.909C230.536 111.791 230.629 112.54 230.815 113.156C231 113.773 231.267 114.242 231.615 114.563C231.966 114.885 232.389 115.045 232.883 115.045ZM241.633 116.139C240.884 116.139 240.246 115.935 239.719 115.528C239.192 115.117 238.789 114.522 238.511 113.743C238.232 112.961 238.093 112.016 238.093 110.909C238.093 109.809 238.232 108.869 238.511 108.09C238.792 107.308 239.197 106.711 239.724 106.3C240.254 105.886 240.89 105.679 241.633 105.679C242.375 105.679 243.01 105.886 243.537 106.3C244.067 106.711 244.472 107.308 244.75 108.09C245.032 108.869 245.173 109.809 245.173 110.909C245.173 112.016 245.033 112.961 244.755 113.743C244.477 114.522 244.074 115.117 243.547 115.528C243.02 115.935 242.382 116.139 241.633 116.139ZM241.633 115.045C242.375 115.045 242.952 114.687 243.363 113.972C243.774 113.256 243.979 112.235 243.979 110.909C243.979 110.027 243.885 109.277 243.696 108.657C243.51 108.037 243.242 107.565 242.891 107.24C242.543 106.915 242.123 106.753 241.633 106.753C240.897 106.753 240.322 107.116 239.908 107.842C239.493 108.564 239.286 109.587 239.286 110.909C239.286 111.791 239.379 112.54 239.565 113.156C239.75 113.773 240.017 114.242 240.365 114.563C240.716 114.885 241.139 115.045 241.633 115.045Z" fill="#FF9C00"/>
<path d="M45.375 116.139C44.6259 116.139 43.9879 115.935 43.4609 115.528C42.9339 115.117 42.5313 114.522 42.2528 113.743C41.9744 112.961 41.8352 112.016 41.8352 110.909C41.8352 109.809 41.9744 108.869 42.2528 108.09C42.5346 107.308 42.9389 106.711 43.4659 106.3C43.9962 105.886 44.6326 105.679 45.375 105.679C46.1174 105.679 46.7521 105.886 47.2791 106.3C47.8094 106.711 48.2138 107.308 48.4922 108.09C48.7739 108.869 48.9148 109.809 48.9148 110.909C48.9148 112.016 48.7756 112.961 48.4972 113.743C48.2188 114.522 47.8161 115.117 47.2891 115.528C46.7621 115.935 46.1241 116.139 45.375 116.139ZM45.375 115.045C46.1174 115.045 46.6941 114.687 47.1051 113.972C47.5161 113.256 47.7216 112.235 47.7216 110.909C47.7216 110.027 47.6271 109.277 47.4382 108.657C47.2526 108.037 46.9841 107.565 46.6328 107.24C46.2848 106.915 45.8655 106.753 45.375 106.753C44.6392 106.753 44.0642 107.116 43.6499 107.842C43.2356 108.564 43.0284 109.587 43.0284 110.909C43.0284 111.791 43.1212 112.54 43.3068 113.156C43.4924 113.773 43.7592 114.242 44.1072 114.563C44.4586 114.885 44.8812 115.045 45.375 115.045Z" fill="#0ACF83"/>
</svg>
