<svg width="18" height="20" viewBox="0 0 18 20" fill="none" xmlns="http://www.w3.org/2000/svg">
<path d="M11 8.5C11 9.88071 8.76142 11 6 11C3.23858 11 1 9.88071 1 8.5M11 8.5C11 7.11929 8.76142 6 6 6C3.23858 6 1 7.11929 1 8.5M11 8.5V12.5M1 8.5V12.5M17 3.5C17 2.11929 14.7614 1 12 1C10.0209 1 8.31036 1.57493 7.5 2.40897M17 3.5C17 4.42535 15.9945 5.23328 14.5 5.66554M17 3.5V12C17 12.7403 15.9945 13.3866 14.5 13.7324M17 8C17 8.75669 15.9495 9.41522 14.3999 9.75498M11 12.5C11 13.8807 8.76142 15 6 15C3.23858 15 1 13.8807 1 12.5M11 12.5V16.5C11 17.8807 8.76142 19 6 19C3.23858 19 1 17.8807 1 16.5V12.5" stroke="#404040" stroke-width="2" stroke-linecap="round" stroke-linejoin="round"/>
</svg>
