<svg width="22" height="22" viewBox="0 0 22 22" fill="none" xmlns="http://www.w3.org/2000/svg">
<path d="M17 3C17 1.89543 17.8954 1 19 1C20.1046 1 21 1.89543 21 3C21 4.10457 20.1046 5 19 5C17.8954 5 17 4.10457 17 3Z" stroke="#404040" stroke-width="2" stroke-linecap="round" stroke-linejoin="round"/>
<path d="M9 3C9 1.89543 9.89543 1 11 1C12.1046 1 13 1.89543 13 3C13 4.10457 12.1046 5 11 5C9.89543 5 9 4.10457 9 3Z" stroke="#404040" stroke-width="2" stroke-linecap="round" stroke-linejoin="round"/>
<path d="M1 3C1 1.89543 1.89543 1 3 1C4.10457 1 5 1.89543 5 3C5 4.10457 4.10457 5 3 5C1.89543 5 1 4.10457 1 3Z" stroke="#404040" stroke-width="2" stroke-linecap="round" stroke-linejoin="round"/>
<path d="M1 11C1 9.89543 1.89543 9 3 9C4.10457 9 5 9.89543 5 11C5 12.1046 4.10457 13 3 13C1.89543 13 1 12.1046 1 11Z" stroke="#404040" stroke-width="2" stroke-linecap="round" stroke-linejoin="round"/>
<path d="M9 11C9 9.89543 9.89543 9 11 9C12.1046 9 13 9.89543 13 11C13 12.1046 12.1046 13 11 13C9.89543 13 9 12.1046 9 11Z" stroke="#404040" stroke-width="2" stroke-linecap="round" stroke-linejoin="round"/>
<path d="M9 19C9 17.8954 9.89543 17 11 17C12.1046 17 13 17.8954 13 19C13 20.1046 12.1046 21 11 21C9.89543 21 9 20.1046 9 19Z" stroke="#404040" stroke-width="2" stroke-linecap="round" stroke-linejoin="round"/>
<path d="M17 11C17 9.89543 17.8954 9 19 9C20.1046 9 21 9.89543 21 11C21 12.1046 20.1046 13 19 13C17.8954 13 17 12.1046 17 11Z" stroke="#404040" stroke-width="2" stroke-linecap="round" stroke-linejoin="round"/>
</svg>
