<svg width="24" height="24" viewBox="0 0 24 24" fill="none" xmlns="http://www.w3.org/2000/svg">
<path d="M22 12C22 11.4477 21.5523 11 21 11C20.4477 11 20 11.4477 20 12H22ZM12 4C12.5523 4 13 3.55228 13 3C13 2.44772 12.5523 2 12 2V4ZM18 12C18 11.4477 17.5523 11 17 11C16.4477 11 16 11.4477 16 12H18ZM12 8C12.5523 8 13 7.55228 13 7C13 6.44772 12.5523 6 12 6V8ZM17.4292 3.32921L18.3779 3.01299C18.2775 2.71193 18.0402 2.47637 17.7385 2.37823C17.4367 2.28009 17.1062 2.33103 16.848 2.51548L17.4292 3.32921ZM20.8629 6.76292L21.6767 7.34416C21.8611 7.08593 21.912 6.75547 21.8139 6.45368C21.7158 6.15189 21.4802 5.91459 21.1792 5.81424L20.8629 6.76292ZM18.7169 9.76742L18.6124 10.762C18.9706 10.7996 19.3213 10.6417 19.5306 10.3487L18.7169 9.76742ZM14.4247 5.47528L13.8435 4.66155C13.5559 4.86694 13.3981 5.20884 13.4284 5.56091L14.4247 5.47528ZM18.2876 5.9045L17.339 6.22072C17.4385 6.51933 17.6728 6.75365 17.9714 6.85318L18.2876 5.9045ZM11.3074 11.2786C10.909 11.6612 10.8962 12.2942 11.2787 12.6925C11.6613 13.0909 12.2943 13.1037 12.6927 12.7212L11.3074 11.2786ZM20 12C20 16.4183 16.4183 20 12 20V22C17.5228 22 22 17.5228 22 12H20ZM12 20C7.58172 20 4 16.4183 4 12H2C2 17.5228 6.47715 22 12 22V20ZM4 12C4 7.58172 7.58172 4 12 4V2C6.47715 2 2 6.47715 2 12H4ZM16 12C16 14.2091 14.2091 16 12 16V18C15.3137 18 18 15.3137 18 12H16ZM12 16C9.79086 16 8 14.2091 8 12H6C6 15.3137 8.68629 18 12 18V16ZM8 12C8 9.79086 9.79086 8 12 8V6C8.68629 6 6 8.68629 6 12H8ZM20.0492 6.18169L17.9031 9.18618L19.5306 10.3487L21.6767 7.34416L20.0492 6.18169ZM15.006 6.28902L18.0105 4.14295L16.848 2.51548L13.8435 4.66155L15.006 6.28902ZM16.4805 3.64544L17.339 6.22072L19.2363 5.58827L18.3779 3.01299L16.4805 3.64544ZM17.9714 6.85318L20.5467 7.71161L21.1792 5.81424L18.6039 4.95581L17.9714 6.85318ZM18.8213 8.77289L14.8623 8.35709L14.6534 10.3462L18.6124 10.762L18.8213 8.77289ZM15.7542 9.26599L15.421 5.38965L13.4284 5.56091L13.7615 9.43725L15.7542 9.26599ZM14.0652 8.63033L11.3074 11.2786L12.6927 12.7212L15.4505 10.0729L14.0652 8.63033Z" fill="#08BD1B"/>
</svg>
