<svg width="5" height="23" viewBox="0 0 5 23" fill="none" xmlns="http://www.w3.org/2000/svg">
<path fill-rule="evenodd" clip-rule="evenodd" d="M2.5 -1.56095e-07C3.88071 -6.98861e-08 5 1.14167 5 2.55L5 14.45C5 15.8583 3.88071 17 2.5 17C1.11929 17 -1.55697e-07 15.8583 -6.77642e-08 14.45L6.75248e-07 2.55C7.63181e-07 1.14167 1.11929 -2.42304e-07 2.5 -1.56095e-07Z" fill="white"/>
<path d="M5 20.5C5 21.8807 3.88071 23 2.5 23C1.11929 23 8.48157e-08 21.8807 5.46392e-08 20.5C2.44628e-08 19.1193 1.11929 18 2.5 18C3.88071 18 5 19.1193 5 20.5Z" fill="white"/>
</svg>
