<svg width="12" height="12" viewBox="0 0 12 12" fill="none" xmlns="http://www.w3.org/2000/svg">
<path d="M0.75 6C0.75 8.89949 3.10051 11.25 6 11.25M0.75 6C0.75 3.1005 3.10051 0.75 6 0.75M0.75 6C0.75 6.9665 3.10051 7.75 6 7.75C8.8995 7.75 11.25 6.9665 11.25 6M0.75 6C0.75 5.0335 3.10051 4.25 6 4.25C8.8995 4.25 11.25 5.0335 11.25 6M6 11.25C8.8995 11.25 11.25 8.89949 11.25 6M6 11.25C6.9665 11.25 7.75 8.89949 7.75 6C7.75 3.1005 6.9665 0.75 6 0.75M6 11.25C5.0335 11.25 4.25 8.89949 4.25 6C4.25 3.1005 5.0335 0.75 6 0.75M11.25 6C11.25 3.1005 8.8995 0.75 6 0.75" stroke="#979797" stroke-linecap="round" stroke-linejoin="round"/>
</svg>
