<svg width="32" height="32" viewBox="0 0 32 32" fill="none" xmlns="http://www.w3.org/2000/svg">
<path d="M31 16C31 24.2843 24.2843 31 16 31M31 16C31 7.71573 24.2843 1 16 1M31 16C31 18.7614 24.2843 21 16 21C7.71573 21 1 18.7614 1 16M31 16C31 13.2386 24.2843 11 16 11C7.71573 11 1 13.2386 1 16M16 31C7.71573 31 1 24.2843 1 16M16 31C13.2386 31 11 24.2843 11 16C11 7.71573 13.2386 1 16 1M16 31C18.7614 31 21 24.2843 21 16C21 7.71573 18.7614 1 16 1M1 16C1 7.71573 7.71573 1 16 1" stroke="#404040" stroke-width="2" stroke-linecap="round" stroke-linejoin="round"/>
</svg>
