<svg width="24" height="24" viewBox="0 0 24 24" fill="none" xmlns="http://www.w3.org/2000/svg">
<path d="M6 9.77753C6 9.22524 5.55228 8.77753 5 8.77753C4.44772 8.77753 4 9.22524 4 9.77753H6ZM6.63803 20.6731L7.09202 19.7821H7.09202L6.63803 20.6731ZM5.32698 19.362L4.43597 19.816H4.43597L5.32698 19.362ZM18.673 19.362L17.782 18.9081V18.9081L18.673 19.362ZM17.362 20.6731L16.908 19.7821H16.908L17.362 20.6731ZM15.5668 5.96405L14.8235 6.63307V6.63307L15.5668 5.96405ZM20.2568 12.6691C20.6262 13.0796 21.2585 13.1128 21.669 12.7433C22.0795 12.3738 22.1127 11.7415 21.7432 11.3311L20.2568 12.6691ZM2.25666 11.3312C1.88723 11.7417 1.92055 12.374 2.33109 12.7434C2.74163 13.1128 3.37391 13.0795 3.74334 12.669L2.25666 11.3312ZM8.43114 5.96458L9.17449 6.63349L8.43114 5.96458ZM12.9856 3.65151L12.6568 4.59588V4.59588L12.9856 3.65151ZM11.0119 3.65165L11.341 4.59597L11.0119 3.65165ZM20 5.00008C20 4.44779 19.5523 4.00008 19 4.00008C18.4477 4.00008 18 4.44779 18 5.00008H20ZM14.2 20.0001H9.8V22.0001H14.2V20.0001ZM6 16.2001V9.77753H4V16.2001H6ZM9.8 20.0001C8.94342 20.0001 8.36113 19.9993 7.91104 19.9625C7.47262 19.9267 7.24842 19.8618 7.09202 19.7821L6.18404 21.5641C6.66937 21.8114 7.18608 21.91 7.74817 21.9559C8.2986 22.0009 8.97642 22.0001 9.8 22.0001V20.0001ZM4 16.2001C4 17.0237 3.99922 17.7015 4.04419 18.2519C4.09012 18.814 4.18868 19.3307 4.43597 19.816L6.21799 18.9081C6.1383 18.7517 6.07337 18.5275 6.03755 18.089C6.00078 17.639 6 17.0567 6 16.2001H4ZM7.09202 19.7821C6.7157 19.5903 6.40973 19.2844 6.21799 18.9081L4.43597 19.816C4.81947 20.5687 5.43139 21.1806 6.18404 21.5641L7.09202 19.7821ZM18 16.2001C18 17.0567 17.9992 17.639 17.9624 18.089C17.9266 18.5275 17.8617 18.7517 17.782 18.9081L19.564 19.816C19.8113 19.3307 19.9099 18.814 19.9558 18.2519C20.0008 17.7015 20 17.0237 20 16.2001H18ZM14.2 22.0001C15.0236 22.0001 15.7014 22.0009 16.2518 21.9559C16.8139 21.91 17.3306 21.8114 17.816 21.5641L16.908 19.7821C16.7516 19.8618 16.5274 19.9267 16.089 19.9625C15.6389 19.9993 15.0566 20.0001 14.2 20.0001V22.0001ZM17.782 18.9081C17.5903 19.2844 17.2843 19.5903 16.908 19.7821L17.816 21.5641C18.5686 21.1806 19.1805 20.5687 19.564 19.816L17.782 18.9081ZM14.8235 6.63307L20.2568 12.6691L21.7432 11.3311L16.31 5.29503L14.8235 6.63307ZM3.74334 12.669L9.17449 6.63349L7.6878 5.29567L2.25666 11.3312L3.74334 12.669ZM16.31 5.29503C15.7038 4.62155 15.2077 4.06916 14.7696 3.65847C14.3239 3.24064 13.8677 2.89977 13.3145 2.70713L12.6568 4.59588C12.8312 4.65664 13.0477 4.78566 13.4018 5.11756C13.7634 5.4566 14.1941 5.93379 14.8235 6.63307L16.31 5.29503ZM9.17449 6.63349C9.80383 5.93412 10.2344 5.45686 10.596 5.11777C10.95 4.78582 11.1665 4.65676 11.341 4.59597L10.6829 2.70733C10.1298 2.90004 9.6736 3.24098 9.22796 3.65888C8.78993 4.06964 8.29393 4.62209 7.6878 5.29567L9.17449 6.63349ZM13.3145 2.70713C12.4624 2.41038 11.535 2.41045 10.6829 2.70733L11.341 4.59597C11.767 4.44753 12.2307 4.4475 12.6568 4.59588L13.3145 2.70713ZM18 5.00008V16.2001H20V5.00008H18Z" fill="#08BD1B"/>
</svg>
