<svg width="24" height="24" viewBox="0 0 24 24" fill="none" xmlns="http://www.w3.org/2000/svg">
<path d="M11.6 7.00383L11.5696 6.00428L11.5642 6.00447L11.6 7.00383ZM10 8.50882L9 8.50732L10 8.50882ZM13.7263 8.10794C14.2574 8.25912 14.8106 7.95107 14.9618 7.41988C15.113 6.8887 14.8049 6.33552 14.2737 6.18433L13.7263 8.10794ZM12 7.00383L12.0076 8.0038L12 7.00383ZM12.1861 12.9974V13.9974C12.2307 13.9974 12.2752 13.9945 12.3193 13.9885L12.1861 12.9974ZM10.142 11.8939C9.5953 11.8155 9.08855 12.1951 9.01013 12.7418C8.93171 13.2885 9.31132 13.7952 9.85801 13.8736L10.142 11.8939ZM13 13C13 12.4477 12.5523 12 12 12C11.4477 12 11 12.4477 11 13H13ZM11 14C11 14.5523 11.4477 15 12 15C12.5523 15 13 14.5523 13 14H11ZM13 6C13 5.44772 12.5523 5 12 5C11.4477 5 11 5.44772 11 6H13ZM11 7C11 7.55228 11.4477 8 12 8C12.5523 8 13 7.55228 13 7H11ZM22 17C22 16.4477 21.5523 16 21 16C20.4477 16 20 16.4477 20 17H22ZM4 17C4 16.4477 3.55228 16 3 16C2.44772 16 2 16.4477 2 17H4ZM4.09202 20.782L4.54601 19.891H4.54601L4.09202 20.782ZM3.21799 19.908L4.10899 19.454H4.10899L3.21799 19.908ZM20.782 19.908L19.891 19.454L19.891 19.454L20.782 19.908ZM19.908 20.782L20.362 21.673L19.908 20.782ZM18 10C18 13.3137 15.3137 16 12 16V18C16.4183 18 20 14.4183 20 10H18ZM12 16C8.68629 16 6 13.3137 6 10H4C4 14.4183 7.58172 18 12 18V16ZM6 10C6 6.68629 8.68629 4 12 4V2C7.58172 2 4 5.58172 4 10H6ZM12 4C15.3137 4 18 6.68629 18 10H20C20 5.58172 16.4183 2 12 2V4ZM11.5642 6.00447C11.0339 6.02345 10.4003 6.16039 9.87768 6.57355C9.31407 7.0191 9.00124 7.69023 9 8.50732L11 8.51033C11.0002 8.35952 11.0272 8.27558 11.0464 8.23382C11.0644 8.19437 11.0868 8.1672 11.118 8.14252C11.1931 8.08316 11.3587 8.0131 11.6358 8.00319L11.5642 6.00447ZM9 8.50732C8.9986 9.43735 9.42973 10.1361 10.0997 10.549C10.7 10.919 11.4142 11.015 12 11.015V9.01495C11.5858 9.01495 11.2991 8.93895 11.149 8.84643C11.0863 8.80776 11.0593 8.77398 11.0442 8.74686C11.0292 8.72003 10.9998 8.65331 11 8.51033L9 8.50732ZM12 11.015C12.4479 11.015 12.7268 11.0813 12.8665 11.1638C12.9191 11.1948 12.9388 11.2203 12.9514 11.2433C12.9657 11.2693 13 11.3468 13 11.5211H15C15 10.5733 14.5851 9.85594 13.8835 9.44162C13.2732 9.08129 12.5521 9.01495 12 9.01495V11.015ZM14.2737 6.18433C13.6062 5.99434 12.6297 5.99898 11.9924 6.00385L12.0076 8.0038C12.7404 7.99819 13.3938 8.01331 13.7263 8.10794L14.2737 6.18433ZM11.9924 6.00385C11.9417 6.00424 11.9199 6.00384 11.9115 6.00361C11.8959 6.00318 11.9139 6.00362 11.8728 6.00186C11.7998 5.99874 11.7244 5.99957 11.5696 6.00429L11.6305 8.00336C11.7054 8.00108 11.7464 8.00027 11.7698 8.00006C11.7808 7.99996 11.7859 8.00001 11.7873 8.00004C11.7879 8.00004 11.7873 8.00003 11.7874 8.00004C11.7936 8.0003 11.7888 8.00013 11.807 8.00099C11.8203 8.00162 11.8367 8.00231 11.8572 8.00287C11.8969 8.00395 11.9437 8.00429 12.0076 8.0038L11.9924 6.00385ZM13 11.5211C13 11.6047 12.9833 11.6413 12.9756 11.6558C12.9667 11.6724 12.9455 11.704 12.8867 11.7463C12.7501 11.8445 12.483 11.9485 12.0529 12.0064L12.3193 13.9885C12.8956 13.9111 13.5354 13.7432 14.0543 13.3701C14.6235 12.9608 15 12.3327 15 11.5211H13ZM12.1861 11.9974C11.368 11.9974 11.0577 12.0253 10.142 11.8939L9.85801 13.8736C10.9423 14.0292 11.4042 13.9974 12.1861 13.9974V11.9974ZM11 13V14H13V13H11ZM11 6V7H13V6H11ZM20 17V17.8H22V17H20ZM17.8 20H6.2V22H17.8V20ZM4 17.8V17H2V17.8H4ZM6.2 20C5.62345 20 5.25117 19.9992 4.96784 19.9761C4.69617 19.9539 4.59545 19.9162 4.54601 19.891L3.63803 21.673C4.01641 21.8658 4.40963 21.9371 4.80497 21.9694C5.18864 22.0008 5.65645 22 6.2 22V20ZM2 17.8C2 18.3436 1.99922 18.8114 2.03057 19.195C2.06287 19.5904 2.13419 19.9836 2.32698 20.362L4.10899 19.454C4.0838 19.4045 4.04612 19.3038 4.02393 19.0322C4.00078 18.7488 4 18.3766 4 17.8H2ZM4.54601 19.891C4.35785 19.7951 4.20487 19.6422 4.10899 19.454L2.32698 20.362C2.6146 20.9265 3.07354 21.3854 3.63803 21.673L4.54601 19.891ZM20 17.8C20 18.3766 19.9992 18.7488 19.9761 19.0322C19.9539 19.3038 19.9162 19.4045 19.891 19.454L21.673 20.362C21.8658 19.9836 21.9371 19.5904 21.9694 19.195C22.0008 18.8114 22 18.3436 22 17.8H20ZM17.8 22C18.3436 22 18.8114 22.0008 19.195 21.9694C19.5904 21.9371 19.9836 21.8658 20.362 21.673L19.454 19.891C19.4045 19.9162 19.3038 19.9539 19.0322 19.9761C18.7488 19.9992 18.3766 20 17.8 20V22ZM19.891 19.454C19.7951 19.6422 19.6422 19.7951 19.454 19.891L20.362 21.673C20.9265 21.3854 21.3854 20.9265 21.673 20.362L19.891 19.454Z" fill="#08BD1B"/>
</svg>
