<svg width="18" height="20" viewBox="0 0 18 20" fill="none" xmlns="http://www.w3.org/2000/svg">
<path d="M5 5H9M12 13H13M5 9H13M5 14L6 15L8 13M4.2 19H13.8C14.9201 19 15.4802 19 15.908 18.782C16.2843 18.5903 16.5903 18.2843 16.782 17.908C17 17.4802 17 16.9201 17 15.8V4.2C17 3.0799 17 2.51984 16.782 2.09202C16.5903 1.71569 16.2843 1.40973 15.908 1.21799C15.4802 1 14.9201 1 13.8 1H4.2C3.0799 1 2.51984 1 2.09202 1.21799C1.71569 1.40973 1.40973 1.71569 1.21799 2.09202C1 2.51984 1 3.07989 1 4.2V15.8C1 16.9201 1 17.4802 1.21799 17.908C1.40973 18.2843 1.71569 18.5903 2.09202 18.782C2.51984 19 3.07989 19 4.2 19Z" stroke="#08BD1B" stroke-width="2" stroke-linecap="round" stroke-linejoin="round"/>
</svg>
