<svg width="24" height="24" viewBox="0 0 24 24" fill="none" xmlns="http://www.w3.org/2000/svg">
<path d="M7 11V10C6.44772 10 6 10.4477 6 11H7ZM10 11H11C11 10.4477 10.5523 10 10 10V11ZM7 16H6C6 16.5523 6.44772 17 7 17V16ZM10 8V7C9.44772 7 9 7.44772 9 8H10ZM13 8H14C14 7.44772 13.5523 7 13 7V8ZM13 16V17C13.5523 17 14 16.5523 14 16H13ZM14.5442 19.3675L13.5955 19.0513V19.0513L14.5442 19.3675ZM14 21L13.0513 20.6838C12.9497 20.9887 13.0008 21.3239 13.1888 21.5847C13.3767 21.8455 13.6786 22 14 22V21ZM21 21V22C21.3214 22 21.6233 21.8455 21.8112 21.5847C21.9992 21.3239 22.0503 20.9887 21.9487 20.6838L21 21ZM20.4558 19.3675L21.4045 19.0513V19.0513L20.4558 19.3675ZM5.09202 19.782L5.54601 18.891H5.54601L5.09202 19.782ZM4.21799 18.908L5.10899 18.454H5.10899L4.21799 18.908ZM18.908 4.21799L18.454 5.10899V5.10899L18.908 4.21799ZM19.782 5.09202L18.891 5.54601V5.54601L19.782 5.09202ZM5.09202 4.21799L5.54601 5.10899L5.54601 5.10899L5.09202 4.21799ZM4.21799 5.09202L5.10899 5.54601V5.54601L4.21799 5.09202ZM11 21C11.5523 21 12 20.5523 12 20C12 19.4477 11.5523 19 11 19V21ZM19 9.1C19 9.65228 19.4477 10.1 20 10.1C20.5523 10.1 21 9.65228 21 9.1H19ZM18 13.5C18 13.7761 17.7761 14 17.5 14V16C18.8807 16 20 14.8807 20 13.5H18ZM17.5 14C17.2239 14 17 13.7761 17 13.5H15C15 14.8807 16.1193 16 17.5 16V14ZM17 13.5C17 13.2239 17.2239 13 17.5 13V11C16.1193 11 15 12.1193 15 13.5H17ZM17.5 13C17.7761 13 18 13.2239 18 13.5H20C20 12.1193 18.8807 11 17.5 11V13ZM7 12H10V10H7V12ZM9 11V16H11V11H9ZM10 15H7V17H10V15ZM8 16V11H6V16H8ZM10 9H13V7H10V9ZM12 8V16H14V8H12ZM13 15H10V17H13V15ZM11 16V8H9V16H11ZM18.5585 17H16.4415V19H18.5585V17ZM13.5955 19.0513L13.0513 20.6838L14.9487 21.3162L15.4928 19.6838L13.5955 19.0513ZM14 22H21V20H14V22ZM21.9487 20.6838L21.4045 19.0513L19.5072 19.6838L20.0513 21.3162L21.9487 20.6838ZM16.4415 17C15.1502 17 14.0038 17.8263 13.5955 19.0513L15.4928 19.6838C15.6289 19.2754 16.0111 19 16.4415 19V17ZM18.5585 19C18.9889 19 19.3711 19.2754 19.5072 19.6838L21.4045 19.0513C20.9962 17.8263 19.8498 17 18.5585 17V19ZM7.2 5H16.8V3H7.2V5ZM5 16.8V7.2H3V16.8H5ZM7.2 19C6.62345 19 6.25117 18.9992 5.96784 18.9761C5.69617 18.9539 5.59545 18.9162 5.54601 18.891L4.63803 20.673C5.01641 20.8658 5.40963 20.9371 5.80497 20.9694C6.18864 21.0008 6.65645 21 7.2 21V19ZM3 16.8C3 17.3436 2.99922 17.8114 3.03057 18.195C3.06287 18.5904 3.13419 18.9836 3.32698 19.362L5.10899 18.454C5.0838 18.4045 5.04612 18.3038 5.02393 18.0322C5.00078 17.7488 5 17.3766 5 16.8H3ZM5.54601 18.891C5.35785 18.7951 5.20487 18.6422 5.10899 18.454L3.32698 19.362C3.6146 19.9265 4.07354 20.3854 4.63803 20.673L5.54601 18.891ZM16.8 5C17.3766 5 17.7488 5.00078 18.0322 5.02393C18.3038 5.04612 18.4045 5.0838 18.454 5.10899L19.362 3.32698C18.9836 3.13419 18.5904 3.06287 18.195 3.03057C17.8114 2.99922 17.3436 3 16.8 3V5ZM21 7.2C21 6.65645 21.0008 6.18864 20.9694 5.80497C20.9371 5.40963 20.8658 5.01641 20.673 4.63803L18.891 5.54601C18.9162 5.59545 18.9539 5.69617 18.9761 5.96784C18.9992 6.25117 19 6.62345 19 7.2H21ZM18.454 5.10899C18.6422 5.20487 18.7951 5.35785 18.891 5.54601L20.673 4.63803C20.3854 4.07354 19.9265 3.6146 19.362 3.32698L18.454 5.10899ZM7.2 3C6.65645 3 6.18864 2.99922 5.80497 3.03057C5.40963 3.06287 5.01641 3.13419 4.63803 3.32698L5.54601 5.10899C5.59545 5.0838 5.69617 5.04612 5.96784 5.02393C6.25117 5.00078 6.62345 5 7.2 5V3ZM5 7.2C5 6.62345 5.00078 6.25117 5.02393 5.96784C5.04612 5.69617 5.0838 5.59545 5.10899 5.54601L3.32698 4.63803C3.13419 5.01641 3.06287 5.40963 3.03057 5.80497C2.99922 6.18864 3 6.65645 3 7.2H5ZM4.63803 3.32698C4.07354 3.6146 3.6146 4.07354 3.32698 4.63803L5.10899 5.54601C5.20487 5.35785 5.35785 5.20487 5.54601 5.10899L4.63803 3.32698ZM11 19H7.2V21H11V19ZM19 7.2V9.1H21V7.2H19Z" fill="#08BD1B"/>
</svg>
