<svg width="205" height="210" viewBox="0 0 205 210" fill="none" xmlns="http://www.w3.org/2000/svg">
<path d="M39.1797 170V159.818H42.62C43.4155 159.818 44.0684 159.954 44.5788 160.226C45.0893 160.494 45.4671 160.864 45.7124 161.335C45.9576 161.805 46.0803 162.34 46.0803 162.94C46.0803 163.54 45.9576 164.072 45.7124 164.536C45.4671 165 45.0909 165.365 44.5838 165.63C44.0767 165.892 43.4287 166.023 42.6399 166.023H39.8558V164.909H42.6001C43.1437 164.909 43.5812 164.83 43.9126 164.67C44.2474 164.511 44.4893 164.286 44.6385 163.994C44.791 163.699 44.8672 163.348 44.8672 162.94C44.8672 162.533 44.791 162.176 44.6385 161.871C44.486 161.567 44.2424 161.331 43.9077 161.165C43.5729 160.996 43.1304 160.912 42.5803 160.912H40.4126V170H39.1797ZM43.9723 165.426L46.478 170H45.0462L42.5803 165.426H43.9723Z" fill="#404040"/>
<path d="M47.9757 170V162.364H49.149V170H47.9757ZM48.5723 161.091C48.3436 161.091 48.1464 161.013 47.9806 160.857C47.8182 160.701 47.737 160.514 47.737 160.295C47.737 160.077 47.8182 159.889 47.9806 159.734C48.1464 159.578 48.3436 159.5 48.5723 159.5C48.801 159.5 48.9965 159.578 49.1589 159.734C49.3246 159.889 49.4075 160.077 49.4075 160.295C49.4075 160.514 49.3246 160.701 49.1589 160.857C48.9965 161.013 48.801 161.091 48.5723 161.091Z" fill="#404040"/>
<path d="M56.707 164.074L55.6531 164.372C55.5868 164.196 55.489 164.026 55.3597 163.86C55.2338 163.691 55.0614 163.552 54.8427 163.442C54.6239 163.333 54.3439 163.278 54.0025 163.278C53.5352 163.278 53.1457 163.386 52.8342 163.602C52.5259 163.814 52.3718 164.084 52.3718 164.412C52.3718 164.704 52.4779 164.934 52.69 165.103C52.9021 165.272 53.2335 165.413 53.6843 165.526L54.8178 165.804C55.5006 165.97 56.0094 166.223 56.3441 166.565C56.6789 166.903 56.8462 167.339 56.8462 167.872C56.8462 168.31 56.7203 168.701 56.4684 169.045C56.2198 169.39 55.8718 169.662 55.4244 169.861C54.9769 170.06 54.4566 170.159 53.8633 170.159C53.0844 170.159 52.4397 169.99 51.9293 169.652C51.4189 169.314 51.0958 168.82 50.9599 168.17L52.0735 167.892C52.1796 168.303 52.3801 168.611 52.6751 168.817C52.9734 169.022 53.3628 169.125 53.8434 169.125C54.3903 169.125 54.8245 169.009 55.146 168.777C55.4708 168.542 55.6332 168.26 55.6332 167.932C55.6332 167.667 55.5404 167.445 55.3548 167.266C55.1691 167.083 54.8841 166.947 54.4996 166.858L53.2269 166.56C52.5276 166.394 52.0138 166.137 51.6857 165.789C51.3609 165.438 51.1985 164.999 51.1985 164.472C51.1985 164.041 51.3195 163.66 51.5614 163.328C51.8067 162.997 52.1398 162.737 52.5607 162.548C52.985 162.359 53.4656 162.264 54.0025 162.264C54.7582 162.264 55.3514 162.43 55.7823 162.761C56.2165 163.093 56.5247 163.53 56.707 164.074Z" fill="#404040"/>
<path d="M59.7061 167.216L59.6863 165.764H59.9249L63.2658 162.364H64.7175L61.1578 165.963H61.0584L59.7061 167.216ZM58.6124 170V159.818H59.7857V170H58.6124ZM63.4647 170L60.4817 166.222L61.3169 165.406L64.9561 170H63.4647Z" fill="#404040"/>
<path d="M73.0487 170.139C72.3791 170.139 71.8024 170.017 71.3185 169.771C70.8346 169.526 70.4618 169.19 70.1999 168.762C69.9381 168.335 69.8072 167.846 69.8072 167.295C69.8072 166.871 69.8967 166.495 70.0756 166.167C70.2579 165.835 70.5082 165.529 70.8263 165.247C71.1478 164.962 71.5174 164.677 71.935 164.392L73.4066 163.298C73.695 163.109 73.9253 162.907 74.0977 162.692C74.2733 162.476 74.3612 162.195 74.3612 161.847C74.3612 161.588 74.2468 161.338 74.0181 161.096C73.7927 160.854 73.4961 160.733 73.1282 160.733C72.8697 160.733 72.641 160.799 72.4421 160.932C72.2466 161.061 72.0924 161.227 71.9798 161.429C71.8704 161.628 71.8157 161.833 71.8157 162.045C71.8157 162.284 71.8803 162.526 72.0096 162.771C72.1422 163.013 72.3095 163.262 72.5117 163.517C72.7172 163.769 72.9293 164.027 73.1481 164.293L77.8214 170H76.4094L72.5515 165.347C72.1935 164.916 71.8687 164.525 71.5771 164.173C71.2854 163.822 71.0534 163.476 70.881 163.134C70.7087 162.793 70.6225 162.423 70.6225 162.026C70.6225 161.568 70.7236 161.167 70.9258 160.822C71.1313 160.474 71.418 160.204 71.7859 160.012C72.1571 159.817 72.5913 159.719 73.0884 159.719C73.5988 159.719 74.038 159.818 74.4059 160.017C74.7738 160.213 75.0572 160.473 75.256 160.798C75.4549 161.119 75.5543 161.469 75.5543 161.847C75.5543 162.334 75.4334 162.756 75.1914 163.114C74.9495 163.472 74.6197 163.805 74.2021 164.114L72.1737 165.625C71.7163 165.963 71.4064 166.291 71.244 166.609C71.0816 166.928 71.0004 167.156 71.0004 167.295C71.0004 167.614 71.0832 167.91 71.2489 168.185C71.4147 168.46 71.6483 168.683 71.9499 168.852C72.2515 169.021 72.6045 169.105 73.0089 169.105C73.3933 169.105 73.7679 169.024 74.1325 168.862C74.497 168.696 74.8268 168.457 75.1218 168.146C75.4201 167.834 75.6554 167.46 75.8278 167.022C76.0034 166.585 76.0913 166.092 76.0913 165.545H77.2248C77.2248 166.222 77.1469 166.773 76.9911 167.201C76.8353 167.629 76.6597 167.963 76.4641 168.205C76.2686 168.447 76.1111 168.628 75.9918 168.747C75.9521 168.797 75.9156 168.847 75.8825 168.896C75.8493 168.946 75.8129 168.996 75.7731 169.045C75.445 169.413 75.0307 169.688 74.5302 169.871C74.0297 170.05 73.5359 170.139 73.0487 170.139Z" fill="#404040"/>
<path d="M86.16 170.159C85.4706 170.159 84.8657 169.995 84.3453 169.667C83.8283 169.339 83.4239 168.88 83.1323 168.29C82.8439 167.7 82.6998 167.01 82.6998 166.222C82.6998 165.426 82.8439 164.732 83.1323 164.138C83.4239 163.545 83.8283 163.085 84.3453 162.756C84.8657 162.428 85.4706 162.264 86.16 162.264C86.8494 162.264 87.4526 162.428 87.9696 162.756C88.49 163.085 88.8943 163.545 89.1827 164.138C89.4744 164.732 89.6202 165.426 89.6202 166.222C89.6202 167.01 89.4744 167.7 89.1827 168.29C88.8943 168.88 88.49 169.339 87.9696 169.667C87.4526 169.995 86.8494 170.159 86.16 170.159ZM86.16 169.105C86.6837 169.105 87.1145 168.971 87.4526 168.702C87.7907 168.434 88.0409 168.081 88.2033 167.643C88.3657 167.206 88.4469 166.732 88.4469 166.222C88.4469 165.711 88.3657 165.236 88.2033 164.795C88.0409 164.354 87.7907 163.998 87.4526 163.726C87.1145 163.454 86.6837 163.318 86.16 163.318C85.6363 163.318 85.2054 163.454 84.8674 163.726C84.5293 163.998 84.2791 164.354 84.1167 164.795C83.9542 165.236 83.873 165.711 83.873 166.222C83.873 166.732 83.9542 167.206 84.1167 167.643C84.2791 168.081 84.5293 168.434 84.8674 168.702C85.2054 168.971 85.6363 169.105 86.16 169.105Z" fill="#404040"/>
<path d="M91.4112 172.864V162.364H92.5447V163.577H92.6839C92.7701 163.444 92.8894 163.275 93.0419 163.07C93.1977 162.861 93.4197 162.675 93.7081 162.513C93.9998 162.347 94.3942 162.264 94.8913 162.264C95.5343 162.264 96.1011 162.425 96.5916 162.746C97.0822 163.068 97.465 163.524 97.7401 164.114C98.0152 164.704 98.1527 165.4 98.1527 166.202C98.1527 167.01 98.0152 167.711 97.7401 168.305C97.465 168.895 97.0838 169.352 96.5966 169.677C96.1094 169.998 95.5476 170.159 94.9112 170.159C94.4207 170.159 94.0279 170.078 93.733 169.915C93.438 169.75 93.2109 169.562 93.0518 169.354C92.8928 169.142 92.7701 168.966 92.6839 168.827H92.5845V172.864H91.4112ZM92.5646 166.182C92.5646 166.759 92.6491 167.267 92.8182 167.708C92.9872 168.146 93.2341 168.489 93.5589 168.737C93.8838 168.982 94.2815 169.105 94.7521 169.105C95.2427 169.105 95.652 168.976 95.9801 168.717C96.3115 168.455 96.5601 168.104 96.7259 167.663C96.8949 167.219 96.9794 166.725 96.9794 166.182C96.9794 165.645 96.8965 165.161 96.7308 164.73C96.5684 164.296 96.3215 163.953 95.9901 163.701C95.6619 163.446 95.2493 163.318 94.7521 163.318C94.2749 163.318 93.8738 163.439 93.549 163.681C93.2242 163.92 92.9789 164.254 92.8132 164.685C92.6475 165.113 92.5646 165.612 92.5646 166.182Z" fill="#404040"/>
<path d="M99.9425 172.864V162.364H101.076V163.577H101.215C101.301 163.444 101.421 163.275 101.573 163.07C101.729 162.861 101.951 162.675 102.239 162.513C102.531 162.347 102.925 162.264 103.423 162.264C104.066 162.264 104.632 162.425 105.123 162.746C105.613 163.068 105.996 163.524 106.271 164.114C106.546 164.704 106.684 165.4 106.684 166.202C106.684 167.01 106.546 167.711 106.271 168.305C105.996 168.895 105.615 169.352 105.128 169.677C104.641 169.998 104.079 170.159 103.442 170.159C102.952 170.159 102.559 170.078 102.264 169.915C101.969 169.75 101.742 169.562 101.583 169.354C101.424 169.142 101.301 168.966 101.215 168.827H101.116V172.864H99.9425ZM101.096 166.182C101.096 166.759 101.18 167.267 101.349 167.708C101.518 168.146 101.765 168.489 102.09 168.737C102.415 168.982 102.813 169.105 103.283 169.105C103.774 169.105 104.183 168.976 104.511 168.717C104.843 168.455 105.091 168.104 105.257 167.663C105.426 167.219 105.511 166.725 105.511 166.182C105.511 165.645 105.428 165.161 105.262 164.73C105.1 164.296 104.853 163.953 104.521 163.701C104.193 163.446 103.781 163.318 103.283 163.318C102.806 163.318 102.405 163.439 102.08 163.681C101.755 163.92 101.51 164.254 101.344 164.685C101.179 165.113 101.096 165.612 101.096 166.182Z" fill="#404040"/>
<path d="M111.576 170.159C110.887 170.159 110.282 169.995 109.761 169.667C109.244 169.339 108.84 168.88 108.548 168.29C108.26 167.7 108.116 167.01 108.116 166.222C108.116 165.426 108.26 164.732 108.548 164.138C108.84 163.545 109.244 163.085 109.761 162.756C110.282 162.428 110.887 162.264 111.576 162.264C112.265 162.264 112.869 162.428 113.386 162.756C113.906 163.085 114.31 163.545 114.599 164.138C114.89 164.732 115.036 165.426 115.036 166.222C115.036 167.01 114.89 167.7 114.599 168.29C114.31 168.88 113.906 169.339 113.386 169.667C112.869 169.995 112.265 170.159 111.576 170.159ZM111.576 169.105C112.1 169.105 112.531 168.971 112.869 168.702C113.207 168.434 113.457 168.081 113.619 167.643C113.782 167.206 113.863 166.732 113.863 166.222C113.863 165.711 113.782 165.236 113.619 164.795C113.457 164.354 113.207 163.998 112.869 163.726C112.531 163.454 112.1 163.318 111.576 163.318C111.052 163.318 110.621 163.454 110.283 163.726C109.945 163.998 109.695 164.354 109.533 164.795C109.37 165.236 109.289 165.711 109.289 166.222C109.289 166.732 109.37 167.206 109.533 167.643C109.695 168.081 109.945 168.434 110.283 168.702C110.621 168.971 111.052 169.105 111.576 169.105Z" fill="#404040"/>
<path d="M116.827 170V162.364H117.961V163.517H118.04C118.18 163.139 118.431 162.833 118.796 162.597C119.161 162.362 119.572 162.244 120.029 162.244C120.115 162.244 120.223 162.246 120.352 162.249C120.481 162.253 120.579 162.258 120.645 162.264V163.457C120.606 163.447 120.514 163.433 120.372 163.413C120.233 163.389 120.085 163.378 119.93 163.378C119.558 163.378 119.227 163.456 118.935 163.612C118.647 163.764 118.418 163.976 118.249 164.248C118.083 164.516 118.001 164.823 118.001 165.168V170H116.827Z" fill="#404040"/>
<path d="M125.836 162.364V163.358H121.878V162.364H125.836ZM123.032 160.534H124.205V167.812C124.205 168.144 124.253 168.393 124.349 168.558C124.449 168.721 124.575 168.83 124.727 168.886C124.883 168.939 125.047 168.966 125.219 168.966C125.349 168.966 125.455 168.959 125.537 168.946C125.62 168.929 125.687 168.916 125.736 168.906L125.975 169.96C125.895 169.99 125.784 170.02 125.642 170.05C125.499 170.083 125.319 170.099 125.1 170.099C124.769 170.099 124.444 170.028 124.126 169.886C123.811 169.743 123.549 169.526 123.34 169.234C123.135 168.943 123.032 168.575 123.032 168.131V160.534Z" fill="#404040"/>
<path d="M132.413 166.878V162.364H133.586V170H132.413V168.707H132.334C132.155 169.095 131.876 169.425 131.498 169.697C131.121 169.965 130.643 170.099 130.067 170.099C129.589 170.099 129.165 169.995 128.794 169.786C128.423 169.574 128.131 169.256 127.919 168.832C127.707 168.404 127.601 167.866 127.601 167.216V162.364H128.774V167.136C128.774 167.693 128.93 168.137 129.241 168.469C129.556 168.8 129.957 168.966 130.444 168.966C130.736 168.966 131.033 168.891 131.334 168.742C131.639 168.593 131.894 168.364 132.1 168.056C132.309 167.748 132.413 167.355 132.413 166.878Z" fill="#404040"/>
<path d="M136.909 165.406V170H135.735V162.364H136.869V163.557H136.968C137.147 163.169 137.419 162.857 137.784 162.622C138.148 162.384 138.619 162.264 139.196 162.264C139.713 162.264 140.165 162.37 140.553 162.582C140.941 162.791 141.242 163.109 141.458 163.537C141.673 163.961 141.781 164.498 141.781 165.148V170H140.608V165.227C140.608 164.627 140.452 164.16 140.14 163.825C139.829 163.487 139.401 163.318 138.858 163.318C138.483 163.318 138.148 163.399 137.853 163.562C137.562 163.724 137.331 163.961 137.162 164.273C136.993 164.584 136.909 164.962 136.909 165.406Z" fill="#404040"/>
<path d="M143.925 170V162.364H145.098V170H143.925ZM144.521 161.091C144.293 161.091 144.096 161.013 143.93 160.857C143.767 160.701 143.686 160.514 143.686 160.295C143.686 160.077 143.767 159.889 143.93 159.734C144.096 159.578 144.293 159.5 144.521 159.5C144.75 159.5 144.946 159.578 145.108 159.734C145.274 159.889 145.357 160.077 145.357 160.295C145.357 160.514 145.274 160.701 145.108 160.857C144.946 161.013 144.75 161.091 144.521 161.091Z" fill="#404040"/>
<path d="M150.568 162.364V163.358H146.611V162.364H150.568ZM147.764 160.534H148.938V167.812C148.938 168.144 148.986 168.393 149.082 168.558C149.181 168.721 149.307 168.83 149.46 168.886C149.615 168.939 149.779 168.966 149.952 168.966C150.081 168.966 150.187 168.959 150.27 168.946C150.353 168.929 150.419 168.916 150.469 168.906L150.707 169.96C150.628 169.99 150.517 170.02 150.374 170.05C150.232 170.083 150.051 170.099 149.832 170.099C149.501 170.099 149.176 170.028 148.858 169.886C148.543 169.743 148.281 169.526 148.072 169.234C147.867 168.943 147.764 168.575 147.764 168.131V160.534Z" fill="#404040"/>
<path d="M153.089 172.864C152.89 172.864 152.713 172.847 152.557 172.814C152.401 172.784 152.293 172.754 152.234 172.724L152.532 171.69C152.817 171.763 153.069 171.79 153.288 171.77C153.506 171.75 153.7 171.652 153.869 171.477C154.042 171.304 154.199 171.024 154.342 170.636L154.56 170.04L151.737 162.364H153.009L155.117 168.449H155.197L157.305 162.364H158.577L155.336 171.114C155.19 171.508 155.009 171.835 154.794 172.093C154.579 172.355 154.328 172.549 154.043 172.675C153.762 172.801 153.443 172.864 153.089 172.864Z" fill="#404040"/>
<path d="M59.2295 188V177.818H60.4028V181.577H60.5022C60.5884 181.444 60.7077 181.275 60.8602 181.07C61.0159 180.861 61.238 180.675 61.5264 180.513C61.818 180.347 62.2124 180.264 62.7096 180.264C63.3526 180.264 63.9194 180.425 64.4099 180.746C64.9004 181.068 65.2832 181.524 65.5583 182.114C65.8334 182.704 65.971 183.4 65.971 184.202C65.971 185.01 65.8334 185.711 65.5583 186.305C65.2832 186.895 64.9021 187.352 64.4149 187.677C63.9276 187.998 63.3659 188.159 62.7295 188.159C62.239 188.159 61.8462 188.078 61.5512 187.915C61.2562 187.75 61.0292 187.563 60.8701 187.354C60.711 187.142 60.5884 186.966 60.5022 186.827H60.363V188H59.2295ZM60.3829 184.182C60.3829 184.759 60.4674 185.267 60.6365 185.708C60.8055 186.146 61.0524 186.489 61.3772 186.737C61.702 186.982 62.0998 187.105 62.5704 187.105C63.0609 187.105 63.4703 186.976 63.7984 186.717C64.1298 186.455 64.3784 186.104 64.5441 185.663C64.7132 185.219 64.7977 184.725 64.7977 184.182C64.7977 183.645 64.7148 183.161 64.5491 182.73C64.3867 182.296 64.1398 181.953 63.8083 181.701C63.4802 181.446 63.0676 181.318 62.5704 181.318C62.0931 181.318 61.6921 181.439 61.3673 181.681C61.0425 181.92 60.7972 182.254 60.6315 182.685C60.4658 183.113 60.3829 183.612 60.3829 184.182Z" fill="#404040"/>
<path d="M70.9674 188.159C70.2316 188.159 69.5969 187.997 69.0633 187.672C68.533 187.344 68.1237 186.886 67.8353 186.3C67.5503 185.71 67.4078 185.024 67.4078 184.241C67.4078 183.459 67.5503 182.77 67.8353 182.173C68.1237 181.573 68.5247 181.106 69.0384 180.771C69.5555 180.433 70.1587 180.264 70.8481 180.264C71.2458 180.264 71.6386 180.33 72.0264 180.463C72.4142 180.596 72.7671 180.811 73.0853 181.109C73.4035 181.404 73.657 181.795 73.846 182.283C74.0349 182.77 74.1293 183.37 74.1293 184.082V184.58H68.243V183.565H72.9362C72.9362 183.134 72.85 182.75 72.6776 182.412C72.5086 182.074 72.2667 181.807 71.9518 181.612C71.6402 181.416 71.2723 181.318 70.8481 181.318C70.3808 181.318 69.9764 181.434 69.635 181.666C69.297 181.895 69.0368 182.193 68.8545 182.561C68.6722 182.929 68.5811 183.323 68.5811 183.744V184.42C68.5811 184.997 68.6805 185.486 68.8793 185.887C69.0815 186.285 69.3616 186.588 69.7196 186.797C70.0775 187.002 70.4935 187.105 70.9674 187.105C71.2757 187.105 71.5541 187.062 71.8026 186.976C72.0545 186.886 72.2716 186.754 72.4539 186.578C72.6362 186.399 72.7771 186.177 72.8765 185.912L74.01 186.23C73.8907 186.615 73.6902 186.953 73.4085 187.244C73.1267 187.533 72.7787 187.758 72.3644 187.92C71.9501 188.08 71.4845 188.159 70.9674 188.159Z" fill="#404040"/>
<path d="M77.0874 183.406V188H75.9141V180.364H77.0477V181.557H77.1471C77.3261 181.169 77.5979 180.857 77.9624 180.622C78.327 180.384 78.7977 180.264 79.3744 180.264C79.8914 180.264 80.3438 180.37 80.7316 180.582C81.1194 180.791 81.421 181.109 81.6365 181.537C81.8519 181.961 81.9596 182.498 81.9596 183.148V188H80.7863V183.227C80.7863 182.627 80.6305 182.16 80.319 181.825C80.0074 181.487 79.5799 181.318 79.0363 181.318C78.6618 181.318 78.327 181.399 78.0321 181.562C77.7404 181.724 77.51 181.961 77.341 182.273C77.172 182.584 77.0874 182.962 77.0874 183.406Z" fill="#404040"/>
<path d="M87.2059 188.159C86.49 188.159 85.8735 187.99 85.3564 187.652C84.8394 187.314 84.4417 186.848 84.1633 186.255C83.8849 185.662 83.7457 184.984 83.7457 184.222C83.7457 183.446 83.8882 182.762 84.1732 182.168C84.4616 181.572 84.8626 181.106 85.3763 180.771C85.8934 180.433 86.4966 180.264 87.186 180.264C87.7229 180.264 88.2068 180.364 88.6377 180.562C89.0686 180.761 89.4215 181.04 89.6966 181.398C89.9717 181.756 90.1424 182.173 90.2087 182.651H89.0354C88.9459 182.303 88.7471 181.994 88.4388 181.726C88.1339 181.454 87.7229 181.318 87.2059 181.318C86.7485 181.318 86.3475 181.437 86.0028 181.676C85.6614 181.911 85.3946 182.245 85.2023 182.675C85.0134 183.103 84.9189 183.605 84.9189 184.182C84.9189 184.772 85.0117 185.286 85.1973 185.723C85.3863 186.161 85.6514 186.5 85.9928 186.742C86.3375 186.984 86.7419 187.105 87.2059 187.105C87.5108 187.105 87.7876 187.052 88.0361 186.946C88.2847 186.84 88.4952 186.687 88.6675 186.489C88.8399 186.29 88.9625 186.051 89.0354 185.773H90.2087C90.1424 186.223 89.9784 186.629 89.7165 186.991C89.458 187.349 89.115 187.634 88.6874 187.846C88.2632 188.055 87.7693 188.159 87.2059 188.159Z" fill="#404040"/>
<path d="M93.0972 183.406V188H91.9239V177.818H93.0972V181.557H93.1966C93.3756 181.162 93.6441 180.849 94.002 180.617C94.3633 180.382 94.8439 180.264 95.4438 180.264C95.9642 180.264 96.4199 180.369 96.811 180.577C97.2021 180.783 97.5054 181.099 97.7208 181.527C97.9395 181.951 98.0489 182.491 98.0489 183.148V188H96.8756V183.227C96.8756 182.621 96.7182 182.152 96.4033 181.82C96.0918 181.486 95.6592 181.318 95.1057 181.318C94.7213 181.318 94.3766 181.399 94.0716 181.562C93.77 181.724 93.5314 181.961 93.3557 182.273C93.1834 182.584 93.0972 182.962 93.0972 183.406Z" fill="#404040"/>
<path d="M100.195 188V180.364H101.329V181.557H101.428C101.587 181.149 101.844 180.833 102.199 180.607C102.554 180.379 102.979 180.264 103.477 180.264C103.98 180.264 104.4 180.379 104.734 180.607C105.073 180.833 105.336 181.149 105.525 181.557H105.604C105.8 181.162 106.093 180.849 106.484 180.617C106.876 180.382 107.345 180.264 107.891 180.264C108.574 180.264 109.133 180.478 109.567 180.906C110.001 181.33 110.218 181.991 110.218 182.889V188H109.045V182.889C109.045 182.326 108.891 181.923 108.582 181.681C108.274 181.439 107.911 181.318 107.494 181.318C106.957 181.318 106.541 181.481 106.246 181.805C105.951 182.127 105.803 182.535 105.803 183.028V188H104.61V182.77C104.61 182.336 104.469 181.986 104.188 181.721C103.906 181.452 103.543 181.318 103.099 181.318C102.794 181.318 102.509 181.399 102.244 181.562C101.982 181.724 101.77 181.95 101.607 182.238C101.448 182.523 101.369 182.853 101.369 183.227V188H100.195Z" fill="#404040"/>
<path d="M114.611 188.179C114.127 188.179 113.687 188.088 113.293 187.906C112.899 187.72 112.585 187.453 112.353 187.105C112.121 186.754 112.005 186.33 112.005 185.832C112.005 185.395 112.092 185.04 112.264 184.768C112.436 184.493 112.667 184.278 112.955 184.122C113.243 183.966 113.562 183.85 113.91 183.774C114.261 183.695 114.614 183.632 114.968 183.585C115.432 183.526 115.809 183.481 116.097 183.451C116.389 183.418 116.601 183.363 116.733 183.287C116.869 183.211 116.937 183.078 116.937 182.889V182.849C116.937 182.359 116.803 181.978 116.535 181.706C116.269 181.434 115.867 181.298 115.326 181.298C114.766 181.298 114.327 181.421 114.009 181.666C113.691 181.911 113.467 182.173 113.338 182.452L112.224 182.054C112.423 181.59 112.688 181.229 113.02 180.97C113.354 180.708 113.719 180.526 114.113 180.423C114.511 180.317 114.902 180.264 115.287 180.264C115.532 180.264 115.814 180.294 116.132 180.354C116.453 180.41 116.763 180.528 117.062 180.707C117.363 180.886 117.613 181.156 117.812 181.517C118.011 181.878 118.111 182.362 118.111 182.969V188H116.937V186.966H116.878C116.798 187.132 116.665 187.309 116.48 187.498C116.294 187.687 116.047 187.848 115.739 187.98C115.431 188.113 115.055 188.179 114.611 188.179ZM114.79 187.125C115.254 187.125 115.645 187.034 115.963 186.852C116.284 186.669 116.526 186.434 116.689 186.146C116.854 185.857 116.937 185.554 116.937 185.236V184.162C116.888 184.222 116.778 184.276 116.609 184.326C116.443 184.372 116.251 184.414 116.032 184.45C115.817 184.483 115.607 184.513 115.401 184.54C115.199 184.563 115.035 184.583 114.909 184.599C114.604 184.639 114.319 184.704 114.054 184.793C113.792 184.879 113.58 185.01 113.417 185.186C113.258 185.358 113.179 185.594 113.179 185.892C113.179 186.3 113.33 186.608 113.631 186.817C113.936 187.022 114.322 187.125 114.79 187.125Z" fill="#404040"/>
<path d="M120.252 188V180.364H121.386V181.517H121.465C121.604 181.139 121.856 180.833 122.221 180.597C122.585 180.362 122.996 180.244 123.454 180.244C123.54 180.244 123.648 180.246 123.777 180.249C123.906 180.253 124.004 180.258 124.07 180.264V181.457C124.03 181.447 123.939 181.433 123.797 181.413C123.658 181.389 123.51 181.378 123.354 181.378C122.983 181.378 122.652 181.456 122.36 181.612C122.072 181.764 121.843 181.976 121.674 182.248C121.508 182.516 121.425 182.823 121.425 183.168V188H120.252Z" fill="#404040"/>
<path d="M126.555 185.216L126.535 183.764H126.774L130.114 180.364H131.566L128.006 183.963H127.907L126.555 185.216ZM125.461 188V177.818H126.634V188H125.461ZM130.313 188L127.33 184.222L128.166 183.406L131.805 188H130.313Z" fill="#404040"/>
<path d="M135.025 183.545L135.105 181.358L133.255 182.531L132.778 181.696L134.727 180.682L132.778 179.668L133.255 178.832L135.105 180.006L135.025 177.818H135.98L135.9 180.006L137.75 178.832L138.227 179.668L136.278 180.682L138.227 181.696L137.75 182.531L135.9 181.358L135.98 183.545H135.025Z" fill="#404040"/>
<path d="M56.0689 153L61.0178 143.205V143.125H55.2734V141.364H63.1996V143.165L58.2564 153H56.0689Z" fill="#404040"/>
<path d="M68.9226 153.159C68.165 153.159 67.487 153.017 66.8885 152.733C66.29 152.445 65.8146 152.051 65.4624 151.551C65.1139 151.051 64.9283 150.479 64.9055 149.835H66.951C66.9889 150.313 67.1953 150.703 67.5703 151.006C67.9453 151.305 68.3961 151.455 68.9226 151.455C69.3355 151.455 69.7029 151.36 70.0249 151.17C70.3468 150.981 70.6006 150.718 70.7862 150.381C70.9718 150.044 71.0627 149.659 71.0589 149.227C71.0627 148.788 70.9699 148.398 70.7805 148.057C70.5911 147.716 70.3317 147.449 70.0021 147.256C69.6726 147.059 69.2938 146.96 68.8658 146.96C68.5173 146.956 68.1745 147.021 67.8374 147.153C67.5002 147.286 67.2332 147.46 67.0362 147.676L65.1328 147.364L65.7408 141.364H72.4908V143.125H67.4851L67.1499 146.21H67.218C67.4339 145.956 67.7389 145.746 68.1328 145.58C68.5268 145.409 68.9586 145.324 69.4283 145.324C70.1328 145.324 70.7616 145.491 71.3146 145.824C71.8677 146.153 72.3033 146.608 72.6214 147.188C72.9396 147.767 73.0987 148.43 73.0987 149.176C73.0987 149.945 72.9207 150.631 72.5646 151.233C72.2124 151.831 71.7218 152.303 71.093 152.648C70.468 152.989 69.7446 153.159 68.9226 153.159Z" fill="#404040"/>
<path d="M81.2237 150.818V150.205C81.2237 149.754 81.3184 149.339 81.5078 148.96C81.701 148.581 81.9813 148.277 82.3487 148.045C82.7161 147.814 83.1612 147.699 83.6839 147.699C84.2218 147.699 84.6726 147.814 85.0362 148.045C85.3999 148.273 85.6745 148.576 85.8601 148.955C86.0495 149.333 86.1442 149.75 86.1442 150.205V150.818C86.1442 151.269 86.0495 151.684 85.8601 152.063C85.6707 152.441 85.3923 152.746 85.0249 152.977C84.6612 153.208 84.2143 153.324 83.6839 153.324C83.1536 153.324 82.7048 153.208 82.3374 152.977C81.9699 152.746 81.6915 152.441 81.5021 152.063C81.3165 151.684 81.2237 151.269 81.2237 150.818ZM82.7067 150.205V150.818C82.7067 151.117 82.7786 151.392 82.9226 151.642C83.0665 151.892 83.3203 152.017 83.6839 152.017C84.0514 152.017 84.3033 151.894 84.4396 151.648C84.5798 151.398 84.6499 151.121 84.6499 150.818V150.205C84.6499 149.902 84.5836 149.625 84.451 149.375C84.3184 149.121 84.0627 148.994 83.6839 148.994C83.3279 148.994 83.076 149.121 82.9283 149.375C82.7805 149.625 82.7067 149.902 82.7067 150.205ZM75.3089 144.159V143.545C75.3089 143.091 75.4055 142.674 75.5987 142.295C75.7919 141.917 76.0722 141.614 76.4396 141.386C76.8071 141.155 77.2521 141.04 77.7749 141.04C78.309 141.04 78.7578 141.155 79.1214 141.386C79.4889 141.614 79.7654 141.917 79.951 142.295C80.1366 142.674 80.2294 143.091 80.2294 143.545V144.159C80.2294 144.614 80.1347 145.03 79.9453 145.409C79.7597 145.784 79.4832 146.085 79.1158 146.313C78.7483 146.54 78.3014 146.653 77.7749 146.653C77.2408 146.653 76.79 146.54 76.4226 146.313C76.0589 146.085 75.7824 145.782 75.593 145.403C75.4036 145.025 75.3089 144.61 75.3089 144.159ZM76.8033 143.545V144.159C76.8033 144.462 76.8733 144.739 77.0135 144.989C77.1574 145.235 77.4112 145.358 77.7749 145.358C78.1385 145.358 78.3885 145.235 78.5249 144.989C78.665 144.739 78.7351 144.462 78.7351 144.159V143.545C78.7351 143.242 78.6688 142.966 78.5362 142.716C78.4036 142.462 78.1499 142.335 77.7749 142.335C77.415 142.335 77.1631 142.462 77.0192 142.716C76.8752 142.97 76.8033 143.246 76.8033 143.545ZM75.9567 153L83.9567 141.364H85.3771L77.3771 153H75.9567Z" fill="#404040"/>
<path d="M97.7834 146.335V148.028H92.5447V146.335H97.7834Z" fill="#404040"/>
<path d="M108.626 141.364V153H106.518V143.415H106.45L103.728 145.153V143.222L106.62 141.364H108.626Z" fill="#404040"/>
<path d="M115.881 153.222C114.946 153.222 114.143 152.985 113.472 152.511C112.806 152.034 112.292 151.347 111.933 150.449C111.576 149.547 111.398 148.462 111.398 147.193C111.402 145.924 111.582 144.845 111.938 143.955C112.298 143.061 112.811 142.379 113.478 141.909C114.148 141.439 114.95 141.205 115.881 141.205C116.813 141.205 117.614 141.439 118.285 141.909C118.955 142.379 119.469 143.061 119.825 143.955C120.184 144.849 120.364 145.928 120.364 147.193C120.364 148.466 120.184 149.553 119.825 150.455C119.469 151.352 118.955 152.038 118.285 152.511C117.618 152.985 116.817 153.222 115.881 153.222ZM115.881 151.443C116.609 151.443 117.183 151.085 117.603 150.369C118.027 149.65 118.239 148.591 118.239 147.193C118.239 146.269 118.143 145.492 117.95 144.864C117.756 144.235 117.484 143.761 117.131 143.443C116.779 143.121 116.362 142.96 115.881 142.96C115.158 142.96 114.586 143.32 114.165 144.04C113.745 144.756 113.533 145.807 113.529 147.193C113.525 148.121 113.618 148.902 113.808 149.534C114.001 150.167 114.273 150.644 114.626 150.966C114.978 151.284 115.397 151.443 115.881 151.443Z" fill="#404040"/>
<path d="M126.553 153.222C125.618 153.222 124.815 152.985 124.144 152.511C123.478 152.034 122.964 151.347 122.604 150.449C122.248 149.547 122.07 148.462 122.07 147.193C122.074 145.924 122.254 144.845 122.61 143.955C122.97 143.061 123.483 142.379 124.15 141.909C124.82 141.439 125.621 141.205 126.553 141.205C127.485 141.205 128.286 141.439 128.957 141.909C129.627 142.379 130.14 143.061 130.496 143.955C130.856 144.849 131.036 145.928 131.036 147.193C131.036 148.466 130.856 149.553 130.496 150.455C130.14 151.352 129.627 152.038 128.957 152.511C128.29 152.985 127.489 153.222 126.553 153.222ZM126.553 151.443C127.281 151.443 127.854 151.085 128.275 150.369C128.699 149.65 128.911 148.591 128.911 147.193C128.911 146.269 128.815 145.492 128.621 144.864C128.428 144.235 128.156 143.761 127.803 143.443C127.451 143.121 127.034 142.96 126.553 142.96C125.83 142.96 125.258 143.32 124.837 144.04C124.417 144.756 124.205 145.807 124.201 147.193C124.197 148.121 124.29 148.902 124.479 149.534C124.673 150.167 124.945 150.644 125.298 150.966C125.65 151.284 126.068 151.443 126.553 151.443Z" fill="#404040"/>
<path d="M139.146 150.818V150.205C139.146 149.754 139.24 149.339 139.43 148.96C139.623 148.581 139.903 148.277 140.271 148.045C140.638 147.814 141.083 147.699 141.606 147.699C142.144 147.699 142.594 147.814 142.958 148.045C143.322 148.273 143.596 148.576 143.782 148.955C143.971 149.333 144.066 149.75 144.066 150.205V150.818C144.066 151.269 143.971 151.684 143.782 152.063C143.593 152.441 143.314 152.746 142.947 152.977C142.583 153.208 142.136 153.324 141.606 153.324C141.076 153.324 140.627 153.208 140.259 152.977C139.892 152.746 139.613 152.441 139.424 152.063C139.238 151.684 139.146 151.269 139.146 150.818ZM140.629 150.205V150.818C140.629 151.117 140.701 151.392 140.844 151.642C140.988 151.892 141.242 152.017 141.606 152.017C141.973 152.017 142.225 151.894 142.362 151.648C142.502 151.398 142.572 151.121 142.572 150.818V150.205C142.572 149.902 142.505 149.625 142.373 149.375C142.24 149.121 141.985 148.994 141.606 148.994C141.25 148.994 140.998 149.121 140.85 149.375C140.702 149.625 140.629 149.902 140.629 150.205ZM133.231 144.159V143.545C133.231 143.091 133.327 142.674 133.521 142.295C133.714 141.917 133.994 141.614 134.362 141.386C134.729 141.155 135.174 141.04 135.697 141.04C136.231 141.04 136.68 141.155 137.043 141.386C137.411 141.614 137.687 141.917 137.873 142.295C138.058 142.674 138.151 143.091 138.151 143.545V144.159C138.151 144.614 138.057 145.03 137.867 145.409C137.682 145.784 137.405 146.085 137.038 146.313C136.67 146.54 136.223 146.653 135.697 146.653C135.163 146.653 134.712 146.54 134.344 146.313C133.981 146.085 133.704 145.782 133.515 145.403C133.326 145.025 133.231 144.61 133.231 144.159ZM134.725 143.545V144.159C134.725 144.462 134.795 144.739 134.935 144.989C135.079 145.235 135.333 145.358 135.697 145.358C136.06 145.358 136.31 145.235 136.447 144.989C136.587 144.739 136.657 144.462 136.657 144.159V143.545C136.657 143.242 136.591 142.966 136.458 142.716C136.326 142.462 136.072 142.335 135.697 142.335C135.337 142.335 135.085 142.462 134.941 142.716C134.797 142.97 134.725 143.246 134.725 143.545ZM133.879 153L141.879 141.364H143.299L135.299 153H133.879Z" fill="#404040"/>
<mask id="path-3-inside-1_403_5257" fill="white">
<path d="M192.562 110.146C195.234 110.146 197.413 107.978 197.281 105.31C196.085 81.0404 185.917 58.009 168.654 40.7463C150.248 22.3403 125.284 12 99.2543 12C73.2244 12 48.2606 22.3403 29.8547 40.7463C12.5919 58.009 2.42395 81.0404 1.22751 105.31C1.09595 107.978 3.27451 110.146 5.94654 110.146V110.146C8.61857 110.146 10.7709 107.978 10.9168 105.31C12.1041 83.6084 21.2491 63.0362 36.6968 47.5884C53.2881 30.9971 75.7907 21.6763 99.2543 21.6763C122.718 21.6763 145.22 30.9972 161.812 47.5884C177.259 63.0362 186.404 83.6085 187.592 105.31C187.738 107.978 189.89 110.146 192.562 110.146V110.146Z"/>
</mask>
<path d="M192.562 110.146C195.234 110.146 197.413 107.978 197.281 105.31C196.085 81.0404 185.917 58.009 168.654 40.7463C150.248 22.3403 125.284 12 99.2543 12C73.2244 12 48.2606 22.3403 29.8547 40.7463C12.5919 58.009 2.42395 81.0404 1.22751 105.31C1.09595 107.978 3.27451 110.146 5.94654 110.146V110.146C8.61857 110.146 10.7709 107.978 10.9168 105.31C12.1041 83.6084 21.2491 63.0362 36.6968 47.5884C53.2881 30.9971 75.7907 21.6763 99.2543 21.6763C122.718 21.6763 145.22 30.9972 161.812 47.5884C177.259 63.0362 186.404 83.6085 187.592 105.31C187.738 107.978 189.89 110.146 192.562 110.146V110.146Z" stroke="white" stroke-width="16.5387" stroke-linejoin="round" mask="url(#path-3-inside-1_403_5257)"/>
<mask id="path-4-inside-2_403_5257" fill="white">
<path d="M192.872 111.957C193.973 111.957 194.868 111.063 194.846 109.962C194.522 93.884 190.289 78.1259 182.512 64.1003C174.747 50.098 163.701 38.277 150.37 29.6802C149.423 29.0695 148.164 29.381 147.588 30.3496V30.3496C147.024 31.298 147.328 32.5214 148.255 33.1196C161.022 41.3573 171.6 52.6811 179.037 66.093C186.478 79.5104 190.533 94.5823 190.856 109.962C190.879 111.063 191.77 111.957 192.872 111.957V111.957Z"/>
</mask>
<path d="M192.872 111.957C193.973 111.957 194.868 111.063 194.846 109.962C194.522 93.884 190.289 78.1259 182.512 64.1003C174.747 50.098 163.701 38.277 150.37 29.6802C149.423 29.0695 148.164 29.381 147.588 30.3496V30.3496C147.024 31.298 147.328 32.5214 148.255 33.1196C161.022 41.3573 171.6 52.6811 179.037 66.093C186.478 79.5104 190.533 94.5823 190.856 109.962C190.879 111.063 191.77 111.957 192.872 111.957V111.957Z" stroke="#62DC6F" stroke-width="18.3764" stroke-linejoin="round" mask="url(#path-4-inside-2_403_5257)"/>
<mask id="path-5-inside-3_403_5257" fill="white">
<path d="M48.6557 31.5531C48.0572 30.5985 46.7915 30.3172 45.8596 30.9504C33.1269 39.6017 22.6103 51.2378 15.2029 64.8908C7.78285 78.567 3.7097 93.8484 3.31409 109.444C3.28617 110.545 4.17624 111.443 5.27752 111.448V111.448C6.37908 111.454 7.27466 110.566 7.30357 109.465C7.69513 94.5477 11.5974 79.9328 18.6952 66.8505C25.7904 53.773 35.8621 42.6264 48.0558 34.3367C48.9677 33.7168 49.2415 32.4873 48.6557 31.5531V31.5531Z"/>
</mask>
<path d="M48.6557 31.5531C48.0572 30.5985 46.7915 30.3172 45.8596 30.9504C33.1269 39.6017 22.6103 51.2378 15.2029 64.8908C7.78285 78.567 3.7097 93.8484 3.31409 109.444C3.28617 110.545 4.17624 111.443 5.27752 111.448V111.448C6.37908 111.454 7.27466 110.566 7.30357 109.465C7.69513 94.5477 11.5974 79.9328 18.6952 66.8505C25.7904 53.773 35.8621 42.6264 48.0558 34.3367C48.9677 33.7168 49.2415 32.4873 48.6557 31.5531V31.5531Z" stroke="#FF9C00" stroke-width="18.3764" stroke-linejoin="round" mask="url(#path-5-inside-3_403_5257)"/>
<mask id="path-6-inside-4_403_5257" fill="white">
<path d="M144.793 29.0891C145.434 27.9281 145.025 26.4648 143.857 25.8367C129.661 18.2014 113.793 14.3121 97.7103 14.545C81.6267 14.7779 65.8729 19.1256 51.896 27.1698C50.7476 27.8307 50.3805 29.3039 51.053 30.4455V30.4455C51.7399 31.6113 53.2468 31.9863 54.421 31.3138C67.6577 23.7328 82.5628 19.6359 97.7785 19.4156C112.994 19.1952 128.007 22.8588 141.451 30.0532C142.644 30.6917 144.14 30.274 144.793 29.0891V29.0891Z"/>
</mask>
<path d="M144.793 29.0891C145.434 27.9281 145.025 26.4648 143.857 25.8367C129.661 18.2014 113.793 14.3121 97.7103 14.545C81.6267 14.7779 65.8729 19.1256 51.896 27.1698C50.7476 27.8307 50.3805 29.3039 51.053 30.4455V30.4455C51.7399 31.6113 53.2468 31.9863 54.421 31.3138C67.6577 23.7328 82.5628 19.6359 97.7785 19.4156C112.994 19.1952 128.007 22.8588 141.451 30.0532C142.644 30.6917 144.14 30.274 144.793 29.0891V29.0891Z" stroke="#FFCE64" stroke-width="18.3764" stroke-linejoin="round" mask="url(#path-6-inside-4_403_5257)"/>
<circle cx="105.708" cy="16.7081" r="4.7081" fill="#F8C016"/>
<circle cx="105.708" cy="16.7081" r="2.17297" fill="white"/>
<path d="M112.497 9.11934C111.929 9.11934 111.42 9.0128 110.972 8.79973C110.523 8.58382 110.166 8.28837 109.902 7.91337C109.641 7.53837 109.501 7.10939 109.484 6.62644H111.018C111.047 6.98439 111.202 7.27701 111.483 7.50428C111.764 7.72871 112.102 7.84093 112.497 7.84093C112.807 7.84093 113.082 7.7699 113.324 7.62786C113.565 7.48581 113.756 7.28837 113.895 7.03553C114.034 6.78269 114.102 6.49433 114.099 6.17047C114.102 5.84093 114.033 5.54831 113.891 5.29263C113.749 5.03695 113.554 4.83666 113.307 4.69178C113.06 4.54405 112.776 4.47019 112.455 4.47019C112.193 4.46735 111.936 4.51564 111.683 4.61507C111.43 4.71451 111.23 4.84519 111.082 5.00712L109.655 4.77274L110.111 0.272744H115.173V1.59377H111.419L111.168 3.90769H111.219C111.381 3.71735 111.609 3.55968 111.905 3.43468C112.2 3.30684 112.524 3.24291 112.876 3.24291C113.405 3.24291 113.876 3.36791 114.291 3.61791C114.706 3.86507 115.033 4.20598 115.271 4.64064C115.51 5.0753 115.629 5.57246 115.629 6.13212C115.629 6.70882 115.496 7.22303 115.229 7.67473C114.964 8.1236 114.597 8.47729 114.125 8.73581C113.656 8.99149 113.114 9.11934 112.497 9.11934Z" fill="#EFBA00"/>
<path d="M120.091 9.11934C119.523 9.11934 119.014 9.0128 118.565 8.79973C118.116 8.58382 117.76 8.28837 117.496 7.91337C117.234 7.53837 117.095 7.10939 117.078 6.62644H118.612C118.641 6.98439 118.795 7.27701 119.077 7.50428C119.358 7.72871 119.696 7.84093 120.091 7.84093C120.401 7.84093 120.676 7.7699 120.918 7.62786C121.159 7.48581 121.349 7.28837 121.489 7.03553C121.628 6.78269 121.696 6.49433 121.693 6.17047C121.696 5.84093 121.626 5.54831 121.484 5.29263C121.342 5.03695 121.148 4.83666 120.901 4.69178C120.653 4.54405 120.369 4.47019 120.048 4.47019C119.787 4.46735 119.53 4.51564 119.277 4.61507C119.024 4.71451 118.824 4.84519 118.676 5.00712L117.249 4.77274L117.705 0.272744H122.767V1.59377H119.013L118.761 3.90769H118.812C118.974 3.71735 119.203 3.55968 119.499 3.43468C119.794 3.30684 120.118 3.24291 120.47 3.24291C120.999 3.24291 121.47 3.36791 121.885 3.61791C122.3 3.86507 122.626 4.20598 122.865 4.64064C123.104 5.0753 123.223 5.57246 123.223 6.13212C123.223 6.70882 123.089 7.22303 122.822 7.67473C122.558 8.1236 122.19 8.47729 121.719 8.73581C121.25 8.99149 120.707 9.11934 120.091 9.11934Z" fill="#EFBA00"/>
<path d="M129.317 7.36365V6.90343C129.317 6.56536 129.388 6.25428 129.53 5.97019C129.675 5.6861 129.885 5.4574 130.161 5.28411C130.436 5.11081 130.77 5.02417 131.162 5.02417C131.565 5.02417 131.903 5.11081 132.176 5.28411C132.449 5.45456 132.655 5.68184 132.794 5.96593C132.936 6.25002 133.007 6.56252 133.007 6.90343V7.36365C133.007 7.70172 132.936 8.0128 132.794 8.29689C132.652 8.58098 132.443 8.80968 132.168 8.98297C131.895 9.15627 131.56 9.24292 131.162 9.24292C130.764 9.24292 130.428 9.15627 130.152 8.98297C129.876 8.80968 129.668 8.58098 129.526 8.29689C129.386 8.0128 129.317 7.70172 129.317 7.36365ZM130.429 6.90343V7.36365C130.429 7.58808 130.483 7.79405 130.591 7.98155C130.699 8.16905 130.889 8.2628 131.162 8.2628C131.438 8.2628 131.626 8.17047 131.729 7.98581C131.834 7.79831 131.886 7.59093 131.886 7.36365V6.90343C131.886 6.67615 131.837 6.46877 131.737 6.28127C131.638 6.09093 131.446 5.99576 131.162 5.99576C130.895 5.99576 130.706 6.09093 130.595 6.28127C130.484 6.46877 130.429 6.67615 130.429 6.90343ZM124.881 2.36934V1.90911C124.881 1.5682 124.953 1.2557 125.098 0.971608C125.243 0.687517 125.453 0.460244 125.729 0.289789C126.004 0.116494 126.338 0.0298462 126.73 0.0298462C127.131 0.0298462 127.467 0.116494 127.74 0.289789C128.016 0.460244 128.223 0.687517 128.362 0.971608C128.501 1.2557 128.571 1.5682 128.571 1.90911V2.36934C128.571 2.71024 128.5 3.02274 128.358 3.30684C128.219 3.58809 128.011 3.81394 127.736 3.98439C127.46 4.15485 127.125 4.24007 126.73 4.24007C126.33 4.24007 125.991 4.15485 125.716 3.98439C125.443 3.81394 125.236 3.58666 125.094 3.30257C124.952 3.01848 124.881 2.7074 124.881 2.36934ZM126.001 1.90911V2.36934C126.001 2.59661 126.054 2.80399 126.159 2.99149C126.267 3.17615 126.457 3.26848 126.73 3.26848C127.003 3.26848 127.19 3.17615 127.293 2.99149C127.398 2.80399 127.45 2.59661 127.45 2.36934V1.90911C127.45 1.68184 127.401 1.47445 127.301 1.28695C127.202 1.09661 127.011 1.00144 126.73 1.00144C126.46 1.00144 126.271 1.09661 126.163 1.28695C126.055 1.47729 126.001 1.68468 126.001 1.90911ZM125.366 9.00002L131.366 0.272744H132.432L126.432 9.00002H125.366Z" fill="#EFBA00"/>
<path d="M185.633 117.818V128H184.4V119.111H184.34L181.854 120.761V119.509L184.4 117.818H185.633Z" fill="#0ACF83"/>
<path d="M191.882 128.139C191.133 128.139 190.495 127.935 189.968 127.528C189.441 127.117 189.038 126.522 188.76 125.743C188.482 124.961 188.342 124.016 188.342 122.909C188.342 121.809 188.482 120.869 188.76 120.09C189.042 119.308 189.446 118.711 189.973 118.3C190.503 117.886 191.14 117.679 191.882 117.679C192.625 117.679 193.259 117.886 193.786 118.3C194.317 118.711 194.721 119.308 194.999 120.09C195.281 120.869 195.422 121.809 195.422 122.909C195.422 124.016 195.283 124.961 195.004 125.743C194.726 126.522 194.323 127.117 193.796 127.528C193.269 127.935 192.631 128.139 191.882 128.139ZM191.882 127.045C192.625 127.045 193.201 126.688 193.612 125.972C194.023 125.256 194.229 124.235 194.229 122.909C194.229 122.028 194.134 121.277 193.945 120.657C193.76 120.037 193.491 119.565 193.14 119.24C192.792 118.915 192.373 118.753 191.882 118.753C191.146 118.753 190.571 119.116 190.157 119.842C189.743 120.564 189.536 121.587 189.536 122.909C189.536 123.791 189.628 124.54 189.814 125.156C190 125.773 190.266 126.242 190.614 126.563C190.966 126.885 191.388 127.045 191.882 127.045Z" fill="#0ACF83"/>
<path d="M200.632 128.139C199.883 128.139 199.245 127.935 198.718 127.528C198.191 127.117 197.788 126.522 197.51 125.743C197.232 124.961 197.092 124.016 197.092 122.909C197.092 121.809 197.232 120.869 197.51 120.09C197.792 119.308 198.196 118.711 198.723 118.3C199.253 117.886 199.89 117.679 200.632 117.679C201.375 117.679 202.009 117.886 202.536 118.3C203.067 118.711 203.471 119.308 203.749 120.09C204.031 120.869 204.172 121.809 204.172 122.909C204.172 124.016 204.033 124.961 203.754 125.743C203.476 126.522 203.073 127.117 202.546 127.528C202.019 127.935 201.381 128.139 200.632 128.139ZM200.632 127.045C201.375 127.045 201.951 126.688 202.362 125.972C202.773 125.256 202.979 124.235 202.979 122.909C202.979 122.028 202.884 121.277 202.695 120.657C202.51 120.037 202.241 119.565 201.89 119.24C201.542 118.915 201.123 118.753 200.632 118.753C199.896 118.753 199.321 119.116 198.907 119.842C198.493 120.564 198.286 121.587 198.286 122.909C198.286 123.791 198.378 124.54 198.564 125.156C198.75 125.773 199.016 126.242 199.364 126.563C199.716 126.885 200.138 127.045 200.632 127.045Z" fill="#0ACF83"/>
<path d="M4.37473 128.139C3.62568 128.139 2.98766 127.935 2.46067 127.528C1.93368 127.117 1.53098 126.522 1.25257 125.743C0.974166 124.961 0.834961 124.016 0.834961 122.909C0.834961 121.809 0.974166 120.869 1.25257 120.09C1.5343 119.308 1.93865 118.711 2.46564 118.3C2.99595 117.886 3.63231 117.679 4.37473 117.679C5.11716 117.679 5.75186 117.886 6.27885 118.3C6.80916 118.711 7.21351 119.308 7.49192 120.09C7.77364 120.869 7.91451 121.809 7.91451 122.909C7.91451 124.016 7.7753 124.961 7.49689 125.743C7.21848 126.522 6.81578 127.117 6.2888 127.528C5.76181 127.935 5.12379 128.139 4.37473 128.139ZM4.37473 127.045C5.11716 127.045 5.69386 126.688 6.10485 125.972C6.51583 125.256 6.72132 124.235 6.72132 122.909C6.72132 122.028 6.62686 121.277 6.43794 120.657C6.25234 120.037 5.98387 119.565 5.63255 119.24C5.28453 118.915 4.86526 118.753 4.37473 118.753C3.63894 118.753 3.06389 119.116 2.64959 119.842C2.23529 120.564 2.02814 121.587 2.02814 122.909C2.02814 123.791 2.12095 124.54 2.30655 125.156C2.49216 125.773 2.75897 126.242 3.10698 126.563C3.4583 126.885 3.88089 127.045 4.37473 127.045Z" fill="#FFC260"/>
</svg>
