<svg width="24" height="24" viewBox="0 0 24 24" fill="none" xmlns="http://www.w3.org/2000/svg">
<path d="M21 22C21.5523 22 22 21.5523 22 21C22 20.4477 21.5523 20 21 20V22ZM4 3C4 2.44772 3.55228 2 3 2C2.44772 2 2 2.44772 2 3H4ZM4.63803 20.673L4.18404 21.564H4.18404L4.63803 20.673ZM3.32698 19.362L4.21799 18.908L4.21799 18.908L3.32698 19.362ZM5.29289 14.2929C4.90237 14.6834 4.90237 15.3166 5.29289 15.7071C5.68342 16.0976 6.31658 16.0976 6.70711 15.7071L5.29289 14.2929ZM10 11L10.7071 10.2929C10.3166 9.90237 9.68342 9.90237 9.29289 10.2929L10 11ZM14 15L13.2929 15.7071C13.6834 16.0976 14.3166 16.0976 14.7071 15.7071L14 15ZM20 9H21C21 8.44772 20.5523 8 20 8V9ZM19 13C19 13.5523 19.4477 14 20 14C20.5523 14 21 13.5523 21 13H19ZM16 8C15.4477 8 15 8.44772 15 9C15 9.55228 15.4477 10 16 10V8ZM21 20H7.8V22H21V20ZM4 16.2V3H2V16.2H4ZM7.8 20C6.94342 20 6.36113 19.9992 5.91104 19.9624C5.47262 19.9266 5.24842 19.8617 5.09202 19.782L4.18404 21.564C4.66937 21.8113 5.18608 21.9099 5.74817 21.9558C6.2986 22.0008 6.97642 22 7.8 22V20ZM2 16.2C2 17.0236 1.99922 17.7014 2.04419 18.2518C2.09012 18.8139 2.18868 19.3306 2.43597 19.816L4.21799 18.908C4.1383 18.7516 4.07337 18.5274 4.03755 18.089C4.00078 17.6389 4 17.0566 4 16.2H2ZM5.09202 19.782C4.71569 19.5903 4.40973 19.2843 4.21799 18.908L2.43597 19.816C2.81947 20.5686 3.43139 21.1805 4.18404 21.564L5.09202 19.782ZM6.70711 15.7071L10.7071 11.7071L9.29289 10.2929L5.29289 14.2929L6.70711 15.7071ZM14.7071 15.7071L20.7071 9.70711L19.2929 8.29289L13.2929 14.2929L14.7071 15.7071ZM9.29289 11.7071L13.2929 15.7071L14.7071 14.2929L10.7071 10.2929L9.29289 11.7071ZM21 13V9H19V13H21ZM20 8H16V10H20V8Z" fill="#08BD1B"/>
</svg>
