<svg width="20" height="20" viewBox="0 0 20 20" fill="none" xmlns="http://www.w3.org/2000/svg">
<path d="M1.99923 19H17.9992M9.99923 19V5M9.99923 5C11.1038 5 11.9992 4.10457 11.9992 3M9.99923 5C8.89466 5 7.99923 4.10457 7.99923 3M11.9992 3C11.9992 1.89543 11.1038 1 9.99923 1C8.89466 1 7.99923 1.89543 7.99923 3M11.9992 3H17.9992M7.99923 3H1.99923M3.99923 15C5.51177 15 6.76287 14.1584 6.96934 12.7513C6.98242 12.6621 6.98897 12.6175 6.98385 12.5186C6.98031 12.4503 6.95717 12.3256 6.93599 12.2605C6.90531 12.1664 6.86812 12.1003 6.79375 11.968L3.99923 7L1.2047 11.968C1.13575 12.0906 1.10128 12.1519 1.06939 12.2584C1.04977 12.3239 1.02706 12.4811 1.02735 12.5494C1.02781 12.6606 1.03453 12.6899 1.04799 12.7486C1.30295 13.86 2.5273 15 3.99923 15ZM15.9992 15C17.5118 15 18.7629 14.1584 18.9693 12.7513C18.9824 12.6621 18.989 12.6175 18.9838 12.5186C18.9803 12.4503 18.9572 12.3256 18.936 12.2605C18.9053 12.1664 18.8681 12.1003 18.7937 11.968L15.9992 7L13.2047 11.968C13.1358 12.0906 13.1013 12.1519 13.0694 12.2584C13.0498 12.3239 13.0271 12.4811 13.0273 12.5494C13.0278 12.6606 13.0345 12.6899 13.048 12.7486C13.303 13.86 14.5273 15 15.9992 15Z" stroke="#404040" stroke-width="2" stroke-linecap="round" stroke-linejoin="round"/>
</svg>
