<svg width="18" height="20" viewBox="0 0 18 20" fill="none" xmlns="http://www.w3.org/2000/svg">
<path d="M6 9.99999H12M9 6.99999V13M17 9.99999C17 14.4611 11.54 17.6937 9.64142 18.683C9.43607 18.79 9.33339 18.8435 9.19095 18.8712C9.08 18.8928 8.92 18.8928 8.80905 18.8712C8.66661 18.8435 8.56393 18.79 8.35858 18.683C6.45996 17.6937 1 14.4611 1 9.99999V6.21759C1 5.41808 1 5.01833 1.13076 4.6747C1.24627 4.37113 1.43398 4.10027 1.67766 3.88552C1.9535 3.64243 2.3278 3.50207 3.0764 3.22134L8.4382 1.21067C8.6461 1.13271 8.75005 1.09373 8.85698 1.07827C8.95184 1.06457 9.04816 1.06457 9.14302 1.07827C9.24995 1.09373 9.3539 1.13271 9.5618 1.21067L14.9236 3.22134C15.6722 3.50207 16.0465 3.64243 16.3223 3.88552C16.566 4.10027 16.7537 4.37113 16.8692 4.6747C17 5.01833 17 5.41808 17 6.21759V9.99999Z" stroke="#404040" stroke-width="2" stroke-linecap="round" stroke-linejoin="round"/>
</svg>
