<svg width="18" height="21" viewBox="0 0 18 21" fill="none" xmlns="http://www.w3.org/2000/svg">
<path d="M8.30201 19.6149C8.5234 19.744 8.6341 19.8086 8.79032 19.8421C8.91156 19.8681 9.08844 19.8681 9.20968 19.8421C9.3659 19.8086 9.4766 19.744 9.69799 19.6149C11.646 18.4784 17 14.9084 17 10V4.6C17 4.04207 17 3.7631 16.8926 3.55048C16.7974 3.36198 16.6487 3.21152 16.4613 3.11409C16.25 3.00419 15.9663 3.00084 15.3988 2.99413C12.4272 2.95899 10.7136 2.71361 9 1C7.28639 2.71361 5.57279 2.95899 2.6012 2.99413C2.03373 3.00084 1.74999 3.00419 1.53865 3.11409C1.35129 3.21152 1.20259 3.36198 1.10739 3.55048C1 3.7631 1 4.04207 1 4.6V10C1 14.9084 6.35396 18.4784 8.30201 19.6149Z" stroke="#404040" stroke-width="2" stroke-linecap="round" stroke-linejoin="round"/>
</svg>
