<svg width="34" height="34" viewBox="0 0 34 34" fill="none" xmlns="http://www.w3.org/2000/svg">
<path d="M16.7118 -7.70244e-05C25.9414 -7.74279e-05 33.4236 7.61104 33.4236 16.9998C33.4236 26.3886 25.9414 33.9998 16.7118 33.9998C7.48212 33.9998 -3.32693e-07 26.3886 -7.4309e-07 16.9998C-1.15349e-06 7.61105 7.48212 -7.6621e-05 16.7118 -7.70244e-05ZM16.7118 28.8998C23.1725 28.8998 28.41 23.572 28.41 16.9998C28.41 10.4277 23.1725 5.0999 16.7118 5.0999C10.251 5.0999 5.01353 10.4277 5.01353 16.9998C5.01354 23.572 10.251 28.8998 16.7118 28.8998Z" fill="#DFF5E1"/>
<path d="M16.7101 2.54999C16.7101 1.14167 17.8585 -0.0201984 19.2499 0.197441C22.196 0.658263 24.9839 1.91532 27.3119 3.8588C30.3007 6.35389 32.3465 9.82595 33.1008 13.6834C33.8551 17.5408 33.2712 21.545 31.4486 25.0136C29.626 28.4822 26.6775 31.2007 23.1054 32.7058C19.5334 34.2109 15.5588 34.4095 11.8589 33.2678C8.15904 32.1261 4.96278 29.7148 2.81475 26.4446C0.666717 23.1744 -0.300191 19.2477 0.0787766 15.3336C0.374076 12.2837 1.47232 9.3885 3.23635 6.94294C4.06305 5.79685 5.70526 5.80535 6.69592 6.8131C7.66292 7.79677 7.63518 9.36361 6.8939 10.5269C5.88377 12.112 5.2525 13.9297 5.06817 15.8335C4.80289 18.5734 5.47973 21.322 6.98335 23.6112C8.48698 25.9003 10.7244 27.5883 13.3143 28.3875C15.9042 29.1866 18.6864 29.0476 21.1868 27.994C23.6873 26.9405 25.7512 25.0375 27.027 22.6095C28.3028 20.1815 28.7116 17.3786 28.1836 14.6784C27.6556 11.9781 26.2235 9.54769 24.1314 7.80114C22.7011 6.60709 21.0228 5.78319 19.2393 5.38142C17.8654 5.07191 16.7101 3.95831 16.7101 2.54999Z" fill="#47BA53"/>
</svg>
