<svg width="34" height="34" viewBox="0 0 34 34" fill="none" xmlns="http://www.w3.org/2000/svg">
<path d="M16.7118 -7.70244e-05C25.9414 -7.74279e-05 33.4236 7.61104 33.4236 16.9998C33.4236 26.3886 25.9414 33.9998 16.7118 33.9998C7.48212 33.9998 -3.32693e-07 26.3886 -7.4309e-07 16.9998C-1.15349e-06 7.61105 7.48212 -7.6621e-05 16.7118 -7.70244e-05ZM16.7118 28.8998C23.1725 28.8998 28.41 23.572 28.41 16.9998C28.41 10.4277 23.1725 5.0999 16.7118 5.0999C10.251 5.0999 5.01353 10.4277 5.01353 16.9998C5.01354 23.572 10.251 28.8998 16.7118 28.8998Z" fill="#FEE5DB"/>
<path d="M16.7101 2.54999C16.7101 1.14167 17.8585 -0.020172 19.2499 0.197465C21.0625 0.480993 22.8228 1.06704 24.458 1.93742C26.849 3.21008 28.9015 5.05281 30.4399 7.30807C31.9784 9.56332 32.9571 12.164 33.2924 14.8878C33.5237 16.7672 33.444 18.6667 33.0621 20.5085C32.7782 21.8777 31.2977 22.5433 29.9906 22.0466C28.704 21.5577 28.0792 20.1228 28.2795 18.7611C28.4368 17.6918 28.4507 16.6019 28.3177 15.5214C28.083 13.6148 27.3979 11.7943 26.321 10.2156C25.2441 8.63694 23.8073 7.34703 22.1336 6.45617C21.2163 5.96791 20.2428 5.60748 19.2393 5.38142C17.8654 5.07194 16.7101 3.95831 16.7101 2.54999Z" fill="#F97C4D"/>
</svg>
