<svg width="34" height="34" viewBox="0 0 34 34" fill="none" xmlns="http://www.w3.org/2000/svg">
<path d="M16.7118 -7.70244e-05C25.9414 -7.74279e-05 33.4236 7.61104 33.4236 16.9998C33.4236 26.3886 25.9414 33.9998 16.7118 33.9998C7.48212 33.9998 -3.32693e-07 26.3886 -7.4309e-07 16.9998C-1.15349e-06 7.61105 7.48212 -7.6621e-05 16.7118 -7.70244e-05ZM16.7118 28.8998C23.1725 28.8998 28.41 23.572 28.41 16.9998C28.41 10.4277 23.1725 5.0999 16.7118 5.0999C10.251 5.0999 5.01353 10.4277 5.01353 16.9998C5.01354 23.572 10.251 28.8998 16.7118 28.8998Z" fill="#FEE5DB"/>
<path d="M16.7101 2.54999C16.7101 1.14167 17.8585 -0.0202022 19.2499 0.197437C22.3181 0.677342 25.2123 2.02048 27.5934 4.09909C30.6233 6.74408 32.6222 10.4051 33.2282 14.4196C33.8343 18.434 33.0074 22.5365 30.8972 25.9844C29.2417 28.6896 26.882 30.8516 24.1027 32.2461C22.8372 32.8811 21.3833 32.1129 20.965 30.7602C20.5525 29.4261 21.3125 28.0313 22.5193 27.3289C24.1897 26.3567 25.6104 24.9733 26.6411 23.2891C28.1182 20.8755 28.697 18.0038 28.2728 15.1937C27.8486 12.3836 26.4494 9.82083 24.3284 7.96934C22.8574 6.68521 21.1066 5.80207 19.2393 5.38141C17.8654 5.07191 16.7101 3.95831 16.7101 2.54999Z" fill="#F97C4D"/>
</svg>
