<svg width="12" height="17" viewBox="0 0 12 17" fill="none" xmlns="http://www.w3.org/2000/svg">
<path fill-rule="evenodd" clip-rule="evenodd" d="M9.11274 2L2.70711 8.40564L2 9.11274L8.40564 15.5184L9.11274 14.8113L3.41421 9.11274L9.81985 2.70711L9.11274 2Z" fill="#4FD47C"/>
<path d="M2.70711 8.40564L2 7.69853H2L2.70711 8.40564ZM9.11274 2L9.81985 1.29289L9.11274 0.585786L8.40564 1.29289L9.11274 2ZM2 9.11274L1.29289 8.40564L0.585787 9.11274L1.29289 9.81985L2 9.11274ZM8.40564 15.5184L7.69853 16.2255L8.40564 16.9326L9.11274 16.2255L8.40564 15.5184ZM9.11274 14.8113L9.81985 15.5184L10.527 14.8113L9.81985 14.1042L9.11274 14.8113ZM3.41421 9.11274L2.70711 8.40564L2 9.11274L2.70711 9.81985L3.41421 9.11274ZM9.81985 2.70711L10.527 3.41421L11.2341 2.70711L10.527 2L9.81985 2.70711ZM3.41421 9.11274L9.81985 2.70711L8.40564 1.29289L2 7.69853L3.41421 9.11274ZM2.70711 9.81985L3.41421 9.11274L2 7.69853L1.29289 8.40564L2.70711 9.81985ZM9.11274 14.8113L2.70711 8.40564L1.29289 9.81985L7.69853 16.2255L9.11274 14.8113ZM8.40564 14.1042L7.69853 14.8113L9.11274 16.2255L9.81985 15.5184L8.40564 14.1042ZM2.70711 9.81985L8.40564 15.5184L9.81985 14.1042L4.12132 8.40564L2.70711 9.81985ZM9.11274 2L2.70711 8.40564L4.12132 9.81985L10.527 3.41421L9.11274 2ZM8.40564 2.70711L9.11274 3.41421L10.527 2L9.81985 1.29289L8.40564 2.70711Z" fill="#4FD47C"/>
</svg>
