<svg width="20" height="20" viewBox="0 0 20 20" fill="none" xmlns="http://www.w3.org/2000/svg">
<path d="M14.0004 6.99996C14.6281 7.83562 15 8.87436 15 9.99996C15 11.1256 14.6281 12.1643 14.0004 13M16 3.29164C17.8412 4.9396 19 7.33446 19 9.99996C19 12.6655 17.8412 15.0603 16 16.7083M2.6 6.99996H3.5012C4.05213 6.99996 4.32759 6.99996 4.58285 6.93129C4.80903 6.87044 5.02275 6.77033 5.21429 6.63554C5.43047 6.4834 5.60681 6.27179 5.95951 5.84855L8.58542 2.69745C9.02111 2.17463 9.23895 1.91323 9.42924 1.88602C9.59402 1.86246 9.75972 1.92245 9.87123 2.04604C10 2.18876 10 2.52904 10 3.2096V16.7903C10 17.4709 10 17.8112 9.87123 17.9539C9.75972 18.0775 9.59402 18.1375 9.42924 18.1139C9.23895 18.0867 9.02109 17.8253 8.58542 17.3025L5.95951 14.1514C5.60681 13.7281 5.43047 13.5165 5.21429 13.3644C5.02275 13.2296 4.80903 13.1295 4.58285 13.0686C4.32759 13 4.05213 13 3.5012 13H2.6C2.03995 13 1.75992 13 1.54601 12.891C1.35785 12.7951 1.20487 12.6421 1.10899 12.454C1 12.24 1 11.96 1 11.4V8.59996C1 8.03991 1 7.75988 1.10899 7.54597C1.20487 7.35781 1.35785 7.20483 1.54601 7.10896C1.75992 6.99996 2.03995 6.99996 2.6 6.99996Z" stroke="#404040" stroke-width="2" stroke-linecap="round" stroke-linejoin="round"/>
</svg>
