<svg width="53" height="56" viewBox="0 0 53 56" fill="none" xmlns="http://www.w3.org/2000/svg">
<path d="M41.5004 46.5953H23.1864V46.591H12.9687C12.5332 46.9109 11.9925 47.1008 11.4064 47.1008C9.96793 47.1008 8.80164 45.9584 8.80164 44.5493C8.80164 44.5427 8.80164 44.5354 8.80164 44.5289C8.80164 44.5223 8.80164 44.515 8.80164 44.5084C8.80164 43.2973 9.65772 42.2827 10.8098 42.0124L15.2871 38.0321C15.2871 38.0321 19.4728 40.2001 23.1342 40.6333C23.1342 40.6333 23.1439 40.6501 23.1596 40.6801C24.2849 40.8641 25.44 40.9606 26.6182 40.9606C38.1656 40.9606 47.5265 31.7911 47.5265 20.4799C47.5265 16.4244 46.3229 12.645 44.2468 9.46384L44.8598 8.8634L44.8106 8.81519C46.3281 8.03214 47.3632 6.47261 47.3632 4.67567C47.3632 2.09277 45.2259 -0.000732422 42.5891 -0.000732422C40.7405 -0.000732422 39.138 1.02922 38.3453 2.53469L37.7353 3.13221C34.5138 1.14901 30.7025 -1.96166e-06 26.6174 -1.96166e-06C15.0701 -1.96166e-06 5.70917 9.16947 5.70917 20.4806C5.70917 24.4828 6.88218 28.2155 8.90828 31.3703L5.11037 35.0906C2.02535 37.1512 0 40.6202 0 44.5537C0 50.6859 4.92319 55.6918 11.1089 55.9861V56H53C52.0172 50.6523 47.2431 46.5953 41.5004 46.5953ZM26.6174 9.0336C28.1298 9.0336 29.5749 9.31483 30.9008 9.82688C30.9918 9.86194 31.082 9.89847 31.1715 9.93572C31.1961 9.94594 31.22 9.9569 31.2446 9.96713C31.3095 9.99415 31.3743 10.0219 31.4377 10.0504C31.4691 10.0643 31.5004 10.0789 31.5317 10.0935C31.5884 10.1191 31.645 10.1446 31.701 10.1717C31.7345 10.1877 31.7681 10.2045 31.8009 10.2206C31.8538 10.2462 31.9075 10.2725 31.9605 10.2988C31.9948 10.3163 32.0283 10.3338 32.0626 10.3514C32.1141 10.3784 32.1656 10.4047 32.217 10.4324C32.2506 10.4507 32.2841 10.4697 32.3184 10.4879C32.3691 10.5157 32.4198 10.5435 32.4698 10.5719C32.5034 10.5909 32.5362 10.6099 32.569 10.6297C32.6189 10.6589 32.6697 10.6881 32.7189 10.718C32.7509 10.737 32.783 10.7568 32.8151 10.7765C32.865 10.8072 32.915 10.8378 32.965 10.87C32.9963 10.8897 33.0268 10.9094 33.0574 10.9299C33.1074 10.962 33.1573 10.9949 33.2066 11.0278C33.2364 11.0475 33.2655 11.0679 33.2953 11.0877C33.3453 11.122 33.3952 11.1563 33.4452 11.1914C33.4735 11.2111 33.5011 11.2308 33.5287 11.2513C33.5794 11.2878 33.6294 11.3243 33.6793 11.3616C33.7054 11.3813 33.7315 11.401 33.7576 11.42C33.8091 11.4587 33.8598 11.4982 33.9098 11.5376C33.9336 11.5566 33.9582 11.5756 33.9821 11.5946C34.0343 11.6362 34.0858 11.6779 34.1372 11.7202C34.1588 11.7385 34.1805 11.756 34.2021 11.7743C34.255 11.8188 34.308 11.8634 34.3602 11.9094C34.3796 11.9262 34.3982 11.9423 34.4176 11.9591C34.472 12.0073 34.5265 12.0555 34.5802 12.1052C34.5958 12.1198 34.6122 12.1344 34.6279 12.149C34.6846 12.2016 34.7412 12.2549 34.7972 12.3083C34.8091 12.3199 34.8218 12.3316 34.8337 12.3433C34.8941 12.4018 34.9538 12.4609 35.0127 12.5201C35.0201 12.5274 35.0276 12.5347 35.035 12.5427C35.0999 12.6092 35.1641 12.6757 35.2274 12.7436L35.2312 12.7473C36.1551 13.7348 36.9045 14.8809 37.4325 16.1402C37.9933 17.4792 38.3035 18.9452 38.3035 20.4821C38.3035 26.8042 33.0716 31.9291 26.6174 31.9291C25.0485 31.9291 23.5518 31.6253 22.1849 31.076C20.9001 30.5595 19.7293 29.8254 18.7218 28.9204L18.7181 28.9167C18.6488 28.8546 18.5809 28.7918 18.5131 28.7283C18.5056 28.721 18.4974 28.7137 18.4899 28.7064C18.4295 28.6487 18.3691 28.5902 18.3095 28.5318C18.2975 28.5201 18.2856 28.5077 18.2737 28.4953C18.2192 28.4405 18.1648 28.3857 18.1111 28.3294C18.0962 28.3141 18.0813 28.298 18.0664 28.2827C18.0164 28.2301 17.9664 28.1768 17.9172 28.1234C17.9001 28.1045 17.8829 28.0862 17.8665 28.0672C17.8203 28.0161 17.774 27.9642 17.7286 27.9123C17.7099 27.8912 17.692 27.87 17.6734 27.8488C17.6301 27.7984 17.5876 27.748 17.5451 27.6969C17.5257 27.6735 17.5063 27.6501 17.4869 27.6267C17.4467 27.5771 17.4064 27.5274 17.3669 27.4777C17.3468 27.4522 17.3266 27.4266 17.3072 27.401C17.2692 27.3521 17.2319 27.3031 17.1946 27.2535C17.1745 27.2264 17.1536 27.1994 17.1335 27.1717C17.0977 27.1227 17.0626 27.0738 17.0276 27.0248C17.0075 26.9963 16.9866 26.9671 16.9664 26.9386C16.9329 26.8904 16.8993 26.8415 16.8665 26.7925C16.8464 26.7626 16.8255 26.7319 16.8054 26.702C16.7733 26.6538 16.742 26.6048 16.7107 26.5559C16.6905 26.5245 16.6704 26.4931 16.651 26.4617C16.6204 26.4127 16.5906 26.3638 16.5608 26.3141C16.5414 26.282 16.5213 26.2498 16.5026 26.2169C16.4735 26.1673 16.4452 26.1176 16.4161 26.0679C16.3975 26.0351 16.3781 26.0022 16.3602 25.9693C16.3318 25.9189 16.305 25.8678 16.2774 25.8174C16.2595 25.7845 16.2416 25.7516 16.2245 25.7188C16.1969 25.6669 16.1708 25.6143 16.1439 25.5617C16.1275 25.5296 16.1104 25.4967 16.0947 25.4646C16.0671 25.4091 16.041 25.3535 16.0149 25.298C16.0007 25.2673 15.9858 25.2374 15.9717 25.2067C15.9426 25.1439 15.9142 25.0796 15.8859 25.0161C15.8755 24.9927 15.8643 24.9693 15.8546 24.9452C15.8166 24.8576 15.7793 24.7684 15.7435 24.6793C15.2207 23.3798 14.9336 21.9649 14.9336 20.4836C14.9336 14.1614 20.1655 9.03652 26.6197 9.03652L26.6174 9.0336Z" fill="#0F1029"/>
</svg>
